<svg xmlns="http://www.w3.org/2000/svg" viewBox="0 0 720 540" width="720" height="540" role="img" aria-label="Морковь под прикрытием"><defs><radialGradient id="bg"><stop stop-color="#49301e"/><stop offset="1" stop-color="#170f0d"/></radialGradient><linearGradient id="plate"><stop stop-color="#fbd698"/><stop offset=".55" stop-color="#7f4228"/><stop offset="1" stop-color="#442322"/></linearGradient><clipPath id="food"><ellipse cx="360" cy="276" rx="228" ry="143"/></clipPath></defs><rect width="720" height="540" fill="url(#bg)"/><ellipse cx="360" cy="464" rx="270" ry="40" fill="#0c0706" opacity=".6"/><ellipse cx="360" cy="275" rx="267" ry="179" fill="url(#plate)" stroke="#c88e56" stroke-width="8"/><ellipse cx="360" cy="276" rx="241" ry="155" fill="#c48a42" stroke="#f3d298" stroke-width="10"/><g clip-path="url(#food)"><path d="M179.6 167.0q106.5 -25 159.8 0t159.8 0" stroke="#734322" stroke-width="13" fill="none" opacity=".75"/><path d="M179.6 164.0q106.5 -25 159.8 0t159.8 0" stroke="#ffe09b" stroke-width="7" fill="none" stroke-linecap="round"/><path d="M165.9 181.5q112.0 -25 168.0 0t168.0 0" stroke="#734322" stroke-width="13" fill="none" opacity=".75"/><path d="M165.9 178.5q112.0 -25 168.0 0t168.0 0" stroke="#ffc25f" stroke-width="7" fill="none" stroke-linecap="round"/><path d="M195.3 182.8q118.2 -25 177.3 0t177.3 0" stroke="#734322" stroke-width="13" fill="none" opacity=".75"/><path d="M195.3 179.8q118.2 -25 177.3 0t177.3 0" stroke="#ffc25f" stroke-width="7" fill="none" stroke-linecap="round"/><path d="M212.8 174.7q105.1 -25 157.6 0t157.6 0" stroke="#734322" stroke-width="13" fill="none" opacity=".75"/><path d="M212.8 171.7q105.1 -25 157.6 0t157.6 0" stroke="#ffe09b" stroke-width="7" fill="none" stroke-linecap="round"/><path d="M172.8 172.8q109.5 -25 164.2 0t164.2 0" stroke="#734322" stroke-width="13" fill="none" opacity=".75"/><path d="M172.8 169.8q109.5 -25 164.2 0t164.2 0" stroke="#ffc25f" stroke-width="7" fill="none" stroke-linecap="round"/><path d="M158.1 184.9q105.8 -25 158.7 0t158.7 0" stroke="#734322" stroke-width="13" fill="none" opacity=".75"/><path d="M158.1 181.9q105.8 -25 158.7 0t158.7 0" stroke="#ffc25f" stroke-width="7" fill="none" stroke-linecap="round"/><path d="M194.7 200.9q109.7 -25 164.5 0t164.5 0" stroke="#734322" stroke-width="13" fill="none" opacity=".75"/><path d="M194.7 197.9q109.7 -25 164.5 0t164.5 0" stroke="#ffe09b" stroke-width="7" fill="none" stroke-linecap="round"/><path d="M192.1 205.8q112.9 -25 169.4 0t169.4 0" stroke="#734322" stroke-width="13" fill="none" opacity=".75"/><path d="M192.1 202.8q112.9 -25 169.4 0t169.4 0" stroke="#ffc25f" stroke-width="7" fill="none" stroke-linecap="round"/><path d="M163.5 198.7q132.5 -25 198.8 0t198.8 0" stroke="#734322" stroke-width="13" fill="none" opacity=".75"/><path d="M163.5 195.7q132.5 -25 198.8 0t198.8 0" stroke="#ffc25f" stroke-width="7" fill="none" stroke-linecap="round"/><path d="M166.3 194.0q124.3 -25 186.4 0t186.4 0" stroke="#734322" stroke-width="13" fill="none" opacity=".75"/><path d="M166.3 191.0q124.3 -25 186.4 0t186.4 0" stroke="#ffe09b" stroke-width="7" fill="none" stroke-linecap="round"/><path d="M157.6 203.1q111.9 -25 167.9 0t167.9 0" stroke="#734322" stroke-width="13" fill="none" opacity=".75"/><path d="M157.6 200.1q111.9 -25 167.9 0t167.9 0" stroke="#ffc25f" stroke-width="7" fill="none" stroke-linecap="round"/><path d="M185.9 219.7q133.1 -25 199.6 0t199.6 0" stroke="#734322" stroke-width="13" fill="none" opacity=".75"/><path d="M185.9 216.7q133.1 -25 199.6 0t199.6 0" stroke="#ffc25f" stroke-width="7" fill="none" stroke-linecap="round"/><path d="M204.0 228.0q136.6 -25 204.9 0t204.9 0" stroke="#734322" stroke-width="13" fill="none" opacity=".75"/><path d="M204.0 225.0q136.6 -25 204.9 0t204.9 0" stroke="#ffe09b" stroke-width="7" fill="none" stroke-linecap="round"/><path d="M179.8 222.8q110.0 -25 165.0 0t165.0 0" stroke="#734322" stroke-width="13" fill="none" opacity=".75"/><path d="M179.8 219.8q110.0 -25 165.0 0t165.0 0" stroke="#ffc25f" stroke-width="7" fill="none" stroke-linecap="round"/><path d="M204.0 216.0q128.9 -25 193.3 0t193.3 0" stroke="#734322" stroke-width="13" fill="none" opacity=".75"/><path d="M204.0 213.0q128.9 -25 193.3 0t193.3 0" stroke="#ffc25f" stroke-width="7" fill="none" stroke-linecap="round"/><path d="M208.2 221.7q109.7 -25 164.6 0t164.6 0" stroke="#734322" stroke-width="13" fill="none" opacity=".75"/><path d="M208.2 218.7q109.7 -25 164.6 0t164.6 0" stroke="#ffe09b" stroke-width="7" fill="none" stroke-linecap="round"/><path d="M204.8 238.0q103.1 -25 154.7 0t154.7 0" stroke="#734322" stroke-width="13" fill="none" opacity=".75"/><path d="M204.8 235.0q103.1 -25 154.7 0t154.7 0" stroke="#ffc25f" stroke-width="7" fill="none" stroke-linecap="round"/><path d="M204.3 249.4q102.7 -25 154.1 0t154.1 0" stroke="#734322" stroke-width="13" fill="none" opacity=".75"/><path d="M204.3 246.4q102.7 -25 154.1 0t154.1 0" stroke="#ffc25f" stroke-width="7" fill="none" stroke-linecap="round"/><path d="M178.2 246.8q131.0 -25 196.5 0t196.5 0" stroke="#734322" stroke-width="13" fill="none" opacity=".75"/><path d="M178.2 243.8q131.0 -25 196.5 0t196.5 0" stroke="#ffe09b" stroke-width="7" fill="none" stroke-linecap="round"/><path d="M175.5 238.8q131.0 -25 196.5 0t196.5 0" stroke="#734322" stroke-width="13" fill="none" opacity=".75"/><path d="M175.5 235.8q131.0 -25 196.5 0t196.5 0" stroke="#ffc25f" stroke-width="7" fill="none" stroke-linecap="round"/><path d="M166.0 241.0q103.3 -25 154.9 0t154.9 0" stroke="#734322" stroke-width="13" fill="none" opacity=".75"/><path d="M166.0 238.0q103.3 -25 154.9 0t154.9 0" stroke="#ffc25f" stroke-width="7" fill="none" stroke-linecap="round"/><path d="M157.1 255.9q111.4 -25 167.1 0t167.1 0" stroke="#734322" stroke-width="13" fill="none" opacity=".75"/><path d="M157.1 252.9q111.4 -25 167.1 0t167.1 0" stroke="#ffe09b" stroke-width="7" fill="none" stroke-linecap="round"/><path d="M196.4 269.9q121.1 -25 181.6 0t181.6 0" stroke="#734322" stroke-width="13" fill="none" opacity=".75"/><path d="M196.4 266.9q121.1 -25 181.6 0t181.6 0" stroke="#ffc25f" stroke-width="7" fill="none" stroke-linecap="round"/><path d="M206.2 270.5q124.2 -25 186.3 0t186.3 0" stroke="#734322" stroke-width="13" fill="none" opacity=".75"/><path d="M206.2 267.5q124.2 -25 186.3 0t186.3 0" stroke="#ffc25f" stroke-width="7" fill="none" stroke-linecap="round"/><path d="M167.2 262.3q121.5 -25 182.2 0t182.2 0" stroke="#734322" stroke-width="13" fill="none" opacity=".75"/><path d="M167.2 259.3q121.5 -25 182.2 0t182.2 0" stroke="#ffe09b" stroke-width="7" fill="none" stroke-linecap="round"/><path d="M186.4 261.1q126.8 -25 190.3 0t190.3 0" stroke="#734322" stroke-width="13" fill="none" opacity=".75"/><path d="M186.4 258.1q126.8 -25 190.3 0t190.3 0" stroke="#ffc25f" stroke-width="7" fill="none" stroke-linecap="round"/><path d="M184.5 273.8q101.0 -25 151.6 0t151.6 0" stroke="#734322" stroke-width="13" fill="none" opacity=".75"/><path d="M184.5 270.8q101.0 -25 151.6 0t151.6 0" stroke="#ffc25f" stroke-width="7" fill="none" stroke-linecap="round"/><path d="M154.7 289.6q130.3 -25 195.5 0t195.5 0" stroke="#734322" stroke-width="13" fill="none" opacity=".75"/><path d="M154.7 286.6q130.3 -25 195.5 0t195.5 0" stroke="#ffe09b" stroke-width="7" fill="none" stroke-linecap="round"/><path d="M187.6 293.6q111.2 -25 166.8 0t166.8 0" stroke="#734322" stroke-width="13" fill="none" opacity=".75"/><path d="M187.6 290.6q111.2 -25 166.8 0t166.8 0" stroke="#ffc25f" stroke-width="7" fill="none" stroke-linecap="round"/><path d="M155.6 286.2q127.3 -25 191.0 0t191.0 0" stroke="#734322" stroke-width="13" fill="none" opacity=".75"/><path d="M155.6 283.2q127.3 -25 191.0 0t191.0 0" stroke="#ffc25f" stroke-width="7" fill="none" stroke-linecap="round"/><path d="M154.8 282.1q124.2 -25 186.3 0t186.3 0" stroke="#734322" stroke-width="13" fill="none" opacity=".75"/><path d="M154.8 279.1q124.2 -25 186.3 0t186.3 0" stroke="#ffe09b" stroke-width="7" fill="none" stroke-linecap="round"/><path d="M200.5 291.9q132.0 -25 198.0 0t198.0 0" stroke="#734322" stroke-width="13" fill="none" opacity=".75"/><path d="M200.5 288.9q132.0 -25 198.0 0t198.0 0" stroke="#ffc25f" stroke-width="7" fill="none" stroke-linecap="round"/><path d="M174.5 308.5q134.9 -25 202.3 0t202.3 0" stroke="#734322" stroke-width="13" fill="none" opacity=".75"/><path d="M174.5 305.5q134.9 -25 202.3 0t202.3 0" stroke="#ffc25f" stroke-width="7" fill="none" stroke-linecap="round"/><path d="M181.1 316.0q113.8 -25 170.6 0t170.6 0" stroke="#734322" stroke-width="13" fill="none" opacity=".75"/><path d="M181.1 313.0q113.8 -25 170.6 0t170.6 0" stroke="#ffe09b" stroke-width="7" fill="none" stroke-linecap="round"/><path d="M172.3 310.2q101.9 -25 152.8 0t152.8 0" stroke="#734322" stroke-width="13" fill="none" opacity=".75"/><path d="M172.3 307.2q101.9 -25 152.8 0t152.8 0" stroke="#ffc25f" stroke-width="7" fill="none" stroke-linecap="round"/><path d="M180.6 303.9q131.4 -25 197.1 0t197.1 0" stroke="#734322" stroke-width="13" fill="none" opacity=".75"/><path d="M180.6 300.9q131.4 -25 197.1 0t197.1 0" stroke="#ffc25f" stroke-width="7" fill="none" stroke-linecap="round"/><path d="M152.3 310.4q112.3 -25 168.4 0t168.4 0" stroke="#734322" stroke-width="13" fill="none" opacity=".75"/><path d="M152.3 307.4q112.3 -25 168.4 0t168.4 0" stroke="#ffe09b" stroke-width="7" fill="none" stroke-linecap="round"/><path d="M195.3 326.9q101.4 -25 152.1 0t152.1 0" stroke="#734322" stroke-width="13" fill="none" opacity=".75"/><path d="M195.3 323.9q101.4 -25 152.1 0t152.1 0" stroke="#ffc25f" stroke-width="7" fill="none" stroke-linecap="round"/><path d="M220.2 337.6q134.7 -25 202.1 0t202.1 0" stroke="#734322" stroke-width="13" fill="none" opacity=".75"/><path d="M220.2 334.6q134.7 -25 202.1 0t202.1 0" stroke="#ffc25f" stroke-width="7" fill="none" stroke-linecap="round"/><path d="M187.1 334.3q110.9 -25 166.3 0t166.3 0" stroke="#734322" stroke-width="13" fill="none" opacity=".75"/><path d="M187.1 331.3q110.9 -25 166.3 0t166.3 0" stroke="#ffe09b" stroke-width="7" fill="none" stroke-linecap="round"/><path d="M159.7 326.5q130.0 -25 195.0 0t195.0 0" stroke="#734322" stroke-width="13" fill="none" opacity=".75"/><path d="M159.7 323.5q130.0 -25 195.0 0t195.0 0" stroke="#ffc25f" stroke-width="7" fill="none" stroke-linecap="round"/><path d="M213.3 329.6q104.9 -25 157.3 0t157.3 0" stroke="#734322" stroke-width="13" fill="none" opacity=".75"/><path d="M213.3 326.6q104.9 -25 157.3 0t157.3 0" stroke="#ffc25f" stroke-width="7" fill="none" stroke-linecap="round"/><path d="M175.1 344.9q122.5 -25 183.8 0t183.8 0" stroke="#734322" stroke-width="13" fill="none" opacity=".75"/><path d="M175.1 341.9q122.5 -25 183.8 0t183.8 0" stroke="#ffe09b" stroke-width="7" fill="none" stroke-linecap="round"/><path d="M188.9 358.3q133.5 -25 200.3 0t200.3 0" stroke="#734322" stroke-width="13" fill="none" opacity=".75"/><path d="M188.9 355.3q133.5 -25 200.3 0t200.3 0" stroke="#ffc25f" stroke-width="7" fill="none" stroke-linecap="round"/><path d="M157.4 358.1q103.1 -25 154.7 0t154.7 0" stroke="#734322" stroke-width="13" fill="none" opacity=".75"/><path d="M157.4 355.1q103.1 -25 154.7 0t154.7 0" stroke="#ffc25f" stroke-width="7" fill="none" stroke-linecap="round"/><path d="M184.5 349.9q116.1 -25 174.2 0t174.2 0" stroke="#734322" stroke-width="13" fill="none" opacity=".75"/><path d="M184.5 346.9q116.1 -25 174.2 0t174.2 0" stroke="#ffe09b" stroke-width="7" fill="none" stroke-linecap="round"/><path d="M171.1 349.5q118.7 -25 178.0 0t178.0 0" stroke="#734322" stroke-width="13" fill="none" opacity=".75"/><path d="M171.1 346.5q118.7 -25 178.0 0t178.0 0" stroke="#ffc25f" stroke-width="7" fill="none" stroke-linecap="round"/><path d="M217.8 362.8q107.2 -25 160.7 0t160.7 0" stroke="#734322" stroke-width="13" fill="none" opacity=".75"/><path d="M217.8 359.8q107.2 -25 160.7 0t160.7 0" stroke="#ffc25f" stroke-width="7" fill="none" stroke-linecap="round"/><path d="M184.3 378.1q107.3 -25 161.0 0t161.0 0" stroke="#734322" stroke-width="13" fill="none" opacity=".75"/><path d="M184.3 375.1q107.3 -25 161.0 0t161.0 0" stroke="#ffe09b" stroke-width="7" fill="none" stroke-linecap="round"/><path d="M198.3 381.3q112.3 -25 168.4 0t168.4 0" stroke="#734322" stroke-width="13" fill="none" opacity=".75"/><path d="M198.3 378.3q112.3 -25 168.4 0t168.4 0" stroke="#ffc25f" stroke-width="7" fill="none" stroke-linecap="round"/><g transform="translate(389.34992082510144 340.33100838400424) scale(1.124692793583963)"><ellipse rx="32" ry="24" fill="#fff1ce" stroke="#e5d09e" stroke-width="4"/><circle r="14" fill="#f49a22" stroke="#ffe178" stroke-width="4"/><circle cx="-4" cy="-5" r="4" fill="#ffeab0"/></g><g transform="translate(287.40970922634006 259.0396884744987) scale(1.0882929530320689)"><path d="M-17 3Q-15-23 1-22Q17-21 17 3Z" fill="#b78250" stroke="#f2d5a6" stroke-width="4"/><path d="M-6 1V16H6V1" fill="#e5cb99"/></g><g transform="translate(377.4682167414576 216.44439790491015) scale(0.8210898868483492)"><path d="M-17 3Q-15-23 1-22Q17-21 17 3Z" fill="#b78250" stroke="#f2d5a6" stroke-width="4"/><path d="M-6 1V16H6V1" fill="#e5cb99"/></g><g transform="translate(366.8728344067931 214.86050763260573) scale(1.0373504306748509)"><path d="M-17 3Q-15-23 1-22Q17-21 17 3Z" fill="#b78250" stroke="#f2d5a6" stroke-width="4"/><path d="M-6 1V16H6V1" fill="#e5cb99"/></g><g transform="translate(428.39538789354265 228.72650673706084) scale(0.8190632386109792)"><path d="M-17 3Q-15-23 1-22Q17-21 17 3Z" fill="#b78250" stroke="#f2d5a6" stroke-width="4"/><path d="M-6 1V16H6V1" fill="#e5cb99"/></g><g transform="translate(397.07512364163995 229.37934945430607) scale(1.1306931224511936)"><path d="M-17 3Q-15-23 1-22Q17-21 17 3Z" fill="#b78250" stroke="#f2d5a6" stroke-width="4"/><path d="M-6 1V16H6V1" fill="#e5cb99"/></g><g transform="translate(504.9186964845285 285.8209178932011) scale(0.8924504043278285)"><path d="M-21-14L23-10 12 19 -22 12Z" fill="#ffdc70" stroke="#fff3ba" stroke-width="3"/><circle cx="3" cy="-2" r="4" fill="#e7a836"/></g><g transform="translate(282.48944088537246 180.6256225388497) scale(0.7527079609781504)"><path d="M-21-14L23-10 12 19 -22 12Z" fill="#ffdc70" stroke="#fff3ba" stroke-width="3"/><circle cx="3" cy="-2" r="4" fill="#e7a836"/></g><g transform="translate(319.3566311178729 242.04307665675879) scale(1.0621913380897605)"><path d="M-21-14L23-10 12 19 -22 12Z" fill="#ffdc70" stroke="#fff3ba" stroke-width="3"/><circle cx="3" cy="-2" r="4" fill="#e7a836"/></g><g transform="translate(438.41070657316595 324.6079497653991) scale(0.6804780407669023)"><path d="M-21-14L23-10 12 19 -22 12Z" fill="#ffdc70" stroke="#fff3ba" stroke-width="3"/><circle cx="3" cy="-2" r="4" fill="#e7a836"/></g><g transform="translate(500.5769643923268 284.9033895097673) scale(1.1042517103464342)"><path d="M-21-14L23-10 12 19 -22 12Z" fill="#ffdc70" stroke="#fff3ba" stroke-width="3"/><circle cx="3" cy="-2" r="4" fill="#e7a836"/></g><g transform="translate(372.14138801861554 218.96218285523355) scale(1.0216085808444768)"><path d="M-21-14L23-10 12 19 -22 12Z" fill="#ffdc70" stroke="#fff3ba" stroke-width="3"/><circle cx="3" cy="-2" r="4" fill="#e7a836"/></g><g transform="translate(336.4090613843873 315.2332240771502) scale(1.0018778861244209)"><ellipse rx="12" ry="6" fill="#459447" stroke="#b2db77" stroke-width="2"/><path d="M-8 0H8" stroke="#e2f4a8" stroke-width="2"/></g><g transform="translate(350.86980074923486 264.0763541832566) scale(1.2318454340659082)"><ellipse rx="12" ry="6" fill="#459447" stroke="#b2db77" stroke-width="2"/><path d="M-8 0H8" stroke="#e2f4a8" stroke-width="2"/></g><g transform="translate(335.3153446102515 290.78884332068264) scale(1.0145827381848358)"><ellipse rx="12" ry="6" fill="#459447" stroke="#b2db77" stroke-width="2"/><path d="M-8 0H8" stroke="#e2f4a8" stroke-width="2"/></g><g transform="translate(345.81615459825844 263.8716018907726) scale(1.0257212960952893)"><ellipse rx="12" ry="6" fill="#459447" stroke="#b2db77" stroke-width="2"/><path d="M-8 0H8" stroke="#e2f4a8" stroke-width="2"/></g><g transform="translate(203.10507542360574 200.60776018165052) scale(0.8338271937542595)"><ellipse rx="12" ry="6" fill="#459447" stroke="#b2db77" stroke-width="2"/><path d="M-8 0H8" stroke="#e2f4a8" stroke-width="2"/></g><g transform="translate(332.8039812995121 188.81838278472424) scale(0.9031279911380261)"><ellipse rx="12" ry="6" fill="#459447" stroke="#b2db77" stroke-width="2"/><path d="M-8 0H8" stroke="#e2f4a8" stroke-width="2"/></g><g transform="translate(449.7035839864984 334.16414248384535) scale(0.9128932052734309)"><ellipse rx="12" ry="6" fill="#459447" stroke="#b2db77" stroke-width="2"/><path d="M-8 0H8" stroke="#e2f4a8" stroke-width="2"/></g><g transform="translate(363.09005480166525 263.15164502337575) scale(0.8059519397420809)"><ellipse rx="12" ry="6" fill="#459447" stroke="#b2db77" stroke-width="2"/><path d="M-8 0H8" stroke="#e2f4a8" stroke-width="2"/></g><g transform="translate(297.5457066865638 296.1632524114102) scale(0.79594336950453)"><ellipse rx="12" ry="6" fill="#459447" stroke="#b2db77" stroke-width="2"/><path d="M-8 0H8" stroke="#e2f4a8" stroke-width="2"/></g><g transform="translate(270.3380190730095 284.6427104352042) scale(1.0066843185899779)"><ellipse rx="19" ry="10" fill="#549449" stroke="#e8e0aa" stroke-width="2"/><path d="M-14 0L14 0" stroke="#ffffff" opacity=".35" stroke-width="3"/></g><g transform="translate(500.5838239621371 308.78496842551976) scale(0.8088451653462835)"><ellipse rx="19" ry="10" fill="#549449" stroke="#e8e0aa" stroke-width="2"/><path d="M-14 0L14 0" stroke="#ffffff" opacity=".35" stroke-width="3"/></g><g transform="translate(240.72882552072406 292.1060926383361) scale(0.7922922048345209)"><ellipse rx="19" ry="10" fill="#549449" stroke="#e8e0aa" stroke-width="2"/><path d="M-14 0L14 0" stroke="#ffffff" opacity=".35" stroke-width="3"/></g><g transform="translate(371.1320858243853 311.96131829265505) scale(0.8256963631114923)"><ellipse rx="19" ry="10" fill="#549449" stroke="#e8e0aa" stroke-width="2"/><path d="M-14 0L14 0" stroke="#ffffff" opacity=".35" stroke-width="3"/></g><g transform="translate(510.6676005348563 332.8227753294632) scale(1.2322523389803246)"><ellipse rx="19" ry="10" fill="#549449" stroke="#e8e0aa" stroke-width="2"/><path d="M-14 0L14 0" stroke="#ffffff" opacity=".35" stroke-width="3"/></g><g transform="translate(329.448961680755 276.52229389268905) scale(1.0179854070977308)"><ellipse rx="19" ry="10" fill="#549449" stroke="#e8e0aa" stroke-width="2"/><path d="M-14 0L14 0" stroke="#ffffff" opacity=".35" stroke-width="3"/></g><g transform="translate(366.55518010631204 171.84021811094135) scale(0.7531935326848179)"><ellipse rx="19" ry="10" fill="#549449" stroke="#e8e0aa" stroke-width="2"/><path d="M-14 0L14 0" stroke="#ffffff" opacity=".35" stroke-width="3"/></g><g transform="translate(235.2706088097766 279.4771617334336) scale(0.7564422039990314)"><ellipse rx="19" ry="10" fill="#f6a342" stroke="#e8e0aa" stroke-width="2"/><path d="M-14 0L14 0" stroke="#ffffff" opacity=".35" stroke-width="3"/></g><g transform="translate(281.2222159085795 164.87306138128042) scale(0.8530556699819863)"><ellipse rx="19" ry="10" fill="#f6a342" stroke="#e8e0aa" stroke-width="2"/><path d="M-14 0L14 0" stroke="#ffffff" opacity=".35" stroke-width="3"/></g><g transform="translate(438.97877692524344 198.8943501431495) scale(1.1825209480687044)"><ellipse rx="19" ry="10" fill="#f6a342" stroke="#e8e0aa" stroke-width="2"/><path d="M-14 0L14 0" stroke="#ffffff" opacity=".35" stroke-width="3"/></g><g transform="translate(484.05503602232784 285.5755001269281) scale(0.674528242633678)"><ellipse rx="19" ry="10" fill="#f6a342" stroke="#e8e0aa" stroke-width="2"/><path d="M-14 0L14 0" stroke="#ffffff" opacity=".35" stroke-width="3"/></g><g transform="translate(451.0097732739523 213.816882526502) scale(0.9165140052535572)"><ellipse rx="19" ry="10" fill="#f6a342" stroke="#e8e0aa" stroke-width="2"/><path d="M-14 0L14 0" stroke="#ffffff" opacity=".35" stroke-width="3"/></g><g transform="translate(498.4776268703863 244.0110875070095) scale(0.918038859507069)"><ellipse rx="19" ry="10" fill="#f6a342" stroke="#e8e0aa" stroke-width="2"/><path d="M-14 0L14 0" stroke="#ffffff" opacity=".35" stroke-width="3"/></g><g transform="translate(409.0236081937328 310.9769223127514) scale(0.8260651863622479)"><ellipse rx="19" ry="10" fill="#f6a342" stroke="#e8e0aa" stroke-width="2"/><path d="M-14 0L14 0" stroke="#ffffff" opacity=".35" stroke-width="3"/></g><g transform="translate(490.0952121084556 201.32852900400758) scale(0.8977738030580804)"><ellipse rx="19" ry="10" fill="#f6a342" stroke="#e8e0aa" stroke-width="2"/><path d="M-14 0L14 0" stroke="#ffffff" opacity=".35" stroke-width="3"/></g><g transform="translate(399.03061856050044 326.3172194790095) scale(0.882979433585424)"><ellipse rx="19" ry="10" fill="#f6a342" stroke="#e8e0aa" stroke-width="2"/><path d="M-14 0L14 0" stroke="#ffffff" opacity=".35" stroke-width="3"/></g><g transform="translate(467.01848526299 328.49485573451966) scale(1.027329211900942)"><ellipse rx="19" ry="12" fill="#399251" stroke="#1f6740" stroke-width="4"/><ellipse rx="13" ry="9" fill="#d3dfaa"/></g><g transform="translate(381.4770039897412 256.6564259873703) scale(1.1998835978773423)"><ellipse rx="19" ry="12" fill="#399251" stroke="#1f6740" stroke-width="4"/><ellipse rx="13" ry="9" fill="#d3dfaa"/></g><g transform="translate(412.5944478176534 192.39622979518026) scale(0.9392009654641151)"><ellipse rx="19" ry="12" fill="#399251" stroke="#1f6740" stroke-width="4"/><ellipse rx="13" ry="9" fill="#d3dfaa"/></g><g transform="translate(336.98827878572047 318.5626282924786) scale(0.8804833386070096)"><ellipse rx="19" ry="12" fill="#399251" stroke="#1f6740" stroke-width="4"/><ellipse rx="13" ry="9" fill="#d3dfaa"/></g><g transform="translate(415.03802386671305 282.0675936443731) scale(1.172639014837332)"><ellipse rx="19" ry="12" fill="#399251" stroke="#1f6740" stroke-width="4"/><ellipse rx="13" ry="9" fill="#d3dfaa"/></g><g transform="translate(489.5655041541904 340.2403543712571) scale(0.84961629251251)"><ellipse rx="19" ry="12" fill="#399251" stroke="#1f6740" stroke-width="4"/><ellipse rx="13" ry="9" fill="#d3dfaa"/></g><g transform="translate(339.5513799674809 335.64814272429794) scale(0.8027385680098087)"><ellipse rx="19" ry="12" fill="#399251" stroke="#1f6740" stroke-width="4"/><ellipse rx="13" ry="9" fill="#d3dfaa"/></g><g transform="translate(332.46459088940173 236.767654908821) scale(1.0085191009542904)"><ellipse rx="18" ry="13" fill="#db4631" stroke="#ff9971" stroke-width="3"/><ellipse rx="9" ry="7" fill="#f5a45b"/></g><g transform="translate(207.75706419628114 250.51323724538088) scale(1.1499601227091625)"><ellipse rx="18" ry="13" fill="#db4631" stroke="#ff9971" stroke-width="3"/><ellipse rx="9" ry="7" fill="#f5a45b"/></g><g transform="translate(322.63844699505717 226.4200849700719) scale(0.6666966511146165)"><ellipse rx="18" ry="13" fill="#db4631" stroke="#ff9971" stroke-width="3"/><ellipse rx="9" ry="7" fill="#f5a45b"/></g><g transform="translate(297.5496995737776 302.0078920535743) scale(0.7866407394502313)"><ellipse rx="18" ry="13" fill="#db4631" stroke="#ff9971" stroke-width="3"/><ellipse rx="9" ry="7" fill="#f5a45b"/></g><g transform="translate(217.82231471408159 169.12483700178564) scale(1.270277578427922)"><ellipse rx="18" ry="13" fill="#db4631" stroke="#ff9971" stroke-width="3"/><ellipse rx="9" ry="7" fill="#f5a45b"/></g><g transform="translate(345.6090656770393 293.10075820982456) scale(1.2296769191836938)"><ellipse rx="18" ry="13" fill="#db4631" stroke="#ff9971" stroke-width="3"/><ellipse rx="9" ry="7" fill="#f5a45b"/></g><g transform="translate(336.8340012608096 200.76678206771612) scale(0.9361207908694633)"><ellipse rx="19" ry="10" fill="#d93631" stroke="#e8e0aa" stroke-width="2"/><path d="M-14 0L14 0" stroke="#ffffff" opacity=".35" stroke-width="3"/></g><g transform="translate(501.17036717478186 238.06150308437645) scale(1.0528661756403745)"><ellipse rx="19" ry="10" fill="#d93631" stroke="#e8e0aa" stroke-width="2"/><path d="M-14 0L14 0" stroke="#ffffff" opacity=".35" stroke-width="3"/></g><g transform="translate(423.04859532322735 202.57916897162795) scale(0.714451976583805)"><ellipse rx="19" ry="10" fill="#d93631" stroke="#e8e0aa" stroke-width="2"/><path d="M-14 0L14 0" stroke="#ffffff" opacity=".35" stroke-width="3"/></g><g transform="translate(436.761199911125 189.56429765187204) scale(0.9197673402586952)"><ellipse rx="19" ry="10" fill="#d93631" stroke="#e8e0aa" stroke-width="2"/><path d="M-14 0L14 0" stroke="#ffffff" opacity=".35" stroke-width="3"/></g><g transform="translate(368.8501372439787 288.9140264093876) scale(1.0254882869520225)"><ellipse rx="19" ry="10" fill="#d93631" stroke="#e8e0aa" stroke-width="2"/><path d="M-14 0L14 0" stroke="#ffffff" opacity=".35" stroke-width="3"/></g><g transform="translate(311.3734301785007 172.80937562324107) scale(1.034282997539267)"><ellipse rx="19" ry="10" fill="#d93631" stroke="#e8e0aa" stroke-width="2"/><path d="M-14 0L14 0" stroke="#ffffff" opacity=".35" stroke-width="3"/></g><g transform="translate(427.5037627881393 296.92225712910295) scale(0.749923230658751)"><ellipse rx="19" ry="10" fill="#d93631" stroke="#e8e0aa" stroke-width="2"/><path d="M-14 0L14 0" stroke="#ffffff" opacity=".35" stroke-width="3"/></g><g transform="translate(311.7925413371995 291.86082486622036) scale(0.9589564398257062)"><ellipse rx="19" ry="10" fill="#d93631" stroke="#e8e0aa" stroke-width="2"/><path d="M-14 0L14 0" stroke="#ffffff" opacity=".35" stroke-width="3"/></g><circle cx="309.6563705159351" cy="247.58067385852337" r="6.427613081166054" fill="#ffcd49" stroke="#ffedb2" stroke-width="2"/><circle cx="489.2906867573038" cy="232.90820407308638" r="4.881148839532398" fill="#ffcd49" stroke="#ffedb2" stroke-width="2"/><circle cx="291.3173810755834" cy="186.97410340979695" r="3.239343576005194" fill="#ffcd49" stroke="#ffedb2" stroke-width="2"/><circle cx="223.01475029904395" cy="182.13613670878112" r="4.83307095784694" fill="#ffcd49" stroke="#ffedb2" stroke-width="2"/><circle cx="404.6743578193709" cy="201.62157659977674" r="4.4033310888218695" fill="#ffcd49" stroke="#ffedb2" stroke-width="2"/><circle cx="372.7839178079739" cy="311.75197309441864" r="3.6478421338135374" fill="#ffcd49" stroke="#ffedb2" stroke-width="2"/><circle cx="229.223790272139" cy="185.70265218243003" r="5.645006890513469" fill="#ffcd49" stroke="#ffedb2" stroke-width="2"/><circle cx="359.32620804477483" cy="262.56891608797014" r="5.561652842955665" fill="#ffcd49" stroke="#ffedb2" stroke-width="2"/><circle cx="390.7987005515024" cy="236.70232409238815" r="6.41564168803161" fill="#ffcd49" stroke="#ffedb2" stroke-width="2"/><circle cx="480.25927294883877" cy="263.62808907963336" r="3.9479917275486516" fill="#ffcd49" stroke="#ffedb2" stroke-width="2"/><circle cx="250.2207429772243" cy="206.60853121057153" r="5.897518830711488" fill="#ffcd49" stroke="#ffedb2" stroke-width="2"/><circle cx="426.54523162264377" cy="288.3276863824576" r="5.24891095077619" fill="#ffcd49" stroke="#ffedb2" stroke-width="2"/><circle cx="280.4171474305913" cy="221.48857337981462" r="5.217561648681295" fill="#ffcd49" stroke="#ffedb2" stroke-width="2"/><circle cx="465.5040980661288" cy="326.5872798729688" r="5.520492142927833" fill="#ffcd49" stroke="#ffedb2" stroke-width="2"/><circle cx="367.94000646378845" cy="271.006933670491" r="3.401427862804849" fill="#ffcd49" stroke="#ffedb2" stroke-width="2"/><circle cx="467.49407513812184" cy="177.68043386843055" r="4.307388953408227" fill="#5dba53" stroke="#c8e387" stroke-width="2"/><circle cx="248.8331038672477" cy="320.53854361269623" r="5.558336922093295" fill="#5dba53" stroke="#c8e387" stroke-width="2"/><circle cx="415.82518902421" cy="170.46974827628583" r="6.325912435222418" fill="#5dba53" stroke="#c8e387" stroke-width="2"/><circle cx="307.75786138884723" cy="181.5589717226103" r="7.156903687943705" fill="#5dba53" stroke="#c8e387" stroke-width="2"/><circle cx="324.71124951168895" cy="308.22267792280763" r="7.671839588703588" fill="#5dba53" stroke="#c8e387" stroke-width="2"/><circle cx="334.47720050252974" cy="306.8402262413874" r="4.952051933328621" fill="#5dba53" stroke="#c8e387" stroke-width="2"/><circle cx="325.02350579947233" cy="273.1326022101566" r="5.504988917112351" fill="#5dba53" stroke="#c8e387" stroke-width="2"/><circle cx="460.39336863718927" cy="203.03510582167655" r="6.337921529249288" fill="#5dba53" stroke="#c8e387" stroke-width="2"/><circle cx="503.9732186831534" cy="233.73636062350124" r="5.194138765437529" fill="#5dba53" stroke="#c8e387" stroke-width="2"/><circle cx="374.32369806058705" cy="270.0130381444469" r="5.389204996204935" fill="#5dba53" stroke="#c8e387" stroke-width="2"/><circle cx="227.99911172688007" cy="190.22797343414277" r="7.406973113548011" fill="#5dba53" stroke="#c8e387" stroke-width="2"/><circle cx="447.7298539262265" cy="227.62887874711305" r="7.482493596416899" fill="#5dba53" stroke="#c8e387" stroke-width="2"/><circle cx="345.76029118523" cy="217.13564365264028" r="4.514240931356326" fill="#5dba53" stroke="#c8e387" stroke-width="2"/><circle cx="429.7713010702282" cy="336.88624110165983" r="4.346930982205086" fill="#5dba53" stroke="#c8e387" stroke-width="2"/><circle cx="435.42213467508554" cy="278.6745402319357" r="3.953820013962686" fill="#5dba53" stroke="#c8e387" stroke-width="2"/><ellipse cx="443.40830809716135" cy="286.25925077684224" rx="4" ry="2" fill="#faf0d0"/><ellipse cx="415.9874025871977" cy="252.7974944524467" rx="4" ry="2" fill="#faf0d0"/><ellipse cx="433.6379960523918" cy="292.7208406534046" rx="4" ry="2" fill="#faf0d0"/><ellipse cx="306.9485917342827" cy="214.84087826311588" rx="4" ry="2" fill="#faf0d0"/><ellipse cx="264.117082179524" cy="341.0450104121119" rx="4" ry="2" fill="#faf0d0"/><ellipse cx="322.16506656166166" cy="312.11039643362164" rx="4" ry="2" fill="#faf0d0"/><ellipse cx="377.75904056150466" cy="200.22107985429466" rx="4" ry="2" fill="#faf0d0"/><ellipse cx="404.65554864984006" cy="187.7610563263297" rx="4" ry="2" fill="#faf0d0"/><ellipse cx="298.1584823662415" cy="257.67869165726006" rx="4" ry="2" fill="#faf0d0"/><ellipse cx="494.69155193772167" cy="227.84680634364486" rx="4" ry="2" fill="#faf0d0"/><ellipse cx="426.3975523309782" cy="306.6278992649168" rx="4" ry="2" fill="#faf0d0"/><ellipse cx="494.32838858198375" cy="235.54538944363594" rx="4" ry="2" fill="#faf0d0"/><ellipse cx="293.03591899666935" cy="253.80941102840006" rx="4" ry="2" fill="#faf0d0"/><ellipse cx="293.96351856645197" cy="274.69960290566087" rx="4" ry="2" fill="#faf0d0"/><ellipse cx="340.72185869235545" cy="241.71749059669673" rx="4" ry="2" fill="#faf0d0"/><ellipse cx="497.85974306147546" cy="299.2374643459916" rx="4" ry="2" fill="#faf0d0"/><ellipse cx="487.861933269538" cy="244.35801355727017" rx="4" ry="2" fill="#faf0d0"/><g transform="translate(332.3741596825421 174.67642816808075) scale(0.9852083336422219)"><rect x="-22" y="-12" width="44" height="24" rx="9" fill="#9c583c" stroke="#f9b77c" stroke-width="3"/><path d="M-12-3L9 4" stroke="#ffd7a0" stroke-width="4" opacity=".8"/></g><g transform="translate(209.17795705981553 166.03495061490685) scale(0.8950000019022264)"><rect x="-22" y="-12" width="44" height="24" rx="9" fill="#9c583c" stroke="#f9b77c" stroke-width="3"/><path d="M-12-3L9 4" stroke="#ffd7a0" stroke-width="4" opacity=".8"/></g><g transform="translate(252.32214492559433 224.88087271433324) scale(0.7716104856785387)"><rect x="-22" y="-12" width="44" height="24" rx="9" fill="#9c583c" stroke="#f9b77c" stroke-width="3"/><path d="M-12-3L9 4" stroke="#ffd7a0" stroke-width="4" opacity=".8"/></g><g transform="translate(407.6581731270999 237.60739164520055) scale(0.8871182519453578)"><rect x="-22" y="-12" width="44" height="24" rx="9" fill="#9c583c" stroke="#f9b77c" stroke-width="3"/><path d="M-12-3L9 4" stroke="#ffd7a0" stroke-width="4" opacity=".8"/></g><g transform="translate(317.99036760255694 283.182286686264) scale(1.0017635289905593)"><rect x="-22" y="-12" width="44" height="24" rx="9" fill="#9c583c" stroke="#f9b77c" stroke-width="3"/><path d="M-12-3L9 4" stroke="#ffd7a0" stroke-width="4" opacity=".8"/></g><g transform="translate(479.796808982268 259.7353291893378) scale(0.6815371930343099)"><rect x="-22" y="-12" width="44" height="24" rx="9" fill="#9c583c" stroke="#f9b77c" stroke-width="3"/><path d="M-12-3L9 4" stroke="#ffd7a0" stroke-width="4" opacity=".8"/></g><g transform="translate(327.190628670156 324.5102555407211) scale(1.2896796170249583)"><rect x="-22" y="-12" width="44" height="24" rx="9" fill="#9c583c" stroke="#f9b77c" stroke-width="3"/><path d="M-12-3L9 4" stroke="#ffd7a0" stroke-width="4" opacity=".8"/></g><g transform="translate(453.8143963823095 269.2292207721621) scale(1.171775419774931)"><rect x="-22" y="-12" width="44" height="24" rx="9" fill="#d5b39c" stroke="#f9b77c" stroke-width="3"/><path d="M-12-3L9 4" stroke="#ffd7a0" stroke-width="4" opacity=".8"/></g><g transform="translate(467.43652083631605 327.73309718444943) scale(1.1740450492454693)"><rect x="-22" y="-12" width="44" height="24" rx="9" fill="#d5b39c" stroke="#f9b77c" stroke-width="3"/><path d="M-12-3L9 4" stroke="#ffd7a0" stroke-width="4" opacity=".8"/></g><g transform="translate(300.45713963825256 283.0243402402848) scale(1.2290394970891065)"><rect x="-22" y="-12" width="44" height="24" rx="9" fill="#d5b39c" stroke="#f9b77c" stroke-width="3"/><path d="M-12-3L9 4" stroke="#ffd7a0" stroke-width="4" opacity=".8"/></g><g transform="translate(294.04499818664044 309.3694223985076) scale(0.7123364274948836)"><rect x="-22" y="-12" width="44" height="24" rx="9" fill="#d5b39c" stroke="#f9b77c" stroke-width="3"/><path d="M-12-3L9 4" stroke="#ffd7a0" stroke-width="4" opacity=".8"/></g><g transform="translate(448.32219480816275 253.9490397889167) scale(1.235420103368815)"><rect x="-22" y="-12" width="44" height="24" rx="9" fill="#d5b39c" stroke="#f9b77c" stroke-width="3"/><path d="M-12-3L9 4" stroke="#ffd7a0" stroke-width="4" opacity=".8"/></g><g transform="translate(356.3956367513165 309.7435873709619) scale(1.0410041591944172)"><rect x="-22" y="-12" width="44" height="24" rx="9" fill="#d5b39c" stroke="#f9b77c" stroke-width="3"/><path d="M-12-3L9 4" stroke="#ffd7a0" stroke-width="4" opacity=".8"/></g><g transform="translate(445.81941116508096 186.76603305712342) scale(0.7027711609355174)"><rect x="-22" y="-12" width="44" height="24" rx="9" fill="#e88d75" stroke="#f9b77c" stroke-width="3"/><path d="M-12-3L9 4" stroke="#ffd7a0" stroke-width="4" opacity=".8"/></g><g transform="translate(506.88144077081233 236.22586343996227) scale(0.7101003744499758)"><rect x="-22" y="-12" width="44" height="24" rx="9" fill="#e88d75" stroke="#f9b77c" stroke-width="3"/><path d="M-12-3L9 4" stroke="#ffd7a0" stroke-width="4" opacity=".8"/></g><g transform="translate(479.0874761370942 187.8184294477105) scale(1.1692255282984116)"><rect x="-22" y="-12" width="44" height="24" rx="9" fill="#e88d75" stroke="#f9b77c" stroke-width="3"/><path d="M-12-3L9 4" stroke="#ffd7a0" stroke-width="4" opacity=".8"/></g><g transform="translate(471.94947002176195 307.64994143135846) scale(0.6659350957814604)"><rect x="-22" y="-12" width="44" height="24" rx="9" fill="#e88d75" stroke="#f9b77c" stroke-width="3"/><path d="M-12-3L9 4" stroke="#ffd7a0" stroke-width="4" opacity=".8"/></g><g transform="translate(239.3112910380587 320.8236352317035) scale(0.6587498177285306)"><rect x="-22" y="-12" width="44" height="24" rx="9" fill="#e88d75" stroke="#f9b77c" stroke-width="3"/><path d="M-12-3L9 4" stroke="#ffd7a0" stroke-width="4" opacity=".8"/></g><g transform="translate(208.89281392563134 168.3843904044479) scale(1.2337987647717819)"><rect x="-22" y="-12" width="44" height="24" rx="9" fill="#e88d75" stroke="#f9b77c" stroke-width="3"/><path d="M-12-3L9 4" stroke="#ffd7a0" stroke-width="4" opacity=".8"/></g><g transform="translate(289.65523784887046 310.60764776170254) scale(1.082375932552386)"><rect x="-22" y="-12" width="44" height="24" rx="9" fill="#e88d75" stroke="#f9b77c" stroke-width="3"/><path d="M-12-3L9 4" stroke="#ffd7a0" stroke-width="4" opacity=".8"/></g><g transform="translate(494.9446121826768 226.1973193390295) scale(0.697001287653111)"><path d="M-13-15C25-35 31 14 0 18" fill="none" stroke="#ffb384" stroke-width="13"/><path d="M-13-15C25-35 31 14 0 18" fill="none" stroke="#fee5a7" stroke-width="3"/></g><g transform="translate(299.37194713018835 240.838557315059) scale(1.0117749768053181)"><path d="M-13-15C25-35 31 14 0 18" fill="none" stroke="#ffb384" stroke-width="13"/><path d="M-13-15C25-35 31 14 0 18" fill="none" stroke="#fee5a7" stroke-width="3"/></g><g transform="translate(240.8102136142552 239.99517264869064) scale(0.9367110545374453)"><path d="M-13-15C25-35 31 14 0 18" fill="none" stroke="#ffb384" stroke-width="13"/><path d="M-13-15C25-35 31 14 0 18" fill="none" stroke="#fee5a7" stroke-width="3"/></g><g transform="translate(214.7195212263614 184.31652516219765) scale(0.7614981234981678)"><path d="M-13-15C25-35 31 14 0 18" fill="none" stroke="#ffb384" stroke-width="13"/><path d="M-13-15C25-35 31 14 0 18" fill="none" stroke="#fee5a7" stroke-width="3"/></g><g transform="translate(353.92198956012726 328.2044589994475) scale(1.0074599701771514)"><path d="M-13-15C25-35 31 14 0 18" fill="none" stroke="#ffb384" stroke-width="13"/><path d="M-13-15C25-35 31 14 0 18" fill="none" stroke="#fee5a7" stroke-width="3"/></g><g transform="translate(253.97899888269603 306.241410841234) scale(1.0003033050545491)"><path d="M-13-15C25-35 31 14 0 18" fill="none" stroke="#ffb384" stroke-width="13"/><path d="M-13-15C25-35 31 14 0 18" fill="none" stroke="#fee5a7" stroke-width="3"/></g><g transform="translate(494.9543660990894 294.3453857963905) scale(1.1022901057358832)"><path d="M-13-15C25-35 31 14 0 18" fill="none" stroke="#ffb384" stroke-width="13"/><path d="M-13-15C25-35 31 14 0 18" fill="none" stroke="#fee5a7" stroke-width="3"/></g><ellipse cx="295.1928741680458" cy="204.7119248714298" rx="7.514962408486754" ry="5.636221806365066" fill="#f1d3a0" stroke="#d8bd88" stroke-width="2"/><ellipse cx="235.77487316261977" cy="316.28711403906345" rx="5.15053987249732" ry="3.86290490437299" fill="#f1d3a0" stroke="#d8bd88" stroke-width="2"/><ellipse cx="256.4013437638059" cy="245.64135166443884" rx="5.528822060655803" ry="4.146616545491852" fill="#f1d3a0" stroke="#d8bd88" stroke-width="2"/><ellipse cx="295.6966073131189" cy="277.8587428815663" rx="8.088066558428109" ry="6.066049918821081" fill="#f1d3a0" stroke="#d8bd88" stroke-width="2"/><ellipse cx="248.4997058780864" cy="290.1846715491265" rx="6.1357210064120595" ry="4.601790754809045" fill="#f1d3a0" stroke="#d8bd88" stroke-width="2"/><g transform="translate(362.1725906319916 312.1121998419985) scale(0.7657514630444349)"><path d="M-15-9A21 21 0 0 1 19 9" fill="none" stroke="#ec6950" stroke-width="10"/><path d="M-13-6A16 16 0 0 1 14 7" fill="none" stroke="#ffe0a0" stroke-width="6"/></g><g transform="translate(275.6178839523345 213.49045261833817) scale(0.9974682201608085)"><path d="M-15-9A21 21 0 0 1 19 9" fill="none" stroke="#ec6950" stroke-width="10"/><path d="M-13-6A16 16 0 0 1 14 7" fill="none" stroke="#ffe0a0" stroke-width="6"/></g><g transform="translate(304.06233736872673 340.9845211086795) scale(1.0326073519745842)"><path d="M-15-9A21 21 0 0 1 19 9" fill="none" stroke="#ec6950" stroke-width="10"/><path d="M-13-6A16 16 0 0 1 14 7" fill="none" stroke="#ffe0a0" stroke-width="6"/></g><g transform="translate(206.37249167077243 212.01657893229276) scale(0.745989677051548)"><path d="M-15-9A21 21 0 0 1 19 9" fill="none" stroke="#ec6950" stroke-width="10"/><path d="M-13-6A16 16 0 0 1 14 7" fill="none" stroke="#ffe0a0" stroke-width="6"/></g><g transform="translate(480.32491705939174 223.9045488005504) scale(0.9106384101416916)"><path d="M-15-9A21 21 0 0 1 19 9" fill="none" stroke="#ec6950" stroke-width="10"/><path d="M-13-6A16 16 0 0 1 14 7" fill="none" stroke="#ffe0a0" stroke-width="6"/></g><g transform="translate(275.0038495603949 318.53056717757136) scale(0.7430852815019898)"><path d="M-15-9A21 21 0 0 1 19 9" fill="none" stroke="#ec6950" stroke-width="10"/><path d="M-13-6A16 16 0 0 1 14 7" fill="none" stroke="#ffe0a0" stroke-width="6"/></g><path d="M450.45702322013676 252.94663278851658L471.45702322013676 259.9466327885166" stroke="#e2492c" stroke-width="4"/><path d="M291.07397140562534 306.3077754108235L312.07397140562534 313.3077754108235" stroke="#e2492c" stroke-width="4"/><path d="M213.69504344277084 256.142817591317L234.69504344277084 263.142817591317" stroke="#e2492c" stroke-width="4"/><path d="M377.9895631335676 217.0602170145139L398.9895631335676 224.0602170145139" stroke="#e2492c" stroke-width="4"/><path d="M403.04993758536875 239.722208105959L424.04993758536875 246.722208105959" stroke="#e2492c" stroke-width="4"/><path d="M281.42766032367945 163.92909921240062L302.42766032367945 170.92909921240062" stroke="#e2492c" stroke-width="4"/><path d="M203.1631498541683 331.23268355149776L224.1631498541683 338.23268355149776" stroke="#e2492c" stroke-width="4"/></g><ellipse cx="360" cy="276" rx="240" ry="154" fill="none" stroke="#fbe0ae" stroke-width="5" opacity=".66"/><path d="M145 335Q356 465 574 335" fill="none" stroke="#f9c271" stroke-opacity=".38" stroke-width="6"/></svg>