<svg xmlns="http://www.w3.org/2000/svg" viewBox="0 0 720 540" width="720" height="540" role="img" aria-label="Кукурузный десант"><defs><radialGradient id="bg"><stop stop-color="#49301e"/><stop offset="1" stop-color="#170f0d"/></radialGradient><linearGradient id="plate"><stop stop-color="#fbd698"/><stop offset=".55" stop-color="#7f4228"/><stop offset="1" stop-color="#442322"/></linearGradient><clipPath id="food"><ellipse cx="360" cy="276" rx="228" ry="143"/></clipPath></defs><rect width="720" height="540" fill="url(#bg)"/><ellipse cx="360" cy="464" rx="270" ry="40" fill="#0c0706" opacity=".6"/><ellipse cx="360" cy="275" rx="267" ry="179" fill="url(#plate)" stroke="#c88e56" stroke-width="8"/><ellipse cx="360" cy="276" rx="241" ry="155" fill="#e3bc81" stroke="#f3d298" stroke-width="10"/><g clip-path="url(#food)"><path d="M193.1 167.0q113.3 -25 170.0 0t170.0 0" stroke="#734322" stroke-width="13" fill="none" opacity=".75"/><path d="M193.1 164.0q113.3 -25 170.0 0t170.0 0" stroke="#ffe09b" stroke-width="7" fill="none" stroke-linecap="round"/><path d="M172.8 181.5q117.8 -25 176.7 0t176.7 0" stroke="#734322" stroke-width="13" fill="none" opacity=".75"/><path d="M172.8 178.5q117.8 -25 176.7 0t176.7 0" stroke="#ffc25f" stroke-width="7" fill="none" stroke-linecap="round"/><path d="M165.9 182.8q132.9 -25 199.4 0t199.4 0" stroke="#734322" stroke-width="13" fill="none" opacity=".75"/><path d="M165.9 179.8q132.9 -25 199.4 0t199.4 0" stroke="#ffc25f" stroke-width="7" fill="none" stroke-linecap="round"/><path d="M167.3 174.7q109.1 -25 163.6 0t163.6 0" stroke="#734322" stroke-width="13" fill="none" opacity=".75"/><path d="M167.3 171.7q109.1 -25 163.6 0t163.6 0" stroke="#ffe09b" stroke-width="7" fill="none" stroke-linecap="round"/><path d="M165.2 172.8q132.5 -25 198.8 0t198.8 0" stroke="#734322" stroke-width="13" fill="none" opacity=".75"/><path d="M165.2 169.8q132.5 -25 198.8 0t198.8 0" stroke="#ffc25f" stroke-width="7" fill="none" stroke-linecap="round"/><path d="M209.0 184.9q131.9 -25 197.9 0t197.9 0" stroke="#734322" stroke-width="13" fill="none" opacity=".75"/><path d="M209.0 181.9q131.9 -25 197.9 0t197.9 0" stroke="#ffc25f" stroke-width="7" fill="none" stroke-linecap="round"/><path d="M170.7 200.9q101.3 -25 151.9 0t151.9 0" stroke="#734322" stroke-width="13" fill="none" opacity=".75"/><path d="M170.7 197.9q101.3 -25 151.9 0t151.9 0" stroke="#ffe09b" stroke-width="7" fill="none" stroke-linecap="round"/><path d="M193.1 205.8q117.4 -25 176.1 0t176.1 0" stroke="#734322" stroke-width="13" fill="none" opacity=".75"/><path d="M193.1 202.8q117.4 -25 176.1 0t176.1 0" stroke="#ffc25f" stroke-width="7" fill="none" stroke-linecap="round"/><path d="M157.2 198.7q104.5 -25 156.7 0t156.7 0" stroke="#734322" stroke-width="13" fill="none" opacity=".75"/><path d="M157.2 195.7q104.5 -25 156.7 0t156.7 0" stroke="#ffc25f" stroke-width="7" fill="none" stroke-linecap="round"/><path d="M200.5 194.0q124.0 -25 186.0 0t186.0 0" stroke="#734322" stroke-width="13" fill="none" opacity=".75"/><path d="M200.5 191.0q124.0 -25 186.0 0t186.0 0" stroke="#ffe09b" stroke-width="7" fill="none" stroke-linecap="round"/><path d="M170.1 203.1q109.3 -25 163.9 0t163.9 0" stroke="#734322" stroke-width="13" fill="none" opacity=".75"/><path d="M170.1 200.1q109.3 -25 163.9 0t163.9 0" stroke="#ffc25f" stroke-width="7" fill="none" stroke-linecap="round"/><path d="M181.3 219.7q114.1 -25 171.2 0t171.2 0" stroke="#734322" stroke-width="13" fill="none" opacity=".75"/><path d="M181.3 216.7q114.1 -25 171.2 0t171.2 0" stroke="#ffc25f" stroke-width="7" fill="none" stroke-linecap="round"/><path d="M168.8 228.0q109.3 -25 164.0 0t164.0 0" stroke="#734322" stroke-width="13" fill="none" opacity=".75"/><path d="M168.8 225.0q109.3 -25 164.0 0t164.0 0" stroke="#ffe09b" stroke-width="7" fill="none" stroke-linecap="round"/><path d="M154.2 222.8q119.2 -25 178.8 0t178.8 0" stroke="#734322" stroke-width="13" fill="none" opacity=".75"/><path d="M154.2 219.8q119.2 -25 178.8 0t178.8 0" stroke="#ffc25f" stroke-width="7" fill="none" stroke-linecap="round"/><path d="M161.7 216.0q133.4 -25 200.2 0t200.2 0" stroke="#734322" stroke-width="13" fill="none" opacity=".75"/><path d="M161.7 213.0q133.4 -25 200.2 0t200.2 0" stroke="#ffc25f" stroke-width="7" fill="none" stroke-linecap="round"/><path d="M163.8 221.7q126.1 -25 189.2 0t189.2 0" stroke="#734322" stroke-width="13" fill="none" opacity=".75"/><path d="M163.8 218.7q126.1 -25 189.2 0t189.2 0" stroke="#ffe09b" stroke-width="7" fill="none" stroke-linecap="round"/><path d="M198.2 238.0q101.0 -25 151.5 0t151.5 0" stroke="#734322" stroke-width="13" fill="none" opacity=".75"/><path d="M198.2 235.0q101.0 -25 151.5 0t151.5 0" stroke="#ffc25f" stroke-width="7" fill="none" stroke-linecap="round"/><path d="M163.1 249.4q129.6 -25 194.4 0t194.4 0" stroke="#734322" stroke-width="13" fill="none" opacity=".75"/><path d="M163.1 246.4q129.6 -25 194.4 0t194.4 0" stroke="#ffc25f" stroke-width="7" fill="none" stroke-linecap="round"/><path d="M217.3 246.8q116.7 -25 175.1 0t175.1 0" stroke="#734322" stroke-width="13" fill="none" opacity=".75"/><path d="M217.3 243.8q116.7 -25 175.1 0t175.1 0" stroke="#ffe09b" stroke-width="7" fill="none" stroke-linecap="round"/><path d="M214.3 238.8q104.0 -25 156.0 0t156.0 0" stroke="#734322" stroke-width="13" fill="none" opacity=".75"/><path d="M214.3 235.8q104.0 -25 156.0 0t156.0 0" stroke="#ffc25f" stroke-width="7" fill="none" stroke-linecap="round"/><path d="M192.9 241.0q123.0 -25 184.5 0t184.5 0" stroke="#734322" stroke-width="13" fill="none" opacity=".75"/><path d="M192.9 238.0q123.0 -25 184.5 0t184.5 0" stroke="#ffc25f" stroke-width="7" fill="none" stroke-linecap="round"/><path d="M162.1 255.9q100.1 -25 150.2 0t150.2 0" stroke="#734322" stroke-width="13" fill="none" opacity=".75"/><path d="M162.1 252.9q100.1 -25 150.2 0t150.2 0" stroke="#ffe09b" stroke-width="7" fill="none" stroke-linecap="round"/><path d="M190.5 269.9q107.7 -25 161.5 0t161.5 0" stroke="#734322" stroke-width="13" fill="none" opacity=".75"/><path d="M190.5 266.9q107.7 -25 161.5 0t161.5 0" stroke="#ffc25f" stroke-width="7" fill="none" stroke-linecap="round"/><path d="M188.6 270.5q130.8 -25 196.2 0t196.2 0" stroke="#734322" stroke-width="13" fill="none" opacity=".75"/><path d="M188.6 267.5q130.8 -25 196.2 0t196.2 0" stroke="#ffc25f" stroke-width="7" fill="none" stroke-linecap="round"/><path d="M180.0 262.3q132.6 -25 198.8 0t198.8 0" stroke="#734322" stroke-width="13" fill="none" opacity=".75"/><path d="M180.0 259.3q132.6 -25 198.8 0t198.8 0" stroke="#ffe09b" stroke-width="7" fill="none" stroke-linecap="round"/><path d="M176.9 261.1q104.1 -25 156.2 0t156.2 0" stroke="#734322" stroke-width="13" fill="none" opacity=".75"/><path d="M176.9 258.1q104.1 -25 156.2 0t156.2 0" stroke="#ffc25f" stroke-width="7" fill="none" stroke-linecap="round"/><path d="M164.8 273.8q117.5 -25 176.2 0t176.2 0" stroke="#734322" stroke-width="13" fill="none" opacity=".75"/><path d="M164.8 270.8q117.5 -25 176.2 0t176.2 0" stroke="#ffc25f" stroke-width="7" fill="none" stroke-linecap="round"/><path d="M168.9 289.6q110.1 -25 165.2 0t165.2 0" stroke="#734322" stroke-width="13" fill="none" opacity=".75"/><path d="M168.9 286.6q110.1 -25 165.2 0t165.2 0" stroke="#ffe09b" stroke-width="7" fill="none" stroke-linecap="round"/><path d="M156.3 293.6q128.8 -25 193.2 0t193.2 0" stroke="#734322" stroke-width="13" fill="none" opacity=".75"/><path d="M156.3 290.6q128.8 -25 193.2 0t193.2 0" stroke="#ffc25f" stroke-width="7" fill="none" stroke-linecap="round"/><path d="M158.5 286.2q128.9 -25 193.4 0t193.4 0" stroke="#734322" stroke-width="13" fill="none" opacity=".75"/><path d="M158.5 283.2q128.9 -25 193.4 0t193.4 0" stroke="#ffc25f" stroke-width="7" fill="none" stroke-linecap="round"/><path d="M170.0 282.1q135.3 -25 202.9 0t202.9 0" stroke="#734322" stroke-width="13" fill="none" opacity=".75"/><path d="M170.0 279.1q135.3 -25 202.9 0t202.9 0" stroke="#ffe09b" stroke-width="7" fill="none" stroke-linecap="round"/><path d="M211.9 291.9q107.0 -25 160.6 0t160.6 0" stroke="#734322" stroke-width="13" fill="none" opacity=".75"/><path d="M211.9 288.9q107.0 -25 160.6 0t160.6 0" stroke="#ffc25f" stroke-width="7" fill="none" stroke-linecap="round"/><path d="M156.5 308.5q110.0 -25 165.0 0t165.0 0" stroke="#734322" stroke-width="13" fill="none" opacity=".75"/><path d="M156.5 305.5q110.0 -25 165.0 0t165.0 0" stroke="#ffc25f" stroke-width="7" fill="none" stroke-linecap="round"/><path d="M170.6 316.0q111.3 -25 167.0 0t167.0 0" stroke="#734322" stroke-width="13" fill="none" opacity=".75"/><path d="M170.6 313.0q111.3 -25 167.0 0t167.0 0" stroke="#ffe09b" stroke-width="7" fill="none" stroke-linecap="round"/><path d="M218.5 310.2q118.1 -25 177.2 0t177.2 0" stroke="#734322" stroke-width="13" fill="none" opacity=".75"/><path d="M218.5 307.2q118.1 -25 177.2 0t177.2 0" stroke="#ffc25f" stroke-width="7" fill="none" stroke-linecap="round"/><path d="M172.3 303.9q132.9 -25 199.4 0t199.4 0" stroke="#734322" stroke-width="13" fill="none" opacity=".75"/><path d="M172.3 300.9q132.9 -25 199.4 0t199.4 0" stroke="#ffc25f" stroke-width="7" fill="none" stroke-linecap="round"/><path d="M152.5 310.4q115.0 -25 172.6 0t172.6 0" stroke="#734322" stroke-width="13" fill="none" opacity=".75"/><path d="M152.5 307.4q115.0 -25 172.6 0t172.6 0" stroke="#ffe09b" stroke-width="7" fill="none" stroke-linecap="round"/><path d="M163.2 326.9q112.4 -25 168.6 0t168.6 0" stroke="#734322" stroke-width="13" fill="none" opacity=".75"/><path d="M163.2 323.9q112.4 -25 168.6 0t168.6 0" stroke="#ffc25f" stroke-width="7" fill="none" stroke-linecap="round"/><path d="M171.2 337.6q102.6 -25 153.9 0t153.9 0" stroke="#734322" stroke-width="13" fill="none" opacity=".75"/><path d="M171.2 334.6q102.6 -25 153.9 0t153.9 0" stroke="#ffc25f" stroke-width="7" fill="none" stroke-linecap="round"/><path d="M159.7 334.3q105.9 -25 158.8 0t158.8 0" stroke="#734322" stroke-width="13" fill="none" opacity=".75"/><path d="M159.7 331.3q105.9 -25 158.8 0t158.8 0" stroke="#ffe09b" stroke-width="7" fill="none" stroke-linecap="round"/><path d="M200.5 326.5q129.8 -25 194.7 0t194.7 0" stroke="#734322" stroke-width="13" fill="none" opacity=".75"/><path d="M200.5 323.5q129.8 -25 194.7 0t194.7 0" stroke="#ffc25f" stroke-width="7" fill="none" stroke-linecap="round"/><path d="M168.9 329.6q119.3 -25 178.9 0t178.9 0" stroke="#734322" stroke-width="13" fill="none" opacity=".75"/><path d="M168.9 326.6q119.3 -25 178.9 0t178.9 0" stroke="#ffc25f" stroke-width="7" fill="none" stroke-linecap="round"/><path d="M201.9 344.9q107.7 -25 161.5 0t161.5 0" stroke="#734322" stroke-width="13" fill="none" opacity=".75"/><path d="M201.9 341.9q107.7 -25 161.5 0t161.5 0" stroke="#ffe09b" stroke-width="7" fill="none" stroke-linecap="round"/><path d="M160.5 358.3q135.0 -25 202.5 0t202.5 0" stroke="#734322" stroke-width="13" fill="none" opacity=".75"/><path d="M160.5 355.3q135.0 -25 202.5 0t202.5 0" stroke="#ffc25f" stroke-width="7" fill="none" stroke-linecap="round"/><path d="M208.7 358.1q115.1 -25 172.7 0t172.7 0" stroke="#734322" stroke-width="13" fill="none" opacity=".75"/><path d="M208.7 355.1q115.1 -25 172.7 0t172.7 0" stroke="#ffc25f" stroke-width="7" fill="none" stroke-linecap="round"/><path d="M154.6 349.9q133.1 -25 199.7 0t199.7 0" stroke="#734322" stroke-width="13" fill="none" opacity=".75"/><path d="M154.6 346.9q133.1 -25 199.7 0t199.7 0" stroke="#ffe09b" stroke-width="7" fill="none" stroke-linecap="round"/><path d="M182.5 349.5q122.5 -25 183.7 0t183.7 0" stroke="#734322" stroke-width="13" fill="none" opacity=".75"/><path d="M182.5 346.5q122.5 -25 183.7 0t183.7 0" stroke="#ffc25f" stroke-width="7" fill="none" stroke-linecap="round"/><path d="M153.8 362.8q100.4 -25 150.6 0t150.6 0" stroke="#734322" stroke-width="13" fill="none" opacity=".75"/><path d="M153.8 359.8q100.4 -25 150.6 0t150.6 0" stroke="#ffc25f" stroke-width="7" fill="none" stroke-linecap="round"/><path d="M163.6 378.1q119.3 -25 178.9 0t178.9 0" stroke="#734322" stroke-width="13" fill="none" opacity=".75"/><path d="M163.6 375.1q119.3 -25 178.9 0t178.9 0" stroke="#ffe09b" stroke-width="7" fill="none" stroke-linecap="round"/><path d="M157.2 381.3q103.4 -25 155.1 0t155.1 0" stroke="#734322" stroke-width="13" fill="none" opacity=".75"/><path d="M157.2 378.3q103.4 -25 155.1 0t155.1 0" stroke="#ffc25f" stroke-width="7" fill="none" stroke-linecap="round"/><g transform="translate(514.9499879637733 226.26682991720736) scale(0.7034117419482209)"><ellipse rx="32" ry="24" fill="#fff1ce" stroke="#e5d09e" stroke-width="4"/><circle r="14" fill="#f49a22" stroke="#ffe178" stroke-width="4"/><circle cx="-4" cy="-5" r="4" fill="#ffeab0"/></g><g transform="translate(363.99158788844943 229.1802219217643) scale(0.826119872587733)"><path d="M-17 3Q-15-23 1-22Q17-21 17 3Z" fill="#b78250" stroke="#f2d5a6" stroke-width="4"/><path d="M-6 1V16H6V1" fill="#e5cb99"/></g><g transform="translate(292.21196063794196 220.03830049280077) scale(0.924363278571982)"><path d="M-17 3Q-15-23 1-22Q17-21 17 3Z" fill="#b78250" stroke="#f2d5a6" stroke-width="4"/><path d="M-6 1V16H6V1" fill="#e5cb99"/></g><g transform="translate(403.2218029126525 325.82379498612136) scale(1.2297092105820775)"><path d="M-17 3Q-15-23 1-22Q17-21 17 3Z" fill="#b78250" stroke="#f2d5a6" stroke-width="4"/><path d="M-6 1V16H6V1" fill="#e5cb99"/></g><g transform="translate(298.277315383777 248.86581948120147) scale(0.7171883149049245)"><path d="M-17 3Q-15-23 1-22Q17-21 17 3Z" fill="#b78250" stroke="#f2d5a6" stroke-width="4"/><path d="M-6 1V16H6V1" fill="#e5cb99"/></g><g transform="translate(238.27711949124932 234.0169532140717) scale(1.0733113017724827)"><path d="M-17 3Q-15-23 1-22Q17-21 17 3Z" fill="#b78250" stroke="#f2d5a6" stroke-width="4"/><path d="M-6 1V16H6V1" fill="#e5cb99"/></g><g transform="translate(249.65621479507536 270.82046012952924) scale(0.9071739913639613)"><path d="M-21-14L23-10 12 19 -22 12Z" fill="#ffdc70" stroke="#fff3ba" stroke-width="3"/><circle cx="3" cy="-2" r="4" fill="#e7a836"/></g><g transform="translate(393.16128536779433 214.76701047830284) scale(0.9314192799478769)"><path d="M-21-14L23-10 12 19 -22 12Z" fill="#ffdc70" stroke="#fff3ba" stroke-width="3"/><circle cx="3" cy="-2" r="4" fill="#e7a836"/></g><g transform="translate(238.17959864716977 289.9063884243369) scale(1.2703994221962058)"><path d="M-21-14L23-10 12 19 -22 12Z" fill="#ffdc70" stroke="#fff3ba" stroke-width="3"/><circle cx="3" cy="-2" r="4" fill="#e7a836"/></g><g transform="translate(226.02346902433783 250.22638848610222) scale(1.2416753216506913)"><path d="M-21-14L23-10 12 19 -22 12Z" fill="#ffdc70" stroke="#fff3ba" stroke-width="3"/><circle cx="3" cy="-2" r="4" fill="#e7a836"/></g><g transform="translate(450.91506864037365 239.88828330859542) scale(0.658214799335692)"><path d="M-21-14L23-10 12 19 -22 12Z" fill="#ffdc70" stroke="#fff3ba" stroke-width="3"/><circle cx="3" cy="-2" r="4" fill="#e7a836"/></g><g transform="translate(390.3122559385374 175.62798485718668) scale(1.1823084252048284)"><path d="M-21-14L23-10 12 19 -22 12Z" fill="#ffdc70" stroke="#fff3ba" stroke-width="3"/><circle cx="3" cy="-2" r="4" fill="#e7a836"/></g><g transform="translate(462.0477027418092 235.20469014160335) scale(0.6984252036293037)"><ellipse rx="12" ry="6" fill="#459447" stroke="#b2db77" stroke-width="2"/><path d="M-8 0H8" stroke="#e2f4a8" stroke-width="2"/></g><g transform="translate(429.08144015353173 187.22286907583475) scale(1.2555152491293848)"><ellipse rx="12" ry="6" fill="#459447" stroke="#b2db77" stroke-width="2"/><path d="M-8 0H8" stroke="#e2f4a8" stroke-width="2"/></g><g transform="translate(357.61365393642336 289.26861016638577) scale(0.913501271510031)"><ellipse rx="12" ry="6" fill="#459447" stroke="#b2db77" stroke-width="2"/><path d="M-8 0H8" stroke="#e2f4a8" stroke-width="2"/></g><g transform="translate(300.0116807213053 202.4209488146007) scale(0.8974044168228283)"><ellipse rx="12" ry="6" fill="#459447" stroke="#b2db77" stroke-width="2"/><path d="M-8 0H8" stroke="#e2f4a8" stroke-width="2"/></g><g transform="translate(399.1802402185276 169.66614030860364) scale(0.9303562007122673)"><ellipse rx="12" ry="6" fill="#459447" stroke="#b2db77" stroke-width="2"/><path d="M-8 0H8" stroke="#e2f4a8" stroke-width="2"/></g><g transform="translate(227.78808164130896 262.65337423980236) scale(1.0484347690921276)"><ellipse rx="12" ry="6" fill="#459447" stroke="#b2db77" stroke-width="2"/><path d="M-8 0H8" stroke="#e2f4a8" stroke-width="2"/></g><g transform="translate(395.5477917501703 193.99644839204848) scale(0.7274672561767511)"><ellipse rx="12" ry="6" fill="#459447" stroke="#b2db77" stroke-width="2"/><path d="M-8 0H8" stroke="#e2f4a8" stroke-width="2"/></g><g transform="translate(273.5424168622121 305.2800935097039) scale(0.678031788985245)"><ellipse rx="12" ry="6" fill="#459447" stroke="#b2db77" stroke-width="2"/><path d="M-8 0H8" stroke="#e2f4a8" stroke-width="2"/></g><g transform="translate(290.02614491898566 265.08979660086334) scale(0.8570048471656628)"><ellipse rx="12" ry="6" fill="#459447" stroke="#b2db77" stroke-width="2"/><path d="M-8 0H8" stroke="#e2f4a8" stroke-width="2"/></g><g transform="translate(492.07468289136887 170.91361497621983) scale(0.801640144395642)"><ellipse rx="19" ry="10" fill="#549449" stroke="#e8e0aa" stroke-width="2"/><path d="M-14 0L14 0" stroke="#ffffff" opacity=".35" stroke-width="3"/></g><g transform="translate(495.9862592648715 200.9115858571604) scale(1.0047943383199163)"><ellipse rx="19" ry="10" fill="#549449" stroke="#e8e0aa" stroke-width="2"/><path d="M-14 0L14 0" stroke="#ffffff" opacity=".35" stroke-width="3"/></g><g transform="translate(517.8966416828334 307.59818858560175) scale(0.8894361409917474)"><ellipse rx="19" ry="10" fill="#549449" stroke="#e8e0aa" stroke-width="2"/><path d="M-14 0L14 0" stroke="#ffffff" opacity=".35" stroke-width="3"/></g><g transform="translate(372.89926722086966 239.96928338054568) scale(0.7860284706554376)"><ellipse rx="19" ry="10" fill="#549449" stroke="#e8e0aa" stroke-width="2"/><path d="M-14 0L14 0" stroke="#ffffff" opacity=".35" stroke-width="3"/></g><g transform="translate(401.9775065407157 269.7626251829788) scale(0.6835619245516137)"><ellipse rx="19" ry="10" fill="#549449" stroke="#e8e0aa" stroke-width="2"/><path d="M-14 0L14 0" stroke="#ffffff" opacity=".35" stroke-width="3"/></g><g transform="translate(335.7293266709894 226.70066913682967) scale(1.2559084570244887)"><ellipse rx="19" ry="10" fill="#549449" stroke="#e8e0aa" stroke-width="2"/><path d="M-14 0L14 0" stroke="#ffffff" opacity=".35" stroke-width="3"/></g><g transform="translate(507.0931134559214 233.07938437070698) scale(0.8678728692326695)"><ellipse rx="19" ry="10" fill="#549449" stroke="#e8e0aa" stroke-width="2"/><path d="M-14 0L14 0" stroke="#ffffff" opacity=".35" stroke-width="3"/></g><g transform="translate(465.0596407921985 295.68886217288673) scale(0.8068713574414141)"><ellipse rx="19" ry="10" fill="#f6a342" stroke="#e8e0aa" stroke-width="2"/><path d="M-14 0L14 0" stroke="#ffffff" opacity=".35" stroke-width="3"/></g><g transform="translate(422.8498709378764 242.61918564885855) scale(1.089689352232963)"><ellipse rx="19" ry="10" fill="#f6a342" stroke="#e8e0aa" stroke-width="2"/><path d="M-14 0L14 0" stroke="#ffffff" opacity=".35" stroke-width="3"/></g><g transform="translate(276.5837268764153 314.7081013638526) scale(0.7624697548313998)"><ellipse rx="19" ry="10" fill="#f6a342" stroke="#e8e0aa" stroke-width="2"/><path d="M-14 0L14 0" stroke="#ffffff" opacity=".35" stroke-width="3"/></g><g transform="translate(351.0728277703747 343.5682064257562) scale(1.112104918048717)"><ellipse rx="19" ry="10" fill="#f6a342" stroke="#e8e0aa" stroke-width="2"/><path d="M-14 0L14 0" stroke="#ffffff" opacity=".35" stroke-width="3"/></g><g transform="translate(292.0478286938742 298.80299702845514) scale(0.7321592231490649)"><ellipse rx="19" ry="10" fill="#f6a342" stroke="#e8e0aa" stroke-width="2"/><path d="M-14 0L14 0" stroke="#ffffff" opacity=".35" stroke-width="3"/></g><g transform="translate(274.1902428371832 199.63318833708763) scale(0.8243563796486706)"><ellipse rx="19" ry="10" fill="#f6a342" stroke="#e8e0aa" stroke-width="2"/><path d="M-14 0L14 0" stroke="#ffffff" opacity=".35" stroke-width="3"/></g><g transform="translate(263.9869565824047 262.83071259595454) scale(0.9462788857030682)"><ellipse rx="19" ry="10" fill="#f6a342" stroke="#e8e0aa" stroke-width="2"/><path d="M-14 0L14 0" stroke="#ffffff" opacity=".35" stroke-width="3"/></g><g transform="translate(367.6823397940025 225.0878368653357) scale(1.0056690819887444)"><ellipse rx="19" ry="10" fill="#f6a342" stroke="#e8e0aa" stroke-width="2"/><path d="M-14 0L14 0" stroke="#ffffff" opacity=".35" stroke-width="3"/></g><g transform="translate(367.2864474179223 340.85899804346263) scale(0.9221414971840568)"><ellipse rx="19" ry="10" fill="#f6a342" stroke="#e8e0aa" stroke-width="2"/><path d="M-14 0L14 0" stroke="#ffffff" opacity=".35" stroke-width="3"/></g><g transform="translate(313.3508522063494 179.87318215053529) scale(0.8752879673941061)"><ellipse rx="19" ry="12" fill="#399251" stroke="#1f6740" stroke-width="4"/><ellipse rx="13" ry="9" fill="#d3dfaa"/></g><g transform="translate(291.5532674174756 281.93734029401094) scale(0.9473708567884751)"><ellipse rx="19" ry="12" fill="#399251" stroke="#1f6740" stroke-width="4"/><ellipse rx="13" ry="9" fill="#d3dfaa"/></g><g transform="translate(331.6392171047628 300.9644976174459) scale(1.2188400188088417)"><ellipse rx="19" ry="12" fill="#399251" stroke="#1f6740" stroke-width="4"/><ellipse rx="13" ry="9" fill="#d3dfaa"/></g><g transform="translate(329.96053830720484 226.44364025536925) scale(0.7757519695884548)"><ellipse rx="19" ry="12" fill="#399251" stroke="#1f6740" stroke-width="4"/><ellipse rx="13" ry="9" fill="#d3dfaa"/></g><g transform="translate(242.00613299757242 327.55236537288874) scale(1.2406234050961211)"><ellipse rx="19" ry="12" fill="#399251" stroke="#1f6740" stroke-width="4"/><ellipse rx="13" ry="9" fill="#d3dfaa"/></g><g transform="translate(208.0821972694248 184.51052649039775) scale(0.8168118033767678)"><ellipse rx="19" ry="12" fill="#399251" stroke="#1f6740" stroke-width="4"/><ellipse rx="13" ry="9" fill="#d3dfaa"/></g><g transform="translate(354.0287664420903 228.40098085906357) scale(0.8104598967451603)"><ellipse rx="19" ry="12" fill="#399251" stroke="#1f6740" stroke-width="4"/><ellipse rx="13" ry="9" fill="#d3dfaa"/></g><g transform="translate(281.2790134968236 197.3445897232741) scale(0.7060582397482358)"><ellipse rx="18" ry="13" fill="#db4631" stroke="#ff9971" stroke-width="3"/><ellipse rx="9" ry="7" fill="#f5a45b"/></g><g transform="translate(422.675734850578 195.983970887959) scale(1.0849611145304516)"><ellipse rx="18" ry="13" fill="#db4631" stroke="#ff9971" stroke-width="3"/><ellipse rx="9" ry="7" fill="#f5a45b"/></g><g transform="translate(380.42503757122904 217.69282056577504) scale(0.6926079822913743)"><ellipse rx="18" ry="13" fill="#db4631" stroke="#ff9971" stroke-width="3"/><ellipse rx="9" ry="7" fill="#f5a45b"/></g><g transform="translate(245.2647569468245 282.56895772740245) scale(0.7451677322480827)"><ellipse rx="18" ry="13" fill="#db4631" stroke="#ff9971" stroke-width="3"/><ellipse rx="9" ry="7" fill="#f5a45b"/></g><g transform="translate(266.69826075900346 218.16368587873876) scale(1.0129644222999923)"><ellipse rx="18" ry="13" fill="#db4631" stroke="#ff9971" stroke-width="3"/><ellipse rx="9" ry="7" fill="#f5a45b"/></g><g transform="translate(327.9251972688362 203.6349684149027) scale(0.898473077020608)"><ellipse rx="18" ry="13" fill="#db4631" stroke="#ff9971" stroke-width="3"/><ellipse rx="9" ry="7" fill="#f5a45b"/></g><g transform="translate(227.26634379010648 218.39571883529425) scale(1.201100725561846)"><ellipse rx="19" ry="10" fill="#d93631" stroke="#e8e0aa" stroke-width="2"/><path d="M-14 0L14 0" stroke="#ffffff" opacity=".35" stroke-width="3"/></g><g transform="translate(230.76750462595373 274.0705668050796) scale(0.828660014141351)"><ellipse rx="19" ry="10" fill="#d93631" stroke="#e8e0aa" stroke-width="2"/><path d="M-14 0L14 0" stroke="#ffffff" opacity=".35" stroke-width="3"/></g><g transform="translate(364.7460745712742 273.5796877704561) scale(0.8034828145965003)"><ellipse rx="19" ry="10" fill="#d93631" stroke="#e8e0aa" stroke-width="2"/><path d="M-14 0L14 0" stroke="#ffffff" opacity=".35" stroke-width="3"/></g><g transform="translate(258.6664428310469 312.87072465382516) scale(0.8254104219237343)"><ellipse rx="19" ry="10" fill="#d93631" stroke="#e8e0aa" stroke-width="2"/><path d="M-14 0L14 0" stroke="#ffffff" opacity=".35" stroke-width="3"/></g><g transform="translate(387.11744071077555 240.6689397394657) scale(1.0759967860975304)"><ellipse rx="19" ry="10" fill="#d93631" stroke="#e8e0aa" stroke-width="2"/><path d="M-14 0L14 0" stroke="#ffffff" opacity=".35" stroke-width="3"/></g><g transform="translate(394.0789660671726 191.1084784064442) scale(0.7438231739308685)"><ellipse rx="19" ry="10" fill="#d93631" stroke="#e8e0aa" stroke-width="2"/><path d="M-14 0L14 0" stroke="#ffffff" opacity=".35" stroke-width="3"/></g><g transform="translate(241.52057797368616 209.93937749043107) scale(0.9120314612495712)"><ellipse rx="19" ry="10" fill="#d93631" stroke="#e8e0aa" stroke-width="2"/><path d="M-14 0L14 0" stroke="#ffffff" opacity=".35" stroke-width="3"/></g><g transform="translate(280.6655576946214 310.9729159306735) scale(0.9614806250063703)"><ellipse rx="19" ry="10" fill="#d93631" stroke="#e8e0aa" stroke-width="2"/><path d="M-14 0L14 0" stroke="#ffffff" opacity=".35" stroke-width="3"/></g><circle cx="294.749845857732" cy="268.6812903136015" r="4.702265562245157" fill="#ffcd49" stroke="#ffedb2" stroke-width="2"/><circle cx="495.61926952097565" cy="180.6311349812895" r="6.052217031060718" fill="#ffcd49" stroke="#ffedb2" stroke-width="2"/><circle cx="311.6291181361303" cy="322.6181768961251" r="3.5208472533733586" fill="#ffcd49" stroke="#ffedb2" stroke-width="2"/><circle cx="453.7295635314658" cy="295.20330589823425" r="5.9916422011330726" fill="#ffcd49" stroke="#ffedb2" stroke-width="2"/><circle cx="386.7590440986678" cy="267.94191961735487" r="3.202061939041596" fill="#ffcd49" stroke="#ffedb2" stroke-width="2"/><circle cx="423.6271490091458" cy="296.60869306512177" r="4.116304124169983" fill="#ffcd49" stroke="#ffedb2" stroke-width="2"/><circle cx="425.5111132701859" cy="251.95707723125815" r="6.339504952647258" fill="#ffcd49" stroke="#ffedb2" stroke-width="2"/><circle cx="230.9150447146967" cy="303.78549933992326" r="6.198526088194923" fill="#ffcd49" stroke="#ffedb2" stroke-width="2"/><circle cx="273.5933477682993" cy="175.27364367246628" r="6.354173563641962" fill="#ffcd49" stroke="#ffedb2" stroke-width="2"/><circle cx="420.08590258751065" cy="213.89984811283648" r="5.218242047983221" fill="#ffcd49" stroke="#ffedb2" stroke-width="2"/><circle cx="249.70240191277117" cy="323.00455782189965" r="3.812140183860902" fill="#ffcd49" stroke="#ffedb2" stroke-width="2"/><circle cx="454.97684173006564" cy="298.47493369691074" r="6.1067619792185726" fill="#ffcd49" stroke="#ffedb2" stroke-width="2"/><circle cx="362.64050558488816" cy="264.34211952239275" r="6.20067970593227" fill="#ffcd49" stroke="#ffedb2" stroke-width="2"/><circle cx="217.78287614230067" cy="215.55532796867192" r="6.354737824690528" fill="#ffcd49" stroke="#ffedb2" stroke-width="2"/><circle cx="508.8347513368353" cy="242.0758118443191" r="5.194863913219888" fill="#ffcd49" stroke="#ffedb2" stroke-width="2"/><circle cx="456.9753678627312" cy="335.3356157531962" r="5.175182990273461" fill="#5dba53" stroke="#c8e387" stroke-width="2"/><circle cx="374.5778243262321" cy="199.10803213808686" r="4.027550026341341" fill="#5dba53" stroke="#c8e387" stroke-width="2"/><circle cx="482.33919659256935" cy="257.30705906730145" r="7.068260915447026" fill="#5dba53" stroke="#c8e387" stroke-width="2"/><circle cx="298.5313904415816" cy="309.4082454042509" r="4.360949555863627" fill="#5dba53" stroke="#c8e387" stroke-width="2"/><circle cx="451.5939094237983" cy="200.84368012007326" r="4.520138996662572" fill="#5dba53" stroke="#c8e387" stroke-width="2"/><circle cx="218.05297564901412" cy="169.63334757927805" r="5.5240848617954175" fill="#5dba53" stroke="#c8e387" stroke-width="2"/><circle cx="465.9857555553317" cy="168.76385831367224" r="7.015245112180709" fill="#5dba53" stroke="#c8e387" stroke-width="2"/><circle cx="313.91982737742364" cy="192.06113731581718" r="7.431017690137961" fill="#5dba53" stroke="#c8e387" stroke-width="2"/><circle cx="425.10099578276277" cy="200.22943313326687" r="4.581341981990263" fill="#5dba53" stroke="#c8e387" stroke-width="2"/><circle cx="482.3242778945714" cy="332.18604229483753" r="7.523237436390483" fill="#5dba53" stroke="#c8e387" stroke-width="2"/><circle cx="297.75335367023945" cy="256.0594248501584" r="6.554472960960121" fill="#5dba53" stroke="#c8e387" stroke-width="2"/><circle cx="512.1029923539609" cy="315.4879180537537" r="6.866007237774321" fill="#5dba53" stroke="#c8e387" stroke-width="2"/><circle cx="428.9769354723394" cy="281.4070364749059" r="3.85812139400281" fill="#5dba53" stroke="#c8e387" stroke-width="2"/><circle cx="359.7904355917126" cy="318.59537806455046" r="5.674017621609382" fill="#5dba53" stroke="#c8e387" stroke-width="2"/><circle cx="367.3121188059449" cy="201.1124369604513" r="5.042274451218546" fill="#5dba53" stroke="#c8e387" stroke-width="2"/><ellipse cx="364.1792736733332" cy="342.92261137254536" rx="4" ry="2" fill="#faf0d0"/><ellipse cx="276.0618349602446" cy="304.3741851262748" rx="4" ry="2" fill="#faf0d0"/><ellipse cx="207.2483170973137" cy="283.4003145303577" rx="4" ry="2" fill="#faf0d0"/><ellipse cx="221.37409832607955" cy="342.640713468194" rx="4" ry="2" fill="#faf0d0"/><ellipse cx="335.5589461931959" cy="320.935910070315" rx="4" ry="2" fill="#faf0d0"/><ellipse cx="286.62133487220854" cy="304.14118866994977" rx="4" ry="2" fill="#faf0d0"/><ellipse cx="332.89963504392654" cy="342.6437177937478" rx="4" ry="2" fill="#faf0d0"/><ellipse cx="266.69726617913693" cy="175.15561809390783" rx="4" ry="2" fill="#faf0d0"/><ellipse cx="285.7399948174134" cy="224.07838037796319" rx="4" ry="2" fill="#faf0d0"/><ellipse cx="427.74840618576854" cy="234.86295014247298" rx="4" ry="2" fill="#faf0d0"/><ellipse cx="368.0371702509001" cy="236.5749512668699" rx="4" ry="2" fill="#faf0d0"/><ellipse cx="207.70506704878062" cy="269.56592777371407" rx="4" ry="2" fill="#faf0d0"/><ellipse cx="357.2258298853412" cy="314.9991388116032" rx="4" ry="2" fill="#faf0d0"/><ellipse cx="454.83970875199884" cy="236.232348266989" rx="4" ry="2" fill="#faf0d0"/><ellipse cx="468.82925004977733" cy="179.97020666114986" rx="4" ry="2" fill="#faf0d0"/><ellipse cx="361.29013246577233" cy="251.91522923856974" rx="4" ry="2" fill="#faf0d0"/><ellipse cx="236.12899259570986" cy="193.6190304029733" rx="4" ry="2" fill="#faf0d0"/><g transform="translate(494.35935865715146 259.7339538028464) scale(0.8203924309322611)"><rect x="-22" y="-12" width="44" height="24" rx="9" fill="#9c583c" stroke="#f9b77c" stroke-width="3"/><path d="M-12-3L9 4" stroke="#ffd7a0" stroke-width="4" opacity=".8"/></g><g transform="translate(416.0828337687999 195.60053289029747) scale(1.0045417041727343)"><rect x="-22" y="-12" width="44" height="24" rx="9" fill="#9c583c" stroke="#f9b77c" stroke-width="3"/><path d="M-12-3L9 4" stroke="#ffd7a0" stroke-width="4" opacity=".8"/></g><g transform="translate(446.9025587439537 270.05802725534886) scale(0.9235823026951402)"><rect x="-22" y="-12" width="44" height="24" rx="9" fill="#9c583c" stroke="#f9b77c" stroke-width="3"/><path d="M-12-3L9 4" stroke="#ffd7a0" stroke-width="4" opacity=".8"/></g><g transform="translate(237.65435842983425 164.89025907684118) scale(1.275837810661178)"><rect x="-22" y="-12" width="44" height="24" rx="9" fill="#9c583c" stroke="#f9b77c" stroke-width="3"/><path d="M-12-3L9 4" stroke="#ffd7a0" stroke-width="4" opacity=".8"/></g><g transform="translate(449.5019337646663 300.0806326335296) scale(1.0252349797962235)"><rect x="-22" y="-12" width="44" height="24" rx="9" fill="#9c583c" stroke="#f9b77c" stroke-width="3"/><path d="M-12-3L9 4" stroke="#ffd7a0" stroke-width="4" opacity=".8"/></g><g transform="translate(513.6577403787524 245.39954427722842) scale(1.2481894910079427)"><rect x="-22" y="-12" width="44" height="24" rx="9" fill="#9c583c" stroke="#f9b77c" stroke-width="3"/><path d="M-12-3L9 4" stroke="#ffd7a0" stroke-width="4" opacity=".8"/></g><g transform="translate(270.3442846760154 285.35635539423674) scale(1.0059641781821846)"><rect x="-22" y="-12" width="44" height="24" rx="9" fill="#9c583c" stroke="#f9b77c" stroke-width="3"/><path d="M-12-3L9 4" stroke="#ffd7a0" stroke-width="4" opacity=".8"/></g><g transform="translate(239.49844789598137 293.0654329303652) scale(0.6873748613032512)"><rect x="-22" y="-12" width="44" height="24" rx="9" fill="#d5b39c" stroke="#f9b77c" stroke-width="3"/><path d="M-12-3L9 4" stroke="#ffd7a0" stroke-width="4" opacity=".8"/></g><g transform="translate(486.8224766468629 186.52170192077756) scale(0.7344549766136333)"><rect x="-22" y="-12" width="44" height="24" rx="9" fill="#d5b39c" stroke="#f9b77c" stroke-width="3"/><path d="M-12-3L9 4" stroke="#ffd7a0" stroke-width="4" opacity=".8"/></g><g transform="translate(374.71492162067443 227.51729067973793) scale(0.8133919903752395)"><rect x="-22" y="-12" width="44" height="24" rx="9" fill="#d5b39c" stroke="#f9b77c" stroke-width="3"/><path d="M-12-3L9 4" stroke="#ffd7a0" stroke-width="4" opacity=".8"/></g><g transform="translate(378.8914032159373 326.6467966660857) scale(1.1462235277146102)"><rect x="-22" y="-12" width="44" height="24" rx="9" fill="#d5b39c" stroke="#f9b77c" stroke-width="3"/><path d="M-12-3L9 4" stroke="#ffd7a0" stroke-width="4" opacity=".8"/></g><g transform="translate(485.8958947593346 230.54404100961983) scale(0.8609133437252604)"><rect x="-22" y="-12" width="44" height="24" rx="9" fill="#d5b39c" stroke="#f9b77c" stroke-width="3"/><path d="M-12-3L9 4" stroke="#ffd7a0" stroke-width="4" opacity=".8"/></g><g transform="translate(206.13217849936336 239.76754366979003) scale(1.1769084713282063)"><rect x="-22" y="-12" width="44" height="24" rx="9" fill="#d5b39c" stroke="#f9b77c" stroke-width="3"/><path d="M-12-3L9 4" stroke="#ffd7a0" stroke-width="4" opacity=".8"/></g><g transform="translate(385.12528885062784 307.55659091845155) scale(1.0649099091044627)"><rect x="-22" y="-12" width="44" height="24" rx="9" fill="#e88d75" stroke="#f9b77c" stroke-width="3"/><path d="M-12-3L9 4" stroke="#ffd7a0" stroke-width="4" opacity=".8"/></g><g transform="translate(477.6060196282342 269.0488920044154) scale(1.1598962881462649)"><rect x="-22" y="-12" width="44" height="24" rx="9" fill="#e88d75" stroke="#f9b77c" stroke-width="3"/><path d="M-12-3L9 4" stroke="#ffd7a0" stroke-width="4" opacity=".8"/></g><g transform="translate(288.8225530413911 282.87900684028864) scale(1.0624708438501693)"><rect x="-22" y="-12" width="44" height="24" rx="9" fill="#e88d75" stroke="#f9b77c" stroke-width="3"/><path d="M-12-3L9 4" stroke="#ffd7a0" stroke-width="4" opacity=".8"/></g><g transform="translate(309.70871684793383 199.60627077706158) scale(1.174803885454312)"><rect x="-22" y="-12" width="44" height="24" rx="9" fill="#e88d75" stroke="#f9b77c" stroke-width="3"/><path d="M-12-3L9 4" stroke="#ffd7a0" stroke-width="4" opacity=".8"/></g><g transform="translate(290.4052546611056 256.91204465553164) scale(0.7308800209756009)"><rect x="-22" y="-12" width="44" height="24" rx="9" fill="#e88d75" stroke="#f9b77c" stroke-width="3"/><path d="M-12-3L9 4" stroke="#ffd7a0" stroke-width="4" opacity=".8"/></g><g transform="translate(348.8039162205532 261.54433303140104) scale(0.9603585944836959)"><rect x="-22" y="-12" width="44" height="24" rx="9" fill="#e88d75" stroke="#f9b77c" stroke-width="3"/><path d="M-12-3L9 4" stroke="#ffd7a0" stroke-width="4" opacity=".8"/></g><g transform="translate(488.91277569066733 297.60670171678066) scale(1.2829271563072688)"><rect x="-22" y="-12" width="44" height="24" rx="9" fill="#e88d75" stroke="#f9b77c" stroke-width="3"/><path d="M-12-3L9 4" stroke="#ffd7a0" stroke-width="4" opacity=".8"/></g><g transform="translate(215.75647131353617 205.58834106754512) scale(1.270655843927525)"><path d="M-13-15C25-35 31 14 0 18" fill="none" stroke="#ffb384" stroke-width="13"/><path d="M-13-15C25-35 31 14 0 18" fill="none" stroke="#fee5a7" stroke-width="3"/></g><g transform="translate(405.4823902454227 255.26497943419963) scale(1.012057645872701)"><path d="M-13-15C25-35 31 14 0 18" fill="none" stroke="#ffb384" stroke-width="13"/><path d="M-13-15C25-35 31 14 0 18" fill="none" stroke="#fee5a7" stroke-width="3"/></g><g transform="translate(346.63135008886456 269.15426078345627) scale(0.8464404399134219)"><path d="M-13-15C25-35 31 14 0 18" fill="none" stroke="#ffb384" stroke-width="13"/><path d="M-13-15C25-35 31 14 0 18" fill="none" stroke="#fee5a7" stroke-width="3"/></g><g transform="translate(409.89783543534577 307.0461699375883) scale(0.9666910708858631)"><path d="M-13-15C25-35 31 14 0 18" fill="none" stroke="#ffb384" stroke-width="13"/><path d="M-13-15C25-35 31 14 0 18" fill="none" stroke="#fee5a7" stroke-width="3"/></g><g transform="translate(462.71334087848663 278.10817604046315) scale(0.7982104737171903)"><path d="M-13-15C25-35 31 14 0 18" fill="none" stroke="#ffb384" stroke-width="13"/><path d="M-13-15C25-35 31 14 0 18" fill="none" stroke="#fee5a7" stroke-width="3"/></g><g transform="translate(437.6236216854304 332.31334077287465) scale(1.1822082885750569)"><path d="M-13-15C25-35 31 14 0 18" fill="none" stroke="#ffb384" stroke-width="13"/><path d="M-13-15C25-35 31 14 0 18" fill="none" stroke="#fee5a7" stroke-width="3"/></g><g transform="translate(353.05186976119876 266.5952942436561) scale(0.8949845790024846)"><path d="M-13-15C25-35 31 14 0 18" fill="none" stroke="#ffb384" stroke-width="13"/><path d="M-13-15C25-35 31 14 0 18" fill="none" stroke="#fee5a7" stroke-width="3"/></g><ellipse cx="425.5375702129677" cy="317.0320237483829" rx="9.977575323525816" ry="7.483181492644362" fill="#f1d3a0" stroke="#d8bd88" stroke-width="2"/><ellipse cx="398.30975475441664" cy="301.3525742441416" rx="9.112945268005133" ry="6.834708951003849" fill="#f1d3a0" stroke="#d8bd88" stroke-width="2"/><ellipse cx="230.3275827774778" cy="223.42287632264197" rx="9.569779702257366" ry="7.177334776693025" fill="#f1d3a0" stroke="#d8bd88" stroke-width="2"/><ellipse cx="212.01225062366575" cy="273.4051601178944" rx="10.306453399248422" ry="7.729840049436317" fill="#f1d3a0" stroke="#d8bd88" stroke-width="2"/><ellipse cx="283.87467536050826" cy="306.74793448857963" rx="10.091937437076123" ry="7.568953077807092" fill="#f1d3a0" stroke="#d8bd88" stroke-width="2"/><g transform="translate(262.161695856601 167.07206922676414) scale(0.6481859265454114)"><path d="M-15-9A21 21 0 0 1 19 9" fill="none" stroke="#ec6950" stroke-width="10"/><path d="M-13-6A16 16 0 0 1 14 7" fill="none" stroke="#ffe0a0" stroke-width="6"/></g><g transform="translate(445.1829169113189 236.5521286437288) scale(1.1728271831735038)"><path d="M-15-9A21 21 0 0 1 19 9" fill="none" stroke="#ec6950" stroke-width="10"/><path d="M-13-6A16 16 0 0 1 14 7" fill="none" stroke="#ffe0a0" stroke-width="6"/></g><g transform="translate(508.2091574370861 187.0015193996951) scale(0.7605160586396232)"><path d="M-15-9A21 21 0 0 1 19 9" fill="none" stroke="#ec6950" stroke-width="10"/><path d="M-13-6A16 16 0 0 1 14 7" fill="none" stroke="#ffe0a0" stroke-width="6"/></g><g transform="translate(389.0913332235068 321.2330401139334) scale(1.0859513011970559)"><path d="M-15-9A21 21 0 0 1 19 9" fill="none" stroke="#ec6950" stroke-width="10"/><path d="M-13-6A16 16 0 0 1 14 7" fill="none" stroke="#ffe0a0" stroke-width="6"/></g><g transform="translate(497.9653894715011 207.58023849781603) scale(1.1330692115332932)"><path d="M-15-9A21 21 0 0 1 19 9" fill="none" stroke="#ec6950" stroke-width="10"/><path d="M-13-6A16 16 0 0 1 14 7" fill="none" stroke="#ffe0a0" stroke-width="6"/></g><g transform="translate(340.64993720687926 269.565876015462) scale(1.0727716370928102)"><path d="M-15-9A21 21 0 0 1 19 9" fill="none" stroke="#ec6950" stroke-width="10"/><path d="M-13-6A16 16 0 0 1 14 7" fill="none" stroke="#ffe0a0" stroke-width="6"/></g><path d="M246.77791555412114 167.1118244389072L267.77791555412114 174.1118244389072" stroke="#e2492c" stroke-width="4"/><path d="M458.9610258489847 198.81891432683915L479.9610258489847 205.81891432683915" stroke="#e2492c" stroke-width="4"/><path d="M430.5134943705052 212.86904439795762L451.5134943705052 219.86904439795762" stroke="#e2492c" stroke-width="4"/><path d="M312.46401992067695 259.88629733677953L333.46401992067695 266.88629733677953" stroke="#e2492c" stroke-width="4"/><path d="M475.6393846068531 197.17353256884962L496.6393846068531 204.17353256884962" stroke="#e2492c" stroke-width="4"/><path d="M291.7004569545388 306.79668344091624L312.7004569545388 313.79668344091624" stroke="#e2492c" stroke-width="4"/><path d="M248.17203046940267 253.19816817063838L269.17203046940267 260.1981681706384" stroke="#e2492c" stroke-width="4"/></g><ellipse cx="360" cy="276" rx="240" ry="154" fill="none" stroke="#fbe0ae" stroke-width="5" opacity=".66"/><path d="M145 335Q356 465 574 335" fill="none" stroke="#f9c271" stroke-opacity=".38" stroke-width="6"/></svg>