<svg xmlns="http://www.w3.org/2000/svg" viewBox="0 0 720 540" role="img" aria-label="Котлетный секретный архив"><defs><linearGradient id="wood" x2=".95" y2="1"><stop stop-color="#333039"/><stop offset="1" stop-color="#1b1d1e"/></linearGradient><linearGradient id="edge" x2=".7" y2="1"><stop stop-color="#f7d9a8"/><stop offset=".48" stop-color="#8a5e4a"/><stop offset="1" stop-color="#372522"/></linearGradient><radialGradient id="dish"><stop stop-color="#d08043"/><stop offset="1" stop-color="#a24d2e"/></radialGradient><clipPath id="crop"><ellipse cx="360.0" cy="278.0" rx="217" ry="137" fill="#fff" stroke="none" stroke-width="1"/></clipPath></defs><rect width="720" height="540" fill="url(#wood)"/><path d="M0 58.4Q340 64.6 720 61.4" fill="none" stroke="#f5c68b" stroke-width="0.8" opacity=".09" stroke-linejoin="round" stroke-linecap="round"/><path d="M0 126.9Q340 137.5 720 145.7" fill="none" stroke="#f5c68b" stroke-width="0.8" opacity=".09" stroke-linejoin="round" stroke-linecap="round"/><path d="M0 182.2Q340 194.4 720 204.3" fill="none" stroke="#f5c68b" stroke-width="0.8" opacity=".09" stroke-linejoin="round" stroke-linecap="round"/><path d="M0 239.6Q340 248.9 720 247.3" fill="none" stroke="#f5c68b" stroke-width="0.8" opacity=".09" stroke-linejoin="round" stroke-linecap="round"/><path d="M0 287.1Q340 287.7 720 306.0" fill="none" stroke="#f5c68b" stroke-width="0.8" opacity=".09" stroke-linejoin="round" stroke-linecap="round"/><path d="M0 357.6Q340 359.1 720 367.3" fill="none" stroke="#f5c68b" stroke-width="0.8" opacity=".09" stroke-linejoin="round" stroke-linecap="round"/><path d="M0 407.3Q340 408.2 720 416.8" fill="none" stroke="#f5c68b" stroke-width="0.8" opacity=".09" stroke-linejoin="round" stroke-linecap="round"/><path d="M0 448.0Q340 465.1 720 462.0" fill="none" stroke="#f5c68b" stroke-width="0.8" opacity=".09" stroke-linejoin="round" stroke-linecap="round"/><path d="M0 520.6Q340 529.5 720 522.3" fill="none" stroke="#f5c68b" stroke-width="0.8" opacity=".09" stroke-linejoin="round" stroke-linecap="round"/><ellipse cx="360.0" cy="457.0" rx="269" ry="36" fill="#090909" stroke="none" stroke-width="1"/><ellipse cx="360.0" cy="278.0" rx="240" ry="158" fill="url(#edge)" stroke="#f6d8a6" stroke-width="7"/><ellipse cx="360.0" cy="278.0" rx="219" ry="140" fill="#2f1b13" stroke="#e8ba8b" stroke-width="7"/><ellipse cx="360.0" cy="278.0" rx="217" ry="137" fill="url(#dish)" stroke="none" stroke-width="1"/><g clip-path="url(#crop)"><path d="M441.9 207.0Q434.2 196.8 457.4 196.8T472.9 207.0T484.5 201.9" fill="none" stroke="#6f3a22" stroke-width="13" stroke-linejoin="round" stroke-linecap="round"/><path d="M441.9 207.0Q434.2 196.8 457.4 196.8T472.9 207.0T484.5 201.9" fill="none" stroke="#e79a47" stroke-width="8" stroke-linejoin="round" stroke-linecap="round"/><path d="M425.9 189.2Q416.5 172.5 444.8 172.5T463.6 189.2T477.7 180.8" fill="none" stroke="#6f3a22" stroke-width="13" stroke-linejoin="round" stroke-linecap="round"/><path d="M425.9 189.2Q416.5 172.5 444.8 172.5T463.6 189.2T477.7 180.8" fill="none" stroke="#e79a47" stroke-width="8" stroke-linejoin="round" stroke-linecap="round"/><path d="M425.8 266.7Q415.7 243.4 445.9 243.4T466.0 266.7T481.1 255.0" fill="none" stroke="#6f3a22" stroke-width="13" stroke-linejoin="round" stroke-linecap="round"/><path d="M425.8 266.7Q415.7 243.4 445.9 243.4T466.0 266.7T481.1 255.0" fill="none" stroke="#e79a47" stroke-width="8" stroke-linejoin="round" stroke-linecap="round"/><path d="M184.5 192.8Q174.1 163.8 205.3 163.8T226.1 192.8T241.7 178.3" fill="none" stroke="#6f3a22" stroke-width="13" stroke-linejoin="round" stroke-linecap="round"/><path d="M184.5 192.8Q174.1 163.8 205.3 163.8T226.1 192.8T241.7 178.3" fill="none" stroke="#e79a47" stroke-width="8" stroke-linejoin="round" stroke-linecap="round"/><path d="M194.2 380.1Q182.3 351.5 218.1 351.5T242.0 380.1T259.9 365.8" fill="none" stroke="#6f3a22" stroke-width="13" stroke-linejoin="round" stroke-linecap="round"/><path d="M194.2 380.1Q182.3 351.5 218.1 351.5T242.0 380.1T259.9 365.8" fill="none" stroke="#e79a47" stroke-width="8" stroke-linejoin="round" stroke-linecap="round"/><path d="M271.0 252.5Q260.4 238.6 292.1 238.6T313.2 252.5T329.1 245.6" fill="none" stroke="#6f3a22" stroke-width="13" stroke-linejoin="round" stroke-linecap="round"/><path d="M271.0 252.5Q260.4 238.6 292.1 238.6T313.2 252.5T329.1 245.6" fill="none" stroke="#e79a47" stroke-width="8" stroke-linejoin="round" stroke-linecap="round"/><path d="M240.5 220.4Q232.5 199.4 256.4 199.4T272.4 220.4T284.3 209.9" fill="none" stroke="#6f3a22" stroke-width="13" stroke-linejoin="round" stroke-linecap="round"/><path d="M240.5 220.4Q232.5 199.4 256.4 199.4T272.4 220.4T284.3 209.9" fill="none" stroke="#e79a47" stroke-width="8" stroke-linejoin="round" stroke-linecap="round"/><path d="M380.9 313.3Q375.5 278.3 391.7 278.3T402.5 313.3T410.6 295.8" fill="none" stroke="#6f3a22" stroke-width="13" stroke-linejoin="round" stroke-linecap="round"/><path d="M380.9 313.3Q375.5 278.3 391.7 278.3T402.5 313.3T410.6 295.8" fill="none" stroke="#e79a47" stroke-width="8" stroke-linejoin="round" stroke-linecap="round"/><path d="M296.3 264.9Q280.4 237.6 327.9 237.6T359.5 264.9T383.3 251.3" fill="none" stroke="#6f3a22" stroke-width="13" stroke-linejoin="round" stroke-linecap="round"/><path d="M296.3 264.9Q280.4 237.6 327.9 237.6T359.5 264.9T383.3 251.3" fill="none" stroke="#e79a47" stroke-width="8" stroke-linejoin="round" stroke-linecap="round"/><path d="M272.0 316.9Q265.3 287.1 285.4 287.1T298.9 316.9T309.0 302.0" fill="none" stroke="#6f3a22" stroke-width="13" stroke-linejoin="round" stroke-linecap="round"/><path d="M272.0 316.9Q265.3 287.1 285.4 287.1T298.9 316.9T309.0 302.0" fill="none" stroke="#e79a47" stroke-width="8" stroke-linejoin="round" stroke-linecap="round"/><path d="M322.5 198.0Q311.2 182.6 345.1 182.6T367.7 198.0T384.6 190.3" fill="none" stroke="#6f3a22" stroke-width="13" stroke-linejoin="round" stroke-linecap="round"/><path d="M322.5 198.0Q311.2 182.6 345.1 182.6T367.7 198.0T384.6 190.3" fill="none" stroke="#e79a47" stroke-width="8" stroke-linejoin="round" stroke-linecap="round"/><path d="M331.0 196.8Q315.6 176.4 362.0 176.4T392.9 196.8T416.1 186.6" fill="none" stroke="#6f3a22" stroke-width="13" stroke-linejoin="round" stroke-linecap="round"/><path d="M331.0 196.8Q315.6 176.4 362.0 176.4T392.9 196.8T416.1 186.6" fill="none" stroke="#e79a47" stroke-width="8" stroke-linejoin="round" stroke-linecap="round"/><path d="M323.2 198.7Q309.7 166.7 350.2 166.7T377.2 198.7T397.4 182.7" fill="none" stroke="#6f3a22" stroke-width="13" stroke-linejoin="round" stroke-linecap="round"/><path d="M323.2 198.7Q309.7 166.7 350.2 166.7T377.2 198.7T397.4 182.7" fill="none" stroke="#e79a47" stroke-width="8" stroke-linejoin="round" stroke-linecap="round"/><path d="M519.2 249.4Q512.6 213.6 532.4 213.6T545.7 249.4T555.6 231.5" fill="none" stroke="#6f3a22" stroke-width="13" stroke-linejoin="round" stroke-linecap="round"/><path d="M519.2 249.4Q512.6 213.6 532.4 213.6T545.7 249.4T555.6 231.5" fill="none" stroke="#e79a47" stroke-width="8" stroke-linejoin="round" stroke-linecap="round"/><path d="M322.0 339.8Q312.3 316.1 341.4 316.1T360.7 339.8T375.3 328.0" fill="none" stroke="#6f3a22" stroke-width="13" stroke-linejoin="round" stroke-linecap="round"/><path d="M322.0 339.8Q312.3 316.1 341.4 316.1T360.7 339.8T375.3 328.0" fill="none" stroke="#e79a47" stroke-width="8" stroke-linejoin="round" stroke-linecap="round"/><path d="M414.2 222.3Q407.4 195.1 427.9 195.1T441.5 222.3T451.8 208.7" fill="none" stroke="#6f3a22" stroke-width="13" stroke-linejoin="round" stroke-linecap="round"/><path d="M414.2 222.3Q407.4 195.1 427.9 195.1T441.5 222.3T451.8 208.7" fill="none" stroke="#e79a47" stroke-width="8" stroke-linejoin="round" stroke-linecap="round"/><path d="M286.4 237.9Q278.9 220.2 301.5 220.2T316.5 237.9T327.8 229.0" fill="none" stroke="#6f3a22" stroke-width="13" stroke-linejoin="round" stroke-linecap="round"/><path d="M286.4 237.9Q278.9 220.2 301.5 220.2T316.5 237.9T327.8 229.0" fill="none" stroke="#e79a47" stroke-width="8" stroke-linejoin="round" stroke-linecap="round"/><path d="M495.8 162.3Q484.0 148.8 519.5 148.8T543.1 162.3T560.8 155.6" fill="none" stroke="#6f3a22" stroke-width="13" stroke-linejoin="round" stroke-linecap="round"/><path d="M495.8 162.3Q484.0 148.8 519.5 148.8T543.1 162.3T560.8 155.6" fill="none" stroke="#e79a47" stroke-width="8" stroke-linejoin="round" stroke-linecap="round"/><path d="M414.8 201.8Q407.4 191.3 429.4 191.3T444.0 201.8T454.9 196.6" fill="none" stroke="#6f3a22" stroke-width="13" stroke-linejoin="round" stroke-linecap="round"/><path d="M414.8 201.8Q407.4 191.3 429.4 191.3T444.0 201.8T454.9 196.6" fill="none" stroke="#e79a47" stroke-width="8" stroke-linejoin="round" stroke-linecap="round"/><path d="M185.2 327.8Q177.3 313.9 201.1 313.9T216.9 327.8T228.7 320.8" fill="none" stroke="#6f3a22" stroke-width="13" stroke-linejoin="round" stroke-linecap="round"/><path d="M185.2 327.8Q177.3 313.9 201.1 313.9T216.9 327.8T228.7 320.8" fill="none" stroke="#e79a47" stroke-width="8" stroke-linejoin="round" stroke-linecap="round"/><path d="M474.6 291.2Q464.9 256.6 493.9 256.6T513.1 291.2T527.6 273.9" fill="none" stroke="#6f3a22" stroke-width="13" stroke-linejoin="round" stroke-linecap="round"/><path d="M474.6 291.2Q464.9 256.6 493.9 256.6T513.1 291.2T527.6 273.9" fill="none" stroke="#e79a47" stroke-width="8" stroke-linejoin="round" stroke-linecap="round"/><path d="M382.4 294.7Q376.5 267.4 394.2 267.4T406.0 294.7T414.9 281.1" fill="none" stroke="#6f3a22" stroke-width="13" stroke-linejoin="round" stroke-linecap="round"/><path d="M382.4 294.7Q376.5 267.4 394.2 267.4T406.0 294.7T414.9 281.1" fill="none" stroke="#e79a47" stroke-width="8" stroke-linejoin="round" stroke-linecap="round"/><path d="M445.7 238.4Q433.5 226.1 469.9 226.1T494.2 238.4T512.4 232.3" fill="none" stroke="#6f3a22" stroke-width="13" stroke-linejoin="round" stroke-linecap="round"/><path d="M445.7 238.4Q433.5 226.1 469.9 226.1T494.2 238.4T512.4 232.3" fill="none" stroke="#e79a47" stroke-width="8" stroke-linejoin="round" stroke-linecap="round"/><path d="M222.8 168.5Q216.3 135.6 235.9 135.6T249.0 168.5T258.8 152.0" fill="none" stroke="#6f3a22" stroke-width="13" stroke-linejoin="round" stroke-linecap="round"/><path d="M222.8 168.5Q216.3 135.6 235.9 135.6T249.0 168.5T258.8 152.0" fill="none" stroke="#e79a47" stroke-width="8" stroke-linejoin="round" stroke-linecap="round"/><path d="M283.7 321.3Q276.7 301.0 297.7 301.0T311.7 321.3T322.2 311.1" fill="none" stroke="#6f3a22" stroke-width="13" stroke-linejoin="round" stroke-linecap="round"/><path d="M283.7 321.3Q276.7 301.0 297.7 301.0T311.7 321.3T322.2 311.1" fill="none" stroke="#e79a47" stroke-width="8" stroke-linejoin="round" stroke-linecap="round"/><path d="M422.8 301.8Q410.0 289.7 448.3 289.7T473.8 301.8T492.9 295.8" fill="none" stroke="#6f3a22" stroke-width="13" stroke-linejoin="round" stroke-linecap="round"/><path d="M422.8 301.8Q410.0 289.7 448.3 289.7T473.8 301.8T492.9 295.8" fill="none" stroke="#e79a47" stroke-width="8" stroke-linejoin="round" stroke-linecap="round"/><path d="M176.1 243.8Q162.5 214.4 203.5 214.4T230.8 243.8T251.3 229.1" fill="none" stroke="#6f3a22" stroke-width="13" stroke-linejoin="round" stroke-linecap="round"/><path d="M176.1 243.8Q162.5 214.4 203.5 214.4T230.8 243.8T251.3 229.1" fill="none" stroke="#e79a47" stroke-width="8" stroke-linejoin="round" stroke-linecap="round"/><path d="M415.3 206.3Q407.2 188.7 431.7 188.7T448.0 206.3T460.3 197.5" fill="none" stroke="#6f3a22" stroke-width="13" stroke-linejoin="round" stroke-linecap="round"/><path d="M415.3 206.3Q407.2 188.7 431.7 188.7T448.0 206.3T460.3 197.5" fill="none" stroke="#e79a47" stroke-width="8" stroke-linejoin="round" stroke-linecap="round"/><path d="M486.3 304.7Q477.4 275.0 503.9 275.0T521.6 304.7T534.8 289.8" fill="none" stroke="#6f3a22" stroke-width="13" stroke-linejoin="round" stroke-linecap="round"/><path d="M486.3 304.7Q477.4 275.0 503.9 275.0T521.6 304.7T534.8 289.8" fill="none" stroke="#e79a47" stroke-width="8" stroke-linejoin="round" stroke-linecap="round"/><path d="M228.9 352.8Q223.7 324.2 239.4 324.2T249.8 352.8T257.6 338.5" fill="none" stroke="#6f3a22" stroke-width="13" stroke-linejoin="round" stroke-linecap="round"/><path d="M228.9 352.8Q223.7 324.2 239.4 324.2T249.8 352.8T257.6 338.5" fill="none" stroke="#e79a47" stroke-width="8" stroke-linejoin="round" stroke-linecap="round"/><path d="M519.0 319.0Q512.5 298.7 532.2 298.7T545.3 319.0T555.2 308.9" fill="none" stroke="#6f3a22" stroke-width="13" stroke-linejoin="round" stroke-linecap="round"/><path d="M519.0 319.0Q512.5 298.7 532.2 298.7T545.3 319.0T555.2 308.9" fill="none" stroke="#e79a47" stroke-width="8" stroke-linejoin="round" stroke-linecap="round"/><path d="M208.1 319.2Q194.5 308.0 235.3 308.0T262.4 319.2T282.8 313.6" fill="none" stroke="#6f3a22" stroke-width="13" stroke-linejoin="round" stroke-linecap="round"/><path d="M208.1 319.2Q194.5 308.0 235.3 308.0T262.4 319.2T282.8 313.6" fill="none" stroke="#e79a47" stroke-width="8" stroke-linejoin="round" stroke-linecap="round"/><path d="M261.2 195.5Q248.5 174.2 286.7 174.2T312.2 195.5T331.3 184.9" fill="none" stroke="#6f3a22" stroke-width="13" stroke-linejoin="round" stroke-linecap="round"/><path d="M261.2 195.5Q248.5 174.2 286.7 174.2T312.2 195.5T331.3 184.9" fill="none" stroke="#e79a47" stroke-width="8" stroke-linejoin="round" stroke-linecap="round"/><path d="M215.4 181.3Q206.1 157.7 234.0 157.7T252.7 181.3T266.6 169.5" fill="none" stroke="#6f3a22" stroke-width="13" stroke-linejoin="round" stroke-linecap="round"/><path d="M215.4 181.3Q206.1 157.7 234.0 157.7T252.7 181.3T266.6 169.5" fill="none" stroke="#e79a47" stroke-width="8" stroke-linejoin="round" stroke-linecap="round"/><path d="M453.7 330.6Q439.2 303.4 482.7 303.4T511.7 330.6T533.5 317.0" fill="none" stroke="#6f3a22" stroke-width="13" stroke-linejoin="round" stroke-linecap="round"/><path d="M453.7 330.6Q439.2 303.4 482.7 303.4T511.7 330.6T533.5 317.0" fill="none" stroke="#e79a47" stroke-width="8" stroke-linejoin="round" stroke-linecap="round"/><path d="M267.3 254.3Q259.2 222.1 283.6 222.1T299.9 254.3T312.1 238.2" fill="none" stroke="#6f3a22" stroke-width="13" stroke-linejoin="round" stroke-linecap="round"/><path d="M267.3 254.3Q259.2 222.1 283.6 222.1T299.9 254.3T312.1 238.2" fill="none" stroke="#e79a47" stroke-width="8" stroke-linejoin="round" stroke-linecap="round"/><path d="M275.2 309.6Q269.9 274.6 285.9 274.6T296.5 309.6T304.5 292.1" fill="none" stroke="#6f3a22" stroke-width="13" stroke-linejoin="round" stroke-linecap="round"/><path d="M275.2 309.6Q269.9 274.6 285.9 274.6T296.5 309.6T304.5 292.1" fill="none" stroke="#e79a47" stroke-width="8" stroke-linejoin="round" stroke-linecap="round"/><path d="M184.2 382.6Q171.1 348.8 210.2 348.8T236.2 382.6T255.8 365.7" fill="none" stroke="#6f3a22" stroke-width="13" stroke-linejoin="round" stroke-linecap="round"/><path d="M184.2 382.6Q171.1 348.8 210.2 348.8T236.2 382.6T255.8 365.7" fill="none" stroke="#e79a47" stroke-width="8" stroke-linejoin="round" stroke-linecap="round"/><path d="M268.1 349.9Q257.8 335.0 288.7 335.0T309.2 349.9T324.6 342.5" fill="none" stroke="#6f3a22" stroke-width="13" stroke-linejoin="round" stroke-linecap="round"/><path d="M268.1 349.9Q257.8 335.0 288.7 335.0T309.2 349.9T324.6 342.5" fill="none" stroke="#e79a47" stroke-width="8" stroke-linejoin="round" stroke-linecap="round"/><g transform="translate(556.0 319.8) rotate(-20) scale(0.8)"><ellipse cx="0.0" cy="0.0" rx="28" ry="21" fill="#3d8a55" stroke="#b1ce6c" stroke-width="4"/><ellipse cx="0.0" cy="0.0" rx="22" ry="15" fill="#c7dc96" stroke="none" stroke-width="1"/> <ellipse cx="-6.0" cy="2.0" rx="2" ry="3" fill="#fbefc3" stroke="none" stroke-width="1"/><ellipse cx="6.0" cy="2.0" rx="2" ry="3" fill="#fbefc3" stroke="none" stroke-width="1"/></g><g transform="translate(414.4 337.4) rotate(29) scale(0.8)"><ellipse cx="0.0" cy="0.0" rx="28" ry="21" fill="#3d8a55" stroke="#b1ce6c" stroke-width="4"/><ellipse cx="0.0" cy="0.0" rx="22" ry="15" fill="#c7dc96" stroke="none" stroke-width="1"/> <ellipse cx="-6.0" cy="2.0" rx="2" ry="3" fill="#fbefc3" stroke="none" stroke-width="1"/><ellipse cx="6.0" cy="2.0" rx="2" ry="3" fill="#fbefc3" stroke="none" stroke-width="1"/></g><g transform="translate(311.1 418.1) rotate(6) scale(0.9)"><ellipse cx="0.0" cy="0.0" rx="28" ry="21" fill="#3d8a55" stroke="#b1ce6c" stroke-width="4"/><ellipse cx="0.0" cy="0.0" rx="22" ry="15" fill="#c7dc96" stroke="none" stroke-width="1"/> <ellipse cx="-6.0" cy="2.0" rx="2" ry="3" fill="#fbefc3" stroke="none" stroke-width="1"/><ellipse cx="6.0" cy="2.0" rx="2" ry="3" fill="#fbefc3" stroke="none" stroke-width="1"/></g><g transform="translate(153.5 285.9) rotate(-2) scale(0.8)"><ellipse cx="0.0" cy="0.0" rx="28" ry="21" fill="#3d8a55" stroke="#b1ce6c" stroke-width="4"/><ellipse cx="0.0" cy="0.0" rx="22" ry="15" fill="#c7dc96" stroke="none" stroke-width="1"/> <ellipse cx="-6.0" cy="2.0" rx="2" ry="3" fill="#fbefc3" stroke="none" stroke-width="1"/><ellipse cx="6.0" cy="2.0" rx="2" ry="3" fill="#fbefc3" stroke="none" stroke-width="1"/></g><g transform="translate(207.0 194.2) rotate(5) scale(0.7)"><ellipse cx="0.0" cy="0.0" rx="28" ry="21" fill="#3d8a55" stroke="#b1ce6c" stroke-width="4"/><ellipse cx="0.0" cy="0.0" rx="22" ry="15" fill="#c7dc96" stroke="none" stroke-width="1"/> <ellipse cx="-6.0" cy="2.0" rx="2" ry="3" fill="#fbefc3" stroke="none" stroke-width="1"/><ellipse cx="6.0" cy="2.0" rx="2" ry="3" fill="#fbefc3" stroke="none" stroke-width="1"/></g><g transform="translate(392.4 153.3) rotate(-26) scale(1.0)"><path d="M-27-12Q-6-28 29-8L23 21Q-8 27-28 11Z" fill="#9c5f3e" stroke="#e6bc83" stroke-width="3" stroke-linejoin="round" stroke-linecap="round"/><path d="M-14-4Q-1-11 15-1" fill="none" stroke="#f9d5ae" stroke-width="3" stroke-linejoin="round" stroke-linecap="round"/></g><g transform="translate(499.6 175.9) rotate(-25) scale(1.0)"><path d="M-27-12Q-6-28 29-8L23 21Q-8 27-28 11Z" fill="#9c5f3e" stroke="#e6bc83" stroke-width="3" stroke-linejoin="round" stroke-linecap="round"/><path d="M-14-4Q-1-11 15-1" fill="none" stroke="#f9d5ae" stroke-width="3" stroke-linejoin="round" stroke-linecap="round"/></g><path d="M404.5 243.0q14 -13 29 3" fill="none" stroke="#bc4933" stroke-width="5" stroke-linejoin="round" stroke-linecap="round"/><path d="M324.5 300.7q14 -13 29 3" fill="none" stroke="#bc4933" stroke-width="5" stroke-linejoin="round" stroke-linecap="round"/><path d="M425.8 256.8q14 -13 29 3" fill="none" stroke="#bc4933" stroke-width="5" stroke-linejoin="round" stroke-linecap="round"/><path d="M375.6 270.8q14 -13 29 3" fill="none" stroke="#bc4933" stroke-width="5" stroke-linejoin="round" stroke-linecap="round"/></g><ellipse cx="360.0" cy="278.0" rx="223" ry="143" fill="none" stroke="#ffecbd" stroke-width="4"/><path d="M112 444Q356 494 604 443" fill="none" stroke="#fff2d2" stroke-opacity=".10" stroke-width="3"/></svg>