<svg xmlns="http://www.w3.org/2000/svg" viewBox="0 0 720 540" role="img" aria-label="Бульон «Яйцо судьбы»"><defs><linearGradient id="wood" x2=".95" y2="1"><stop stop-color="#3d2931"/><stop offset="1" stop-color="#291d25"/></linearGradient><linearGradient id="edge" x2=".7" y2="1"><stop stop-color="#f7d9a8"/><stop offset=".48" stop-color="#8a5e4a"/><stop offset="1" stop-color="#372522"/></linearGradient><radialGradient id="dish"><stop stop-color="#f5b859"/><stop offset="1" stop-color="#bd8f4e"/></radialGradient><clipPath id="crop"><ellipse cx="360.0" cy="278.0" rx="217" ry="137" fill="#fff" stroke="none" stroke-width="1"/></clipPath></defs><rect width="720" height="540" fill="url(#wood)"/><path d="M0 64.3Q340 68.8 720 77.5" fill="none" stroke="#f5c68b" stroke-width="0.8" opacity=".09" stroke-linejoin="round" stroke-linecap="round"/><path d="M0 118.6Q340 129.8 720 128.1" fill="none" stroke="#f5c68b" stroke-width="0.8" opacity=".09" stroke-linejoin="round" stroke-linecap="round"/><path d="M0 182.9Q340 193.7 720 205.4" fill="none" stroke="#f5c68b" stroke-width="0.8" opacity=".09" stroke-linejoin="round" stroke-linecap="round"/><path d="M0 239.9Q340 252.6 720 240.6" fill="none" stroke="#f5c68b" stroke-width="0.8" opacity=".09" stroke-linejoin="round" stroke-linecap="round"/><path d="M0 289.6Q340 296.6 720 310.5" fill="none" stroke="#f5c68b" stroke-width="0.8" opacity=".09" stroke-linejoin="round" stroke-linecap="round"/><path d="M0 354.9Q340 368.5 720 366.2" fill="none" stroke="#f5c68b" stroke-width="0.8" opacity=".09" stroke-linejoin="round" stroke-linecap="round"/><path d="M0 406.1Q340 414.3 720 411.7" fill="none" stroke="#f5c68b" stroke-width="0.8" opacity=".09" stroke-linejoin="round" stroke-linecap="round"/><path d="M0 460.8Q340 461.0 720 473.8" fill="none" stroke="#f5c68b" stroke-width="0.8" opacity=".09" stroke-linejoin="round" stroke-linecap="round"/><path d="M0 516.8Q340 523.8 720 538.6" fill="none" stroke="#f5c68b" stroke-width="0.8" opacity=".09" stroke-linejoin="round" stroke-linecap="round"/><ellipse cx="360.0" cy="457.0" rx="269" ry="36" fill="#090909" stroke="none" stroke-width="1"/><ellipse cx="360.0" cy="278.0" rx="240" ry="158" fill="url(#edge)" stroke="#f6d8a6" stroke-width="7"/><ellipse cx="360.0" cy="278.0" rx="219" ry="140" fill="#2f1b13" stroke="#e8ba8b" stroke-width="7"/><ellipse cx="360.0" cy="278.0" rx="217" ry="137" fill="url(#dish)" stroke="none" stroke-width="1"/><ellipse cx="360.0" cy="278.0" rx="204" ry="125" fill="#b1844b" stroke="none" stroke-width="1"/><g clip-path="url(#crop)"><path d="M268.8 379.8Q261.2 354.9 284.1 354.9T299.4 379.8T310.9 367.4" fill="none" stroke="#6f3a22" stroke-width="13" stroke-linejoin="round" stroke-linecap="round"/><path d="M268.8 379.8Q261.2 354.9 284.1 354.9T299.4 379.8T310.9 367.4" fill="none" stroke="#fbc062" stroke-width="8" stroke-linejoin="round" stroke-linecap="round"/><path d="M428.7 250.9Q412.3 226.2 461.6 226.2T494.5 250.9T519.1 238.6" fill="none" stroke="#6f3a22" stroke-width="13" stroke-linejoin="round" stroke-linecap="round"/><path d="M428.7 250.9Q412.3 226.2 461.6 226.2T494.5 250.9T519.1 238.6" fill="none" stroke="#fbc062" stroke-width="8" stroke-linejoin="round" stroke-linecap="round"/><path d="M310.1 296.5Q304.7 285.1 320.8 285.1T331.5 296.5T339.6 290.8" fill="none" stroke="#6f3a22" stroke-width="13" stroke-linejoin="round" stroke-linecap="round"/><path d="M310.1 296.5Q304.7 285.1 320.8 285.1T331.5 296.5T339.6 290.8" fill="none" stroke="#fbc062" stroke-width="8" stroke-linejoin="round" stroke-linecap="round"/><path d="M395.1 391.8Q383.4 358.3 418.5 358.3T441.9 391.8T459.5 375.1" fill="none" stroke="#6f3a22" stroke-width="13" stroke-linejoin="round" stroke-linecap="round"/><path d="M395.1 391.8Q383.4 358.3 418.5 358.3T441.9 391.8T459.5 375.1" fill="none" stroke="#fbc062" stroke-width="8" stroke-linejoin="round" stroke-linecap="round"/><path d="M322.2 299.7Q308.5 287.4 349.7 287.4T377.1 299.7T397.7 293.6" fill="none" stroke="#6f3a22" stroke-width="13" stroke-linejoin="round" stroke-linecap="round"/><path d="M322.2 299.7Q308.5 287.4 349.7 287.4T377.1 299.7T397.7 293.6" fill="none" stroke="#fbc062" stroke-width="8" stroke-linejoin="round" stroke-linecap="round"/><path d="M359.3 337.5Q349.8 327.2 378.4 327.2T397.6 337.5T411.9 332.4" fill="none" stroke="#6f3a22" stroke-width="13" stroke-linejoin="round" stroke-linecap="round"/><path d="M359.3 337.5Q349.8 327.2 378.4 327.2T397.6 337.5T411.9 332.4" fill="none" stroke="#fbc062" stroke-width="8" stroke-linejoin="round" stroke-linecap="round"/><path d="M425.8 368.4Q418.1 340.3 441.4 340.3T457.0 368.4T468.7 354.3" fill="none" stroke="#6f3a22" stroke-width="13" stroke-linejoin="round" stroke-linecap="round"/><path d="M425.8 368.4Q418.1 340.3 441.4 340.3T457.0 368.4T468.7 354.3" fill="none" stroke="#fbc062" stroke-width="8" stroke-linejoin="round" stroke-linecap="round"/><path d="M316.6 285.2Q309.6 252.0 330.7 252.0T344.9 285.2T355.5 268.6" fill="none" stroke="#6f3a22" stroke-width="13" stroke-linejoin="round" stroke-linecap="round"/><path d="M316.6 285.2Q309.6 252.0 330.7 252.0T344.9 285.2T355.5 268.6" fill="none" stroke="#fbc062" stroke-width="8" stroke-linejoin="round" stroke-linecap="round"/><path d="M255.7 261.8Q245.6 236.5 275.8 236.5T296.0 261.8T311.1 249.1" fill="none" stroke="#6f3a22" stroke-width="13" stroke-linejoin="round" stroke-linecap="round"/><path d="M255.7 261.8Q245.6 236.5 275.8 236.5T296.0 261.8T311.1 249.1" fill="none" stroke="#fbc062" stroke-width="8" stroke-linejoin="round" stroke-linecap="round"/><path d="M500.8 267.4Q495.5 243.5 511.2 243.5T521.7 267.4T529.5 255.4" fill="none" stroke="#6f3a22" stroke-width="13" stroke-linejoin="round" stroke-linecap="round"/><path d="M500.8 267.4Q495.5 243.5 511.2 243.5T521.7 267.4T529.5 255.4" fill="none" stroke="#fbc062" stroke-width="8" stroke-linejoin="round" stroke-linecap="round"/><path d="M283.1 277.9Q269.9 253.1 309.5 253.1T335.9 277.9T355.6 265.5" fill="none" stroke="#6f3a22" stroke-width="13" stroke-linejoin="round" stroke-linecap="round"/><path d="M283.1 277.9Q269.9 253.1 309.5 253.1T335.9 277.9T355.6 265.5" fill="none" stroke="#fbc062" stroke-width="8" stroke-linejoin="round" stroke-linecap="round"/><path d="M264.2 218.2Q253.1 205.4 286.2 205.4T308.3 218.2T324.8 211.8" fill="none" stroke="#6f3a22" stroke-width="13" stroke-linejoin="round" stroke-linecap="round"/><path d="M264.2 218.2Q253.1 205.4 286.2 205.4T308.3 218.2T324.8 211.8" fill="none" stroke="#fbc062" stroke-width="8" stroke-linejoin="round" stroke-linecap="round"/><path d="M337.8 260.1Q328.5 225.7 356.3 225.7T374.9 260.1T388.8 242.9" fill="none" stroke="#6f3a22" stroke-width="13" stroke-linejoin="round" stroke-linecap="round"/><path d="M337.8 260.1Q328.5 225.7 356.3 225.7T374.9 260.1T388.8 242.9" fill="none" stroke="#fbc062" stroke-width="8" stroke-linejoin="round" stroke-linecap="round"/><path d="M192.5 196.0Q184.1 181.7 209.2 181.7T225.9 196.0T238.4 188.9" fill="none" stroke="#6f3a22" stroke-width="13" stroke-linejoin="round" stroke-linecap="round"/><path d="M192.5 196.0Q184.1 181.7 209.2 181.7T225.9 196.0T238.4 188.9" fill="none" stroke="#fbc062" stroke-width="8" stroke-linejoin="round" stroke-linecap="round"/><path d="M236.8 320.7Q225.0 309.9 260.5 309.9T284.1 320.7T301.9 315.3" fill="none" stroke="#6f3a22" stroke-width="13" stroke-linejoin="round" stroke-linecap="round"/><path d="M236.8 320.7Q225.0 309.9 260.5 309.9T284.1 320.7T301.9 315.3" fill="none" stroke="#fbc062" stroke-width="8" stroke-linejoin="round" stroke-linecap="round"/><path d="M383.7 349.1Q370.6 315.3 409.9 315.3T436.1 349.1T455.7 332.2" fill="none" stroke="#6f3a22" stroke-width="13" stroke-linejoin="round" stroke-linecap="round"/><path d="M383.7 349.1Q370.6 315.3 409.9 315.3T436.1 349.1T455.7 332.2" fill="none" stroke="#fbc062" stroke-width="8" stroke-linejoin="round" stroke-linecap="round"/><path d="M477.9 219.5Q466.1 190.0 501.5 190.0T525.1 219.5T542.8 204.8" fill="none" stroke="#6f3a22" stroke-width="13" stroke-linejoin="round" stroke-linecap="round"/><path d="M477.9 219.5Q466.1 190.0 501.5 190.0T525.1 219.5T542.8 204.8" fill="none" stroke="#fbc062" stroke-width="8" stroke-linejoin="round" stroke-linecap="round"/><path d="M345.3 307.4Q340.0 282.0 356.1 282.0T366.8 307.4T374.9 294.7" fill="none" stroke="#6f3a22" stroke-width="13" stroke-linejoin="round" stroke-linecap="round"/><path d="M345.3 307.4Q340.0 282.0 356.1 282.0T366.8 307.4T374.9 294.7" fill="none" stroke="#fbc062" stroke-width="8" stroke-linejoin="round" stroke-linecap="round"/><path d="M199.4 224.6Q192.8 209.1 212.5 209.1T225.7 224.6T235.6 216.8" fill="none" stroke="#6f3a22" stroke-width="13" stroke-linejoin="round" stroke-linecap="round"/><path d="M199.4 224.6Q192.8 209.1 212.5 209.1T225.7 224.6T235.6 216.8" fill="none" stroke="#fbc062" stroke-width="8" stroke-linejoin="round" stroke-linecap="round"/><path d="M317.9 367.6Q303.1 335.8 347.5 335.8T377.2 367.6T399.4 351.7" fill="none" stroke="#6f3a22" stroke-width="13" stroke-linejoin="round" stroke-linecap="round"/><path d="M317.9 367.6Q303.1 335.8 347.5 335.8T377.2 367.6T399.4 351.7" fill="none" stroke="#fbc062" stroke-width="8" stroke-linejoin="round" stroke-linecap="round"/><path d="M511.6 348.1Q502.1 326.7 530.5 326.7T549.4 348.1T563.6 337.4" fill="none" stroke="#6f3a22" stroke-width="13" stroke-linejoin="round" stroke-linecap="round"/><path d="M511.6 348.1Q502.1 326.7 530.5 326.7T549.4 348.1T563.6 337.4" fill="none" stroke="#fbc062" stroke-width="8" stroke-linejoin="round" stroke-linecap="round"/><path d="M395.0 175.0Q381.1 159.9 422.8 159.9T450.6 175.0T471.5 167.4" fill="none" stroke="#6f3a22" stroke-width="13" stroke-linejoin="round" stroke-linecap="round"/><path d="M395.0 175.0Q381.1 159.9 422.8 159.9T450.6 175.0T471.5 167.4" fill="none" stroke="#fbc062" stroke-width="8" stroke-linejoin="round" stroke-linecap="round"/><path d="M308.9 362.6Q303.8 350.2 319.1 350.2T329.2 362.6T336.8 356.4" fill="none" stroke="#6f3a22" stroke-width="13" stroke-linejoin="round" stroke-linecap="round"/><path d="M308.9 362.6Q303.8 350.2 319.1 350.2T329.2 362.6T336.8 356.4" fill="none" stroke="#fbc062" stroke-width="8" stroke-linejoin="round" stroke-linecap="round"/><path d="M257.4 176.2Q246.9 149.6 278.3 149.6T299.2 176.2T314.9 162.9" fill="none" stroke="#6f3a22" stroke-width="13" stroke-linejoin="round" stroke-linecap="round"/><path d="M257.4 176.2Q246.9 149.6 278.3 149.6T299.2 176.2T314.9 162.9" fill="none" stroke="#fbc062" stroke-width="8" stroke-linejoin="round" stroke-linecap="round"/><path d="M439.6 351.6Q427.4 333.7 464.0 333.7T488.3 351.6T506.6 342.6" fill="none" stroke="#6f3a22" stroke-width="13" stroke-linejoin="round" stroke-linecap="round"/><path d="M439.6 351.6Q427.4 333.7 464.0 333.7T488.3 351.6T506.6 342.6" fill="none" stroke="#fbc062" stroke-width="8" stroke-linejoin="round" stroke-linecap="round"/><path d="M188.3 317.4Q182.6 303.7 199.9 303.7T211.4 317.4T220.1 310.5" fill="none" stroke="#6f3a22" stroke-width="13" stroke-linejoin="round" stroke-linecap="round"/><path d="M188.3 317.4Q182.6 303.7 199.9 303.7T211.4 317.4T220.1 310.5" fill="none" stroke="#fbc062" stroke-width="8" stroke-linejoin="round" stroke-linecap="round"/><path d="M157.5 357.7Q145.7 333.3 181.0 333.3T204.6 357.7T222.2 345.5" fill="none" stroke="#6f3a22" stroke-width="13" stroke-linejoin="round" stroke-linecap="round"/><path d="M157.5 357.7Q145.7 333.3 181.0 333.3T204.6 357.7T222.2 345.5" fill="none" stroke="#fbc062" stroke-width="8" stroke-linejoin="round" stroke-linecap="round"/><path d="M459.9 190.3Q446.2 170.6 487.1 170.6T514.3 190.3T534.7 180.4" fill="none" stroke="#6f3a22" stroke-width="13" stroke-linejoin="round" stroke-linecap="round"/><path d="M459.9 190.3Q446.2 170.6 487.1 170.6T514.3 190.3T534.7 180.4" fill="none" stroke="#fbc062" stroke-width="8" stroke-linejoin="round" stroke-linecap="round"/><path d="M445.5 235.8Q440.1 210.5 456.5 210.5T467.4 235.8T475.6 223.2" fill="none" stroke="#6f3a22" stroke-width="13" stroke-linejoin="round" stroke-linecap="round"/><path d="M445.5 235.8Q440.1 210.5 456.5 210.5T467.4 235.8T475.6 223.2" fill="none" stroke="#fbc062" stroke-width="8" stroke-linejoin="round" stroke-linecap="round"/><path d="M421.5 248.2Q407.3 227.8 449.8 227.8T478.1 248.2T499.3 238.0" fill="none" stroke="#6f3a22" stroke-width="13" stroke-linejoin="round" stroke-linecap="round"/><path d="M421.5 248.2Q407.3 227.8 449.8 227.8T478.1 248.2T499.3 238.0" fill="none" stroke="#fbc062" stroke-width="8" stroke-linejoin="round" stroke-linecap="round"/><path d="M202.8 283.1Q194.3 261.2 219.8 261.2T236.7 283.1T249.5 272.2" fill="none" stroke="#6f3a22" stroke-width="13" stroke-linejoin="round" stroke-linecap="round"/><path d="M202.8 283.1Q194.3 261.2 219.8 261.2T236.7 283.1T249.5 272.2" fill="none" stroke="#fbc062" stroke-width="8" stroke-linejoin="round" stroke-linecap="round"/><path d="M187.8 354.2Q173.1 332.0 217.1 332.0T246.5 354.2T268.5 343.1" fill="none" stroke="#6f3a22" stroke-width="13" stroke-linejoin="round" stroke-linecap="round"/><path d="M187.8 354.2Q173.1 332.0 217.1 332.0T246.5 354.2T268.5 343.1" fill="none" stroke="#fbc062" stroke-width="8" stroke-linejoin="round" stroke-linecap="round"/><path d="M346.0 195.9Q334.4 172.0 369.1 172.0T392.2 195.9T409.5 184.0" fill="none" stroke="#6f3a22" stroke-width="13" stroke-linejoin="round" stroke-linecap="round"/><path d="M346.0 195.9Q334.4 172.0 369.1 172.0T392.2 195.9T409.5 184.0" fill="none" stroke="#fbc062" stroke-width="8" stroke-linejoin="round" stroke-linecap="round"/><path d="M298.3 192.1Q287.7 160.0 319.5 160.0T340.8 192.1T356.7 176.1" fill="none" stroke="#6f3a22" stroke-width="13" stroke-linejoin="round" stroke-linecap="round"/><path d="M298.3 192.1Q287.7 160.0 319.5 160.0T340.8 192.1T356.7 176.1" fill="none" stroke="#fbc062" stroke-width="8" stroke-linejoin="round" stroke-linecap="round"/><path d="M497.9 166.5Q482.3 138.6 529.1 138.6T560.3 166.5T583.8 152.6" fill="none" stroke="#6f3a22" stroke-width="13" stroke-linejoin="round" stroke-linecap="round"/><path d="M497.9 166.5Q482.3 138.6 529.1 138.6T560.3 166.5T583.8 152.6" fill="none" stroke="#fbc062" stroke-width="8" stroke-linejoin="round" stroke-linecap="round"/><path d="M467.4 254.9Q459.9 225.0 482.5 225.0T497.6 254.9T508.9 240.0" fill="none" stroke="#6f3a22" stroke-width="13" stroke-linejoin="round" stroke-linecap="round"/><path d="M467.4 254.9Q459.9 225.0 482.5 225.0T497.6 254.9T508.9 240.0" fill="none" stroke="#fbc062" stroke-width="8" stroke-linejoin="round" stroke-linecap="round"/><path d="M396.8 319.8Q384.3 298.4 421.7 298.4T446.6 319.8T465.3 309.1" fill="none" stroke="#6f3a22" stroke-width="13" stroke-linejoin="round" stroke-linecap="round"/><path d="M396.8 319.8Q384.3 298.4 421.7 298.4T446.6 319.8T465.3 309.1" fill="none" stroke="#fbc062" stroke-width="8" stroke-linejoin="round" stroke-linecap="round"/><path d="M488.8 298.8Q476.5 280.4 513.4 280.4T538.0 298.8T556.4 289.6" fill="none" stroke="#6f3a22" stroke-width="13" stroke-linejoin="round" stroke-linecap="round"/><path d="M488.8 298.8Q476.5 280.4 513.4 280.4T538.0 298.8T556.4 289.6" fill="none" stroke="#fbc062" stroke-width="8" stroke-linejoin="round" stroke-linecap="round"/><path d="M418.1 290.6Q403.0 274.6 448.3 274.6T478.5 290.6T501.1 282.6" fill="none" stroke="#6f3a22" stroke-width="13" stroke-linejoin="round" stroke-linecap="round"/><path d="M418.1 290.6Q403.0 274.6 448.3 274.6T478.5 290.6T501.1 282.6" fill="none" stroke="#fbc062" stroke-width="8" stroke-linejoin="round" stroke-linecap="round"/><g transform="translate(569.2 314.7) rotate(8) scale(1.0)"><path d="M-35 0Q-40-20-20-29Q-1-42 18-27Q38-20 37 5Q28 30 5 31Q-22 33-35 0Z" fill="#fff5d2" stroke="#ead4ab" stroke-width="3" stroke-linejoin="round" stroke-linecap="round"/><ellipse cx="4.0" cy="0.0" rx="17" ry="17" fill="#f7a82a" stroke="#ffdd7c" stroke-width="3"/><ellipse cx="-2.0" cy="-6.0" rx="5" ry="5" fill="#fff5c6" stroke="none" stroke-width="1"/></g><g transform="translate(438.1 368.0) rotate(21) scale(0.9)"><path d="M-35 0Q-40-20-20-29Q-1-42 18-27Q38-20 37 5Q28 30 5 31Q-22 33-35 0Z" fill="#fff5d2" stroke="#ead4ab" stroke-width="3" stroke-linejoin="round" stroke-linecap="round"/><ellipse cx="4.0" cy="0.0" rx="17" ry="17" fill="#f7a82a" stroke="#ffdd7c" stroke-width="3"/><ellipse cx="-2.0" cy="-6.0" rx="5" ry="5" fill="#fff5c6" stroke="none" stroke-width="1"/></g><g transform="translate(318.3 417.2) rotate(14) scale(1.1)"><path d="M-35 0Q-40-20-20-29Q-1-42 18-27Q38-20 37 5Q28 30 5 31Q-22 33-35 0Z" fill="#fff5d2" stroke="#ead4ab" stroke-width="3" stroke-linejoin="round" stroke-linecap="round"/><ellipse cx="4.0" cy="0.0" rx="17" ry="17" fill="#f7a82a" stroke="#ffdd7c" stroke-width="3"/><ellipse cx="-2.0" cy="-6.0" rx="5" ry="5" fill="#fff5c6" stroke="none" stroke-width="1"/></g><g transform="translate(234.0 341.1) rotate(-25) scale(0.9)"><path d="M-28 4Q-12-22 18-18Q28 9-14 19Z" fill="#418e55" stroke="#aade83" stroke-width="3" stroke-linejoin="round" stroke-linecap="round"/><path d="M-19 10L19-13" fill="none" stroke="#d2e89a" stroke-width="2" stroke-linejoin="round" stroke-linecap="round"/></g><g transform="translate(229.1 258.9) rotate(29) scale(0.7)"><path d="M-28 4Q-12-22 18-18Q28 9-14 19Z" fill="#418e55" stroke="#aade83" stroke-width="3" stroke-linejoin="round" stroke-linecap="round"/><path d="M-19 10L19-13" fill="none" stroke="#d2e89a" stroke-width="2" stroke-linejoin="round" stroke-linecap="round"/></g><g transform="translate(290.0 210.5) rotate(-43) scale(0.9)"><path d="M-28 4Q-12-22 18-18Q28 9-14 19Z" fill="#418e55" stroke="#aade83" stroke-width="3" stroke-linejoin="round" stroke-linecap="round"/><path d="M-19 10L19-13" fill="none" stroke="#d2e89a" stroke-width="2" stroke-linejoin="round" stroke-linecap="round"/></g><g transform="translate(363.1 137.0) rotate(25) scale(1.0)"><path d="M-28 4Q-12-22 18-18Q28 9-14 19Z" fill="#418e55" stroke="#aade83" stroke-width="3" stroke-linejoin="round" stroke-linecap="round"/><path d="M-19 10L19-13" fill="none" stroke="#d2e89a" stroke-width="2" stroke-linejoin="round" stroke-linecap="round"/></g><g transform="translate(518.1 182.1) rotate(-43) scale(0.9)"><path d="M-28 4Q-12-22 18-18Q28 9-14 19Z" fill="#418e55" stroke="#aade83" stroke-width="3" stroke-linejoin="round" stroke-linecap="round"/><path d="M-19 10L19-13" fill="none" stroke="#d2e89a" stroke-width="2" stroke-linejoin="round" stroke-linecap="round"/></g></g><ellipse cx="360.0" cy="278.0" rx="223" ry="143" fill="none" stroke="#ffecbd" stroke-width="4"/><path d="M112 444Q356 494 604 443" fill="none" stroke="#fff2d2" stroke-opacity=".10" stroke-width="3"/></svg>