<svg xmlns="http://www.w3.org/2000/svg" viewBox="0 0 720 540" role="img" aria-label="Медовый ультиматум"><defs><linearGradient id="wood" x2=".95" y2="1"><stop stop-color="#523025"/><stop offset="1" stop-color="#281710"/></linearGradient><linearGradient id="edge" x2=".7" y2="1"><stop stop-color="#f7d9a8"/><stop offset=".48" stop-color="#8a5e4a"/><stop offset="1" stop-color="#372522"/></linearGradient><radialGradient id="dish"><stop stop-color="#d08043"/><stop offset="1" stop-color="#a24d2e"/></radialGradient><clipPath id="crop"><ellipse cx="360.0" cy="278.0" rx="239" ry="151" fill="#fff" stroke="none" stroke-width="1"/></clipPath></defs><rect width="720" height="540" fill="url(#wood)"/><path d="M0 80.6Q340 91.1 720 89.7" fill="none" stroke="#f5c68b" stroke-width="0.8" opacity=".09" stroke-linejoin="round" stroke-linecap="round"/><path d="M0 124.6Q340 138.2 720 134.2" fill="none" stroke="#f5c68b" stroke-width="0.8" opacity=".09" stroke-linejoin="round" stroke-linecap="round"/><path d="M0 175.4Q340 189.2 720 180.8" fill="none" stroke="#f5c68b" stroke-width="0.8" opacity=".09" stroke-linejoin="round" stroke-linecap="round"/><path d="M0 229.2Q340 245.6 720 239.0" fill="none" stroke="#f5c68b" stroke-width="0.8" opacity=".09" stroke-linejoin="round" stroke-linecap="round"/><path d="M0 296.2Q340 313.3 720 308.8" fill="none" stroke="#f5c68b" stroke-width="0.8" opacity=".09" stroke-linejoin="round" stroke-linecap="round"/><path d="M0 357.2Q340 362.8 720 357.9" fill="none" stroke="#f5c68b" stroke-width="0.8" opacity=".09" stroke-linejoin="round" stroke-linecap="round"/><path d="M0 390.8Q340 401.0 720 406.1" fill="none" stroke="#f5c68b" stroke-width="0.8" opacity=".09" stroke-linejoin="round" stroke-linecap="round"/><path d="M0 458.3Q340 461.2 720 472.5" fill="none" stroke="#f5c68b" stroke-width="0.8" opacity=".09" stroke-linejoin="round" stroke-linecap="round"/><path d="M0 498.4Q340 499.8 720 506.6" fill="none" stroke="#f5c68b" stroke-width="0.8" opacity=".09" stroke-linejoin="round" stroke-linecap="round"/><ellipse cx="360.0" cy="457.0" rx="291" ry="36" fill="#090909" stroke="none" stroke-width="1"/><ellipse cx="360.0" cy="278.0" rx="262" ry="172" fill="url(#edge)" stroke="#f6d8a6" stroke-width="7"/><ellipse cx="360.0" cy="278.0" rx="241" ry="154" fill="#2f1b13" stroke="#e8ba8b" stroke-width="7"/><ellipse cx="360.0" cy="278.0" rx="239" ry="151" fill="url(#dish)" stroke="none" stroke-width="1"/><g clip-path="url(#crop)"><path d="M284.4 295.8Q277.0 266.4 299.1 266.4T313.8 295.8T324.9 281.1" fill="none" stroke="#6f3a22" stroke-width="13" stroke-linejoin="round" stroke-linecap="round"/><path d="M284.4 295.8Q277.0 266.4 299.1 266.4T313.8 295.8T324.9 281.1" fill="none" stroke="#e79a47" stroke-width="8" stroke-linejoin="round" stroke-linecap="round"/><path d="M413.6 390.6Q408.6 362.7 423.7 362.7T433.7 390.6T441.3 376.7" fill="none" stroke="#6f3a22" stroke-width="13" stroke-linejoin="round" stroke-linecap="round"/><path d="M413.6 390.6Q408.6 362.7 423.7 362.7T433.7 390.6T441.3 376.7" fill="none" stroke="#e79a47" stroke-width="8" stroke-linejoin="round" stroke-linecap="round"/><path d="M446.6 261.7Q436.7 241.4 466.3 241.4T486.1 261.7T500.9 251.5" fill="none" stroke="#6f3a22" stroke-width="13" stroke-linejoin="round" stroke-linecap="round"/><path d="M446.6 261.7Q436.7 241.4 466.3 241.4T486.1 261.7T500.9 251.5" fill="none" stroke="#e79a47" stroke-width="8" stroke-linejoin="round" stroke-linecap="round"/><path d="M331.9 274.4Q319.3 263.5 357.0 263.5T382.2 274.4T401.1 269.0" fill="none" stroke="#6f3a22" stroke-width="13" stroke-linejoin="round" stroke-linecap="round"/><path d="M331.9 274.4Q319.3 263.5 357.0 263.5T382.2 274.4T401.1 269.0" fill="none" stroke="#e79a47" stroke-width="8" stroke-linejoin="round" stroke-linecap="round"/><path d="M447.0 286.2Q433.2 252.8 474.5 252.8T502.1 286.2T522.7 269.5" fill="none" stroke="#6f3a22" stroke-width="13" stroke-linejoin="round" stroke-linecap="round"/><path d="M447.0 286.2Q433.2 252.8 474.5 252.8T502.1 286.2T522.7 269.5" fill="none" stroke="#e79a47" stroke-width="8" stroke-linejoin="round" stroke-linecap="round"/><path d="M487.5 220.6Q474.2 192.0 514.1 192.0T540.6 220.6T560.5 206.3" fill="none" stroke="#6f3a22" stroke-width="13" stroke-linejoin="round" stroke-linecap="round"/><path d="M487.5 220.6Q474.2 192.0 514.1 192.0T540.6 220.6T560.5 206.3" fill="none" stroke="#e79a47" stroke-width="8" stroke-linejoin="round" stroke-linecap="round"/><path d="M297.9 172.7Q289.8 152.5 314.1 152.5T330.4 172.7T342.5 162.6" fill="none" stroke="#6f3a22" stroke-width="13" stroke-linejoin="round" stroke-linecap="round"/><path d="M297.9 172.7Q289.8 152.5 314.1 152.5T330.4 172.7T342.5 162.6" fill="none" stroke="#e79a47" stroke-width="8" stroke-linejoin="round" stroke-linecap="round"/><path d="M273.7 189.4Q267.7 161.2 285.7 161.2T297.6 189.4T306.6 175.3" fill="none" stroke="#6f3a22" stroke-width="13" stroke-linejoin="round" stroke-linecap="round"/><path d="M273.7 189.4Q267.7 161.2 285.7 161.2T297.6 189.4T306.6 175.3" fill="none" stroke="#e79a47" stroke-width="8" stroke-linejoin="round" stroke-linecap="round"/><path d="M244.4 360.2Q238.3 334.4 256.7 334.4T269.0 360.2T278.1 347.3" fill="none" stroke="#6f3a22" stroke-width="13" stroke-linejoin="round" stroke-linecap="round"/><path d="M244.4 360.2Q238.3 334.4 256.7 334.4T269.0 360.2T278.1 347.3" fill="none" stroke="#e79a47" stroke-width="8" stroke-linejoin="round" stroke-linecap="round"/><path d="M303.6 221.7Q297.5 201.7 315.8 201.7T327.9 221.7T337.1 211.7" fill="none" stroke="#6f3a22" stroke-width="13" stroke-linejoin="round" stroke-linecap="round"/><path d="M303.6 221.7Q297.5 201.7 315.8 201.7T327.9 221.7T337.1 211.7" fill="none" stroke="#e79a47" stroke-width="8" stroke-linejoin="round" stroke-linecap="round"/><path d="M456.9 204.2Q441.9 177.3 487.0 177.3T517.0 204.2T539.5 190.7" fill="none" stroke="#6f3a22" stroke-width="13" stroke-linejoin="round" stroke-linecap="round"/><path d="M456.9 204.2Q441.9 177.3 487.0 177.3T517.0 204.2T539.5 190.7" fill="none" stroke="#e79a47" stroke-width="8" stroke-linejoin="round" stroke-linecap="round"/><path d="M457.3 193.0Q446.0 159.3 479.9 159.3T502.6 193.0T519.6 176.1" fill="none" stroke="#6f3a22" stroke-width="13" stroke-linejoin="round" stroke-linecap="round"/><path d="M457.3 193.0Q446.0 159.3 479.9 159.3T502.6 193.0T519.6 176.1" fill="none" stroke="#e79a47" stroke-width="8" stroke-linejoin="round" stroke-linecap="round"/><path d="M457.7 222.0Q442.7 202.0 487.8 202.0T517.8 222.0T540.4 212.0" fill="none" stroke="#6f3a22" stroke-width="13" stroke-linejoin="round" stroke-linecap="round"/><path d="M457.7 222.0Q442.7 202.0 487.8 202.0T517.8 222.0T540.4 212.0" fill="none" stroke="#e79a47" stroke-width="8" stroke-linejoin="round" stroke-linecap="round"/><path d="M473.5 224.0Q462.2 212.3 496.3 212.3T519.1 224.0T536.1 218.2" fill="none" stroke="#6f3a22" stroke-width="13" stroke-linejoin="round" stroke-linecap="round"/><path d="M473.5 224.0Q462.2 212.3 496.3 212.3T519.1 224.0T536.1 218.2" fill="none" stroke="#e79a47" stroke-width="8" stroke-linejoin="round" stroke-linecap="round"/><path d="M326.5 257.2Q321.1 238.2 337.3 238.2T348.0 257.2T356.1 247.7" fill="none" stroke="#6f3a22" stroke-width="13" stroke-linejoin="round" stroke-linecap="round"/><path d="M326.5 257.2Q321.1 238.2 337.3 238.2T348.0 257.2T356.1 247.7" fill="none" stroke="#e79a47" stroke-width="8" stroke-linejoin="round" stroke-linecap="round"/><path d="M275.4 369.5Q268.5 341.0 289.2 341.0T303.0 369.5T313.4 355.3" fill="none" stroke="#6f3a22" stroke-width="13" stroke-linejoin="round" stroke-linecap="round"/><path d="M275.4 369.5Q268.5 341.0 289.2 341.0T303.0 369.5T313.4 355.3" fill="none" stroke="#e79a47" stroke-width="8" stroke-linejoin="round" stroke-linecap="round"/><path d="M291.5 338.9Q278.0 323.2 318.6 323.2T345.7 338.9T366.0 331.1" fill="none" stroke="#6f3a22" stroke-width="13" stroke-linejoin="round" stroke-linecap="round"/><path d="M291.5 338.9Q278.0 323.2 318.6 323.2T345.7 338.9T366.0 331.1" fill="none" stroke="#e79a47" stroke-width="8" stroke-linejoin="round" stroke-linecap="round"/><path d="M435.4 306.2Q420.5 274.2 465.0 274.2T494.6 306.2T516.9 290.2" fill="none" stroke="#6f3a22" stroke-width="13" stroke-linejoin="round" stroke-linecap="round"/><path d="M435.4 306.2Q420.5 274.2 465.0 274.2T494.6 306.2T516.9 290.2" fill="none" stroke="#e79a47" stroke-width="8" stroke-linejoin="round" stroke-linecap="round"/><path d="M261.6 252.0Q251.3 218.4 282.4 218.4T303.1 252.0T318.6 235.2" fill="none" stroke="#6f3a22" stroke-width="13" stroke-linejoin="round" stroke-linecap="round"/><path d="M261.6 252.0Q251.3 218.4 282.4 218.4T303.1 252.0T318.6 235.2" fill="none" stroke="#e79a47" stroke-width="8" stroke-linejoin="round" stroke-linecap="round"/><path d="M352.9 374.6Q338.9 361.0 380.8 361.0T408.7 374.6T429.7 367.8" fill="none" stroke="#6f3a22" stroke-width="13" stroke-linejoin="round" stroke-linecap="round"/><path d="M352.9 374.6Q338.9 361.0 380.8 361.0T408.7 374.6T429.7 367.8" fill="none" stroke="#e79a47" stroke-width="8" stroke-linejoin="round" stroke-linecap="round"/><path d="M187.1 162.7Q180.0 149.5 201.1 149.5T215.2 162.7T225.8 156.1" fill="none" stroke="#6f3a22" stroke-width="13" stroke-linejoin="round" stroke-linecap="round"/><path d="M187.1 162.7Q180.0 149.5 201.1 149.5T215.2 162.7T225.8 156.1" fill="none" stroke="#e79a47" stroke-width="8" stroke-linejoin="round" stroke-linecap="round"/><path d="M255.1 302.2Q240.0 289.3 285.4 289.3T315.7 302.2T338.4 295.7" fill="none" stroke="#6f3a22" stroke-width="13" stroke-linejoin="round" stroke-linecap="round"/><path d="M255.1 302.2Q240.0 289.3 285.4 289.3T315.7 302.2T338.4 295.7" fill="none" stroke="#e79a47" stroke-width="8" stroke-linejoin="round" stroke-linecap="round"/><path d="M453.2 295.8Q441.3 271.2 477.0 271.2T500.8 295.8T518.6 283.5" fill="none" stroke="#6f3a22" stroke-width="13" stroke-linejoin="round" stroke-linecap="round"/><path d="M453.2 295.8Q441.3 271.2 477.0 271.2T500.8 295.8T518.6 283.5" fill="none" stroke="#e79a47" stroke-width="8" stroke-linejoin="round" stroke-linecap="round"/><path d="M304.8 369.7Q290.9 338.7 332.7 338.7T360.6 369.7T381.6 354.2" fill="none" stroke="#6f3a22" stroke-width="13" stroke-linejoin="round" stroke-linecap="round"/><path d="M304.8 369.7Q290.9 338.7 332.7 338.7T360.6 369.7T381.6 354.2" fill="none" stroke="#e79a47" stroke-width="8" stroke-linejoin="round" stroke-linecap="round"/><path d="M184.9 175.8Q176.8 148.3 201.0 148.3T217.1 175.8T229.2 162.1" fill="none" stroke="#6f3a22" stroke-width="13" stroke-linejoin="round" stroke-linecap="round"/><path d="M184.9 175.8Q176.8 148.3 201.0 148.3T217.1 175.8T229.2 162.1" fill="none" stroke="#e79a47" stroke-width="8" stroke-linejoin="round" stroke-linecap="round"/><path d="M406.9 376.2Q396.4 363.8 427.9 363.8T448.9 376.2T464.7 370.0" fill="none" stroke="#6f3a22" stroke-width="13" stroke-linejoin="round" stroke-linecap="round"/><path d="M406.9 376.2Q396.4 363.8 427.9 363.8T448.9 376.2T464.7 370.0" fill="none" stroke="#e79a47" stroke-width="8" stroke-linejoin="round" stroke-linecap="round"/><path d="M186.8 332.5Q177.3 298.8 205.7 298.8T224.6 332.5T238.8 315.6" fill="none" stroke="#6f3a22" stroke-width="13" stroke-linejoin="round" stroke-linecap="round"/><path d="M186.8 332.5Q177.3 298.8 205.7 298.8T224.6 332.5T238.8 315.6" fill="none" stroke="#e79a47" stroke-width="8" stroke-linejoin="round" stroke-linecap="round"/><path d="M154.9 290.4Q139.4 268.3 185.8 268.3T216.7 290.4T239.9 279.3" fill="none" stroke="#6f3a22" stroke-width="13" stroke-linejoin="round" stroke-linecap="round"/><path d="M154.9 290.4Q139.4 268.3 185.8 268.3T216.7 290.4T239.9 279.3" fill="none" stroke="#e79a47" stroke-width="8" stroke-linejoin="round" stroke-linecap="round"/><path d="M447.6 299.4Q436.5 273.0 469.9 273.0T492.1 299.4T508.8 286.2" fill="none" stroke="#6f3a22" stroke-width="13" stroke-linejoin="round" stroke-linecap="round"/><path d="M447.6 299.4Q436.5 273.0 469.9 273.0T492.1 299.4T508.8 286.2" fill="none" stroke="#e79a47" stroke-width="8" stroke-linejoin="round" stroke-linecap="round"/><path d="M426.3 265.7Q418.4 244.0 442.0 244.0T457.8 265.7T469.6 254.8" fill="none" stroke="#6f3a22" stroke-width="13" stroke-linejoin="round" stroke-linecap="round"/><path d="M426.3 265.7Q418.4 244.0 442.0 244.0T457.8 265.7T469.6 254.8" fill="none" stroke="#e79a47" stroke-width="8" stroke-linejoin="round" stroke-linecap="round"/><path d="M502.7 298.0Q496.2 275.3 515.6 275.3T528.5 298.0T538.1 286.6" fill="none" stroke="#6f3a22" stroke-width="13" stroke-linejoin="round" stroke-linecap="round"/><path d="M502.7 298.0Q496.2 275.3 515.6 275.3T528.5 298.0T538.1 286.6" fill="none" stroke="#e79a47" stroke-width="8" stroke-linejoin="round" stroke-linecap="round"/><path d="M184.5 183.8Q178.5 159.4 196.5 159.4T208.5 183.8T217.5 171.6" fill="none" stroke="#6f3a22" stroke-width="13" stroke-linejoin="round" stroke-linecap="round"/><path d="M184.5 183.8Q178.5 159.4 196.5 159.4T208.5 183.8T217.5 171.6" fill="none" stroke="#e79a47" stroke-width="8" stroke-linejoin="round" stroke-linecap="round"/><path d="M250.9 178.0Q237.3 156.5 278.1 156.5T305.4 178.0T325.8 167.3" fill="none" stroke="#6f3a22" stroke-width="13" stroke-linejoin="round" stroke-linecap="round"/><path d="M250.9 178.0Q237.3 156.5 278.1 156.5T305.4 178.0T325.8 167.3" fill="none" stroke="#e79a47" stroke-width="8" stroke-linejoin="round" stroke-linecap="round"/><path d="M490.6 227.9Q481.3 197.2 509.2 197.2T527.8 227.9T541.7 212.5" fill="none" stroke="#6f3a22" stroke-width="13" stroke-linejoin="round" stroke-linecap="round"/><path d="M490.6 227.9Q481.3 197.2 509.2 197.2T527.8 227.9T541.7 212.5" fill="none" stroke="#e79a47" stroke-width="8" stroke-linejoin="round" stroke-linecap="round"/><path d="M352.3 206.3Q344.2 188.3 368.4 188.3T384.4 206.3T396.5 197.3" fill="none" stroke="#6f3a22" stroke-width="13" stroke-linejoin="round" stroke-linecap="round"/><path d="M352.3 206.3Q344.2 188.3 368.4 188.3T384.4 206.3T396.5 197.3" fill="none" stroke="#e79a47" stroke-width="8" stroke-linejoin="round" stroke-linecap="round"/><path d="M214.4 377.1Q207.0 347.0 229.1 347.0T243.8 377.1T254.9 362.1" fill="none" stroke="#6f3a22" stroke-width="13" stroke-linejoin="round" stroke-linecap="round"/><path d="M214.4 377.1Q207.0 347.0 229.1 347.0T243.8 377.1T254.9 362.1" fill="none" stroke="#e79a47" stroke-width="8" stroke-linejoin="round" stroke-linecap="round"/><path d="M260.1 300.2Q246.6 268.4 287.3 268.4T314.4 300.2T334.8 284.3" fill="none" stroke="#6f3a22" stroke-width="13" stroke-linejoin="round" stroke-linecap="round"/><path d="M260.1 300.2Q246.6 268.4 287.3 268.4T314.4 300.2T334.8 284.3" fill="none" stroke="#e79a47" stroke-width="8" stroke-linejoin="round" stroke-linecap="round"/><path d="M455.4 374.0Q445.6 355.9 474.9 355.9T494.4 374.0T509.1 365.0" fill="none" stroke="#6f3a22" stroke-width="13" stroke-linejoin="round" stroke-linecap="round"/><path d="M455.4 374.0Q445.6 355.9 474.9 355.9T494.4 374.0T509.1 365.0" fill="none" stroke="#e79a47" stroke-width="8" stroke-linejoin="round" stroke-linecap="round"/><path d="M338.3 344.4Q330.8 322.8 353.4 322.8T368.4 344.4T379.7 333.6" fill="none" stroke="#6f3a22" stroke-width="13" stroke-linejoin="round" stroke-linecap="round"/><path d="M338.3 344.4Q330.8 322.8 353.4 322.8T368.4 344.4T379.7 333.6" fill="none" stroke="#e79a47" stroke-width="8" stroke-linejoin="round" stroke-linecap="round"/><g transform="translate(603.6 287.5) rotate(14) scale(1.0)"><path d="M-21-18L10-12L19 21Z" fill="#dc3b32" stroke="#f3aa70" stroke-width="3" stroke-linejoin="round" stroke-linecap="round"/></g><g transform="translate(391.5 346.5) rotate(-10) scale(0.7)"><path d="M-21-18L10-12L19 21Z" fill="#dc3b32" stroke="#f3aa70" stroke-width="3" stroke-linejoin="round" stroke-linecap="round"/></g><g transform="translate(289.4 390.6) rotate(-22) scale(0.7)"><path d="M-21-18L10-12L19 21Z" fill="#dc3b32" stroke="#f3aa70" stroke-width="3" stroke-linejoin="round" stroke-linecap="round"/></g><g transform="translate(288.1 294.2) rotate(9) scale(0.7)"><path d="M-21-18L10-12L19 21Z" fill="#dc3b32" stroke="#f3aa70" stroke-width="3" stroke-linejoin="round" stroke-linecap="round"/></g><g transform="translate(198.3 200.3) rotate(-36) scale(0.9)"><path d="M-21-18L10-12L19 21Z" fill="#dc3b32" stroke="#f3aa70" stroke-width="3" stroke-linejoin="round" stroke-linecap="round"/></g><g transform="translate(362.8 168.7) rotate(-40) scale(0.9)"><path d="M-21-18L10-12L19 21Z" fill="#dc3b32" stroke="#f3aa70" stroke-width="3" stroke-linejoin="round" stroke-linecap="round"/></g><g transform="translate(475.2 203.2) rotate(6) scale(0.8)"><path d="M-21-18L10-12L19 21Z" fill="#dc3b32" stroke="#f3aa70" stroke-width="3" stroke-linejoin="round" stroke-linecap="round"/></g><path d="M370.8 332.8q9 11 22 4" fill="none" stroke="#edb24c" stroke-width="5" stroke-linejoin="round" stroke-linecap="round"/><path d="M448.0 315.1q9 11 22 4" fill="none" stroke="#edb24c" stroke-width="5" stroke-linejoin="round" stroke-linecap="round"/><path d="M316.3 310.7q9 11 22 4" fill="none" stroke="#edb24c" stroke-width="5" stroke-linejoin="round" stroke-linecap="round"/><path d="M452.5 347.8q9 11 22 4" fill="none" stroke="#edb24c" stroke-width="5" stroke-linejoin="round" stroke-linecap="round"/></g><ellipse cx="360.0" cy="278.0" rx="245" ry="157" fill="none" stroke="#ffecbd" stroke-width="4"/><path d="M112 444Q356 494 604 443" fill="none" stroke="#fff2d2" stroke-opacity=".10" stroke-width="3"/></svg>