<svg xmlns="http://www.w3.org/2000/svg" viewBox="0 0 720 540" width="720" height="540" role="img" aria-label="Горошек на экзамене"><defs><radialGradient id="bg"><stop stop-color="#49301e"/><stop offset="1" stop-color="#170f0d"/></radialGradient><linearGradient id="plate"><stop stop-color="#fbd698"/><stop offset=".55" stop-color="#7f4228"/><stop offset="1" stop-color="#442322"/></linearGradient><clipPath id="food"><ellipse cx="360" cy="276" rx="228" ry="143"/></clipPath></defs><rect width="720" height="540" fill="url(#bg)"/><ellipse cx="360" cy="464" rx="270" ry="40" fill="#0c0706" opacity=".6"/><ellipse cx="360" cy="275" rx="267" ry="179" fill="url(#plate)" stroke="#c88e56" stroke-width="8"/><ellipse cx="360" cy="276" rx="241" ry="155" fill="#c48a42" stroke="#f3d298" stroke-width="10"/><g clip-path="url(#food)"><path d="M177.7 167.0q112.0 -25 168.0 0t168.0 0" stroke="#734322" stroke-width="13" fill="none" opacity=".75"/><path d="M177.7 164.0q112.0 -25 168.0 0t168.0 0" stroke="#ffe09b" stroke-width="7" fill="none" stroke-linecap="round"/><path d="M171.6 181.5q129.4 -25 194.1 0t194.1 0" stroke="#734322" stroke-width="13" fill="none" opacity=".75"/><path d="M171.6 178.5q129.4 -25 194.1 0t194.1 0" stroke="#ffc25f" stroke-width="7" fill="none" stroke-linecap="round"/><path d="M191.2 182.8q104.7 -25 157.1 0t157.1 0" stroke="#734322" stroke-width="13" fill="none" opacity=".75"/><path d="M191.2 179.8q104.7 -25 157.1 0t157.1 0" stroke="#ffc25f" stroke-width="7" fill="none" stroke-linecap="round"/><path d="M162.9 174.7q133.8 -25 200.7 0t200.7 0" stroke="#734322" stroke-width="13" fill="none" opacity=".75"/><path d="M162.9 171.7q133.8 -25 200.7 0t200.7 0" stroke="#ffe09b" stroke-width="7" fill="none" stroke-linecap="round"/><path d="M217.8 172.8q120.3 -25 180.4 0t180.4 0" stroke="#734322" stroke-width="13" fill="none" opacity=".75"/><path d="M217.8 169.8q120.3 -25 180.4 0t180.4 0" stroke="#ffc25f" stroke-width="7" fill="none" stroke-linecap="round"/><path d="M216.0 184.9q120.3 -25 180.4 0t180.4 0" stroke="#734322" stroke-width="13" fill="none" opacity=".75"/><path d="M216.0 181.9q120.3 -25 180.4 0t180.4 0" stroke="#ffc25f" stroke-width="7" fill="none" stroke-linecap="round"/><path d="M203.6 200.9q116.0 -25 173.9 0t173.9 0" stroke="#734322" stroke-width="13" fill="none" opacity=".75"/><path d="M203.6 197.9q116.0 -25 173.9 0t173.9 0" stroke="#ffe09b" stroke-width="7" fill="none" stroke-linecap="round"/><path d="M221.6 205.8q132.8 -25 199.2 0t199.2 0" stroke="#734322" stroke-width="13" fill="none" opacity=".75"/><path d="M221.6 202.8q132.8 -25 199.2 0t199.2 0" stroke="#ffc25f" stroke-width="7" fill="none" stroke-linecap="round"/><path d="M206.3 198.7q104.7 -25 157.1 0t157.1 0" stroke="#734322" stroke-width="13" fill="none" opacity=".75"/><path d="M206.3 195.7q104.7 -25 157.1 0t157.1 0" stroke="#ffc25f" stroke-width="7" fill="none" stroke-linecap="round"/><path d="M172.4 194.0q118.4 -25 177.5 0t177.5 0" stroke="#734322" stroke-width="13" fill="none" opacity=".75"/><path d="M172.4 191.0q118.4 -25 177.5 0t177.5 0" stroke="#ffe09b" stroke-width="7" fill="none" stroke-linecap="round"/><path d="M216.6 203.1q117.9 -25 176.8 0t176.8 0" stroke="#734322" stroke-width="13" fill="none" opacity=".75"/><path d="M216.6 200.1q117.9 -25 176.8 0t176.8 0" stroke="#ffc25f" stroke-width="7" fill="none" stroke-linecap="round"/><path d="M204.0 219.7q130.7 -25 196.1 0t196.1 0" stroke="#734322" stroke-width="13" fill="none" opacity=".75"/><path d="M204.0 216.7q130.7 -25 196.1 0t196.1 0" stroke="#ffc25f" stroke-width="7" fill="none" stroke-linecap="round"/><path d="M153.3 228.0q125.6 -25 188.4 0t188.4 0" stroke="#734322" stroke-width="13" fill="none" opacity=".75"/><path d="M153.3 225.0q125.6 -25 188.4 0t188.4 0" stroke="#ffe09b" stroke-width="7" fill="none" stroke-linecap="round"/><path d="M193.5 222.8q109.4 -25 164.0 0t164.0 0" stroke="#734322" stroke-width="13" fill="none" opacity=".75"/><path d="M193.5 219.8q109.4 -25 164.0 0t164.0 0" stroke="#ffc25f" stroke-width="7" fill="none" stroke-linecap="round"/><path d="M187.2 216.0q123.2 -25 184.8 0t184.8 0" stroke="#734322" stroke-width="13" fill="none" opacity=".75"/><path d="M187.2 213.0q123.2 -25 184.8 0t184.8 0" stroke="#ffc25f" stroke-width="7" fill="none" stroke-linecap="round"/><path d="M199.5 221.7q122.5 -25 183.8 0t183.8 0" stroke="#734322" stroke-width="13" fill="none" opacity=".75"/><path d="M199.5 218.7q122.5 -25 183.8 0t183.8 0" stroke="#ffe09b" stroke-width="7" fill="none" stroke-linecap="round"/><path d="M164.7 238.0q121.0 -25 181.5 0t181.5 0" stroke="#734322" stroke-width="13" fill="none" opacity=".75"/><path d="M164.7 235.0q121.0 -25 181.5 0t181.5 0" stroke="#ffc25f" stroke-width="7" fill="none" stroke-linecap="round"/><path d="M172.9 249.4q103.4 -25 155.1 0t155.1 0" stroke="#734322" stroke-width="13" fill="none" opacity=".75"/><path d="M172.9 246.4q103.4 -25 155.1 0t155.1 0" stroke="#ffc25f" stroke-width="7" fill="none" stroke-linecap="round"/><path d="M211.3 246.8q117.5 -25 176.3 0t176.3 0" stroke="#734322" stroke-width="13" fill="none" opacity=".75"/><path d="M211.3 243.8q117.5 -25 176.3 0t176.3 0" stroke="#ffe09b" stroke-width="7" fill="none" stroke-linecap="round"/><path d="M187.5 238.8q134.7 -25 202.0 0t202.0 0" stroke="#734322" stroke-width="13" fill="none" opacity=".75"/><path d="M187.5 235.8q134.7 -25 202.0 0t202.0 0" stroke="#ffc25f" stroke-width="7" fill="none" stroke-linecap="round"/><path d="M201.3 241.0q106.4 -25 159.6 0t159.6 0" stroke="#734322" stroke-width="13" fill="none" opacity=".75"/><path d="M201.3 238.0q106.4 -25 159.6 0t159.6 0" stroke="#ffc25f" stroke-width="7" fill="none" stroke-linecap="round"/><path d="M215.3 255.9q108.1 -25 162.1 0t162.1 0" stroke="#734322" stroke-width="13" fill="none" opacity=".75"/><path d="M215.3 252.9q108.1 -25 162.1 0t162.1 0" stroke="#ffe09b" stroke-width="7" fill="none" stroke-linecap="round"/><path d="M207.2 269.9q103.8 -25 155.7 0t155.7 0" stroke="#734322" stroke-width="13" fill="none" opacity=".75"/><path d="M207.2 266.9q103.8 -25 155.7 0t155.7 0" stroke="#ffc25f" stroke-width="7" fill="none" stroke-linecap="round"/><path d="M168.9 270.5q125.8 -25 188.7 0t188.7 0" stroke="#734322" stroke-width="13" fill="none" opacity=".75"/><path d="M168.9 267.5q125.8 -25 188.7 0t188.7 0" stroke="#ffc25f" stroke-width="7" fill="none" stroke-linecap="round"/><path d="M211.7 262.3q119.6 -25 179.4 0t179.4 0" stroke="#734322" stroke-width="13" fill="none" opacity=".75"/><path d="M211.7 259.3q119.6 -25 179.4 0t179.4 0" stroke="#ffe09b" stroke-width="7" fill="none" stroke-linecap="round"/><path d="M183.5 261.1q122.3 -25 183.4 0t183.4 0" stroke="#734322" stroke-width="13" fill="none" opacity=".75"/><path d="M183.5 258.1q122.3 -25 183.4 0t183.4 0" stroke="#ffc25f" stroke-width="7" fill="none" stroke-linecap="round"/><path d="M180.9 273.8q113.0 -25 169.5 0t169.5 0" stroke="#734322" stroke-width="13" fill="none" opacity=".75"/><path d="M180.9 270.8q113.0 -25 169.5 0t169.5 0" stroke="#ffc25f" stroke-width="7" fill="none" stroke-linecap="round"/><path d="M213.4 289.6q128.3 -25 192.4 0t192.4 0" stroke="#734322" stroke-width="13" fill="none" opacity=".75"/><path d="M213.4 286.6q128.3 -25 192.4 0t192.4 0" stroke="#ffe09b" stroke-width="7" fill="none" stroke-linecap="round"/><path d="M215.3 293.6q131.6 -25 197.5 0t197.5 0" stroke="#734322" stroke-width="13" fill="none" opacity=".75"/><path d="M215.3 290.6q131.6 -25 197.5 0t197.5 0" stroke="#ffc25f" stroke-width="7" fill="none" stroke-linecap="round"/><path d="M211.8 286.2q113.9 -25 170.8 0t170.8 0" stroke="#734322" stroke-width="13" fill="none" opacity=".75"/><path d="M211.8 283.2q113.9 -25 170.8 0t170.8 0" stroke="#ffc25f" stroke-width="7" fill="none" stroke-linecap="round"/><path d="M163.3 282.1q106.6 -25 159.8 0t159.8 0" stroke="#734322" stroke-width="13" fill="none" opacity=".75"/><path d="M163.3 279.1q106.6 -25 159.8 0t159.8 0" stroke="#ffe09b" stroke-width="7" fill="none" stroke-linecap="round"/><path d="M214.1 291.9q117.3 -25 176.0 0t176.0 0" stroke="#734322" stroke-width="13" fill="none" opacity=".75"/><path d="M214.1 288.9q117.3 -25 176.0 0t176.0 0" stroke="#ffc25f" stroke-width="7" fill="none" stroke-linecap="round"/><path d="M198.3 308.5q106.3 -25 159.4 0t159.4 0" stroke="#734322" stroke-width="13" fill="none" opacity=".75"/><path d="M198.3 305.5q106.3 -25 159.4 0t159.4 0" stroke="#ffc25f" stroke-width="7" fill="none" stroke-linecap="round"/><path d="M156.7 316.0q128.2 -25 192.3 0t192.3 0" stroke="#734322" stroke-width="13" fill="none" opacity=".75"/><path d="M156.7 313.0q128.2 -25 192.3 0t192.3 0" stroke="#ffe09b" stroke-width="7" fill="none" stroke-linecap="round"/><path d="M169.4 310.2q101.5 -25 152.3 0t152.3 0" stroke="#734322" stroke-width="13" fill="none" opacity=".75"/><path d="M169.4 307.2q101.5 -25 152.3 0t152.3 0" stroke="#ffc25f" stroke-width="7" fill="none" stroke-linecap="round"/><path d="M189.2 303.9q120.2 -25 180.3 0t180.3 0" stroke="#734322" stroke-width="13" fill="none" opacity=".75"/><path d="M189.2 300.9q120.2 -25 180.3 0t180.3 0" stroke="#ffc25f" stroke-width="7" fill="none" stroke-linecap="round"/><path d="M171.4 310.4q135.3 -25 202.9 0t202.9 0" stroke="#734322" stroke-width="13" fill="none" opacity=".75"/><path d="M171.4 307.4q135.3 -25 202.9 0t202.9 0" stroke="#ffe09b" stroke-width="7" fill="none" stroke-linecap="round"/><path d="M154.2 326.9q123.4 -25 185.1 0t185.1 0" stroke="#734322" stroke-width="13" fill="none" opacity=".75"/><path d="M154.2 323.9q123.4 -25 185.1 0t185.1 0" stroke="#ffc25f" stroke-width="7" fill="none" stroke-linecap="round"/><path d="M179.3 337.6q114.4 -25 171.6 0t171.6 0" stroke="#734322" stroke-width="13" fill="none" opacity=".75"/><path d="M179.3 334.6q114.4 -25 171.6 0t171.6 0" stroke="#ffc25f" stroke-width="7" fill="none" stroke-linecap="round"/><path d="M219.9 334.3q126.5 -25 189.8 0t189.8 0" stroke="#734322" stroke-width="13" fill="none" opacity=".75"/><path d="M219.9 331.3q126.5 -25 189.8 0t189.8 0" stroke="#ffe09b" stroke-width="7" fill="none" stroke-linecap="round"/><path d="M178.9 326.5q136.1 -25 204.1 0t204.1 0" stroke="#734322" stroke-width="13" fill="none" opacity=".75"/><path d="M178.9 323.5q136.1 -25 204.1 0t204.1 0" stroke="#ffc25f" stroke-width="7" fill="none" stroke-linecap="round"/><path d="M183.8 329.6q120.5 -25 180.8 0t180.8 0" stroke="#734322" stroke-width="13" fill="none" opacity=".75"/><path d="M183.8 326.6q120.5 -25 180.8 0t180.8 0" stroke="#ffc25f" stroke-width="7" fill="none" stroke-linecap="round"/><path d="M211.3 344.9q107.3 -25 161.0 0t161.0 0" stroke="#734322" stroke-width="13" fill="none" opacity=".75"/><path d="M211.3 341.9q107.3 -25 161.0 0t161.0 0" stroke="#ffe09b" stroke-width="7" fill="none" stroke-linecap="round"/><path d="M166.4 358.3q129.1 -25 193.7 0t193.7 0" stroke="#734322" stroke-width="13" fill="none" opacity=".75"/><path d="M166.4 355.3q129.1 -25 193.7 0t193.7 0" stroke="#ffc25f" stroke-width="7" fill="none" stroke-linecap="round"/><path d="M190.4 358.1q101.6 -25 152.4 0t152.4 0" stroke="#734322" stroke-width="13" fill="none" opacity=".75"/><path d="M190.4 355.1q101.6 -25 152.4 0t152.4 0" stroke="#ffc25f" stroke-width="7" fill="none" stroke-linecap="round"/><path d="M180.4 349.9q116.5 -25 174.7 0t174.7 0" stroke="#734322" stroke-width="13" fill="none" opacity=".75"/><path d="M180.4 346.9q116.5 -25 174.7 0t174.7 0" stroke="#ffe09b" stroke-width="7" fill="none" stroke-linecap="round"/><path d="M206.0 349.5q120.0 -25 180.0 0t180.0 0" stroke="#734322" stroke-width="13" fill="none" opacity=".75"/><path d="M206.0 346.5q120.0 -25 180.0 0t180.0 0" stroke="#ffc25f" stroke-width="7" fill="none" stroke-linecap="round"/><path d="M208.9 362.8q111.7 -25 167.5 0t167.5 0" stroke="#734322" stroke-width="13" fill="none" opacity=".75"/><path d="M208.9 359.8q111.7 -25 167.5 0t167.5 0" stroke="#ffc25f" stroke-width="7" fill="none" stroke-linecap="round"/><path d="M153.8 378.1q132.4 -25 198.6 0t198.6 0" stroke="#734322" stroke-width="13" fill="none" opacity=".75"/><path d="M153.8 375.1q132.4 -25 198.6 0t198.6 0" stroke="#ffe09b" stroke-width="7" fill="none" stroke-linecap="round"/><path d="M201.5 381.3q128.8 -25 193.2 0t193.2 0" stroke="#734322" stroke-width="13" fill="none" opacity=".75"/><path d="M201.5 378.3q128.8 -25 193.2 0t193.2 0" stroke="#ffc25f" stroke-width="7" fill="none" stroke-linecap="round"/><g transform="translate(249.69563313387334 205.20612401980907) scale(0.7341644448321313)"><ellipse rx="32" ry="24" fill="#fff1ce" stroke="#e5d09e" stroke-width="4"/><circle r="14" fill="#f49a22" stroke="#ffe178" stroke-width="4"/><circle cx="-4" cy="-5" r="4" fill="#ffeab0"/></g><g transform="translate(287.55256902147084 171.14756256900728) scale(1.0312689336691983)"><path d="M-17 3Q-15-23 1-22Q17-21 17 3Z" fill="#b78250" stroke="#f2d5a6" stroke-width="4"/><path d="M-6 1V16H6V1" fill="#e5cb99"/></g><g transform="translate(305.7136787576601 235.61925077438354) scale(1.1152599046565592)"><path d="M-17 3Q-15-23 1-22Q17-21 17 3Z" fill="#b78250" stroke="#f2d5a6" stroke-width="4"/><path d="M-6 1V16H6V1" fill="#e5cb99"/></g><g transform="translate(300.11355121526867 310.6396626923233) scale(0.9362426415993832)"><path d="M-17 3Q-15-23 1-22Q17-21 17 3Z" fill="#b78250" stroke="#f2d5a6" stroke-width="4"/><path d="M-6 1V16H6V1" fill="#e5cb99"/></g><g transform="translate(249.46175096090883 210.48994782939553) scale(1.076452395678498)"><path d="M-17 3Q-15-23 1-22Q17-21 17 3Z" fill="#b78250" stroke="#f2d5a6" stroke-width="4"/><path d="M-6 1V16H6V1" fill="#e5cb99"/></g><g transform="translate(382.65186260361224 175.50505150668323) scale(1.2173609339841642)"><path d="M-17 3Q-15-23 1-22Q17-21 17 3Z" fill="#b78250" stroke="#f2d5a6" stroke-width="4"/><path d="M-6 1V16H6V1" fill="#e5cb99"/></g><g transform="translate(378.028613422066 194.96105025615543) scale(0.9087105762772263)"><path d="M-21-14L23-10 12 19 -22 12Z" fill="#ffdc70" stroke="#fff3ba" stroke-width="3"/><circle cx="3" cy="-2" r="4" fill="#e7a836"/></g><g transform="translate(280.4204248059541 268.9226893344894) scale(0.8654220323055052)"><path d="M-21-14L23-10 12 19 -22 12Z" fill="#ffdc70" stroke="#fff3ba" stroke-width="3"/><circle cx="3" cy="-2" r="4" fill="#e7a836"/></g><g transform="translate(275.6573635786772 205.98572743218392) scale(1.101767503269948)"><path d="M-21-14L23-10 12 19 -22 12Z" fill="#ffdc70" stroke="#fff3ba" stroke-width="3"/><circle cx="3" cy="-2" r="4" fill="#e7a836"/></g><g transform="translate(334.4501554053277 224.10834128130227) scale(0.646824592652265)"><path d="M-21-14L23-10 12 19 -22 12Z" fill="#ffdc70" stroke="#fff3ba" stroke-width="3"/><circle cx="3" cy="-2" r="4" fill="#e7a836"/></g><g transform="translate(446.48480194434524 175.13829215522856) scale(1.0985286937188357)"><path d="M-21-14L23-10 12 19 -22 12Z" fill="#ffdc70" stroke="#fff3ba" stroke-width="3"/><circle cx="3" cy="-2" r="4" fill="#e7a836"/></g><g transform="translate(216.46914304234087 203.2582459980622) scale(0.6673565273615532)"><path d="M-21-14L23-10 12 19 -22 12Z" fill="#ffdc70" stroke="#fff3ba" stroke-width="3"/><circle cx="3" cy="-2" r="4" fill="#e7a836"/></g><g transform="translate(215.19940343685448 323.2676510522142) scale(0.8727642982825637)"><ellipse rx="12" ry="6" fill="#459447" stroke="#b2db77" stroke-width="2"/><path d="M-8 0H8" stroke="#e2f4a8" stroke-width="2"/></g><g transform="translate(429.0985296666622 190.59607108216733) scale(1.1870429666689597)"><ellipse rx="12" ry="6" fill="#459447" stroke="#b2db77" stroke-width="2"/><path d="M-8 0H8" stroke="#e2f4a8" stroke-width="2"/></g><g transform="translate(426.20249099843204 219.7810000376776) scale(0.6875388325052336)"><ellipse rx="12" ry="6" fill="#459447" stroke="#b2db77" stroke-width="2"/><path d="M-8 0H8" stroke="#e2f4a8" stroke-width="2"/></g><g transform="translate(292.5514684729278 283.4250896340236) scale(0.6686199562833645)"><ellipse rx="12" ry="6" fill="#459447" stroke="#b2db77" stroke-width="2"/><path d="M-8 0H8" stroke="#e2f4a8" stroke-width="2"/></g><g transform="translate(254.3424300495535 192.4671779954806) scale(0.9261767495516688)"><ellipse rx="12" ry="6" fill="#459447" stroke="#b2db77" stroke-width="2"/><path d="M-8 0H8" stroke="#e2f4a8" stroke-width="2"/></g><g transform="translate(363.41484075039625 228.02391105424613) scale(1.1974916737969035)"><ellipse rx="12" ry="6" fill="#459447" stroke="#b2db77" stroke-width="2"/><path d="M-8 0H8" stroke="#e2f4a8" stroke-width="2"/></g><g transform="translate(347.78098950348794 216.49094646889716) scale(0.7717709728842601)"><ellipse rx="12" ry="6" fill="#459447" stroke="#b2db77" stroke-width="2"/><path d="M-8 0H8" stroke="#e2f4a8" stroke-width="2"/></g><g transform="translate(509.5090381540358 205.20110334362835) scale(0.87208435542183)"><ellipse rx="12" ry="6" fill="#459447" stroke="#b2db77" stroke-width="2"/><path d="M-8 0H8" stroke="#e2f4a8" stroke-width="2"/></g><g transform="translate(428.52861686237156 189.39385227952152) scale(1.0551527038775386)"><ellipse rx="12" ry="6" fill="#459447" stroke="#b2db77" stroke-width="2"/><path d="M-8 0H8" stroke="#e2f4a8" stroke-width="2"/></g><g transform="translate(351.67021181527525 291.5489686150104) scale(1.2752435753797182)"><ellipse rx="19" ry="10" fill="#549449" stroke="#e8e0aa" stroke-width="2"/><path d="M-14 0L14 0" stroke="#ffffff" opacity=".35" stroke-width="3"/></g><g transform="translate(394.1914374670014 270.5458961389959) scale(1.20575310761109)"><ellipse rx="19" ry="10" fill="#549449" stroke="#e8e0aa" stroke-width="2"/><path d="M-14 0L14 0" stroke="#ffffff" opacity=".35" stroke-width="3"/></g><g transform="translate(395.57281737495214 341.97130978666246) scale(0.7348905318393372)"><ellipse rx="19" ry="10" fill="#549449" stroke="#e8e0aa" stroke-width="2"/><path d="M-14 0L14 0" stroke="#ffffff" opacity=".35" stroke-width="3"/></g><g transform="translate(266.8061216874048 246.19575077295303) scale(1.0559540551016107)"><ellipse rx="19" ry="10" fill="#549449" stroke="#e8e0aa" stroke-width="2"/><path d="M-14 0L14 0" stroke="#ffffff" opacity=".35" stroke-width="3"/></g><g transform="translate(209.98353768978268 235.01487875916064) scale(1.0170121909328738)"><ellipse rx="19" ry="10" fill="#549449" stroke="#e8e0aa" stroke-width="2"/><path d="M-14 0L14 0" stroke="#ffffff" opacity=".35" stroke-width="3"/></g><g transform="translate(348.69216290768236 322.9590192772448) scale(1.2605567238386721)"><ellipse rx="19" ry="10" fill="#549449" stroke="#e8e0aa" stroke-width="2"/><path d="M-14 0L14 0" stroke="#ffffff" opacity=".35" stroke-width="3"/></g><g transform="translate(419.7849020184949 301.06761593930423) scale(1.0741917479294352)"><ellipse rx="19" ry="10" fill="#549449" stroke="#e8e0aa" stroke-width="2"/><path d="M-14 0L14 0" stroke="#ffffff" opacity=".35" stroke-width="3"/></g><g transform="translate(456.0962930191308 243.02635021600872) scale(0.7283109878748656)"><ellipse rx="19" ry="10" fill="#f6a342" stroke="#e8e0aa" stroke-width="2"/><path d="M-14 0L14 0" stroke="#ffffff" opacity=".35" stroke-width="3"/></g><g transform="translate(339.08349834382534 235.01924795191735) scale(1.0905365928984248)"><ellipse rx="19" ry="10" fill="#f6a342" stroke="#e8e0aa" stroke-width="2"/><path d="M-14 0L14 0" stroke="#ffffff" opacity=".35" stroke-width="3"/></g><g transform="translate(476.19916948489845 168.09233987797052) scale(1.165738432747312)"><ellipse rx="19" ry="10" fill="#f6a342" stroke="#e8e0aa" stroke-width="2"/><path d="M-14 0L14 0" stroke="#ffffff" opacity=".35" stroke-width="3"/></g><g transform="translate(385.50403344258666 313.16275372263044) scale(0.8082129016728141)"><ellipse rx="19" ry="10" fill="#f6a342" stroke="#e8e0aa" stroke-width="2"/><path d="M-14 0L14 0" stroke="#ffffff" opacity=".35" stroke-width="3"/></g><g transform="translate(228.56576282717288 338.8548363381997) scale(0.7236011231411249)"><ellipse rx="19" ry="10" fill="#f6a342" stroke="#e8e0aa" stroke-width="2"/><path d="M-14 0L14 0" stroke="#ffffff" opacity=".35" stroke-width="3"/></g><g transform="translate(217.70884615927935 224.23777119349688) scale(1.0529406631807796)"><ellipse rx="19" ry="10" fill="#f6a342" stroke="#e8e0aa" stroke-width="2"/><path d="M-14 0L14 0" stroke="#ffffff" opacity=".35" stroke-width="3"/></g><g transform="translate(410.1879811193794 187.85012213606387) scale(1.2008251696219667)"><ellipse rx="19" ry="10" fill="#f6a342" stroke="#e8e0aa" stroke-width="2"/><path d="M-14 0L14 0" stroke="#ffffff" opacity=".35" stroke-width="3"/></g><g transform="translate(495.2493462152779 258.9024167051539) scale(1.0589091866021045)"><ellipse rx="19" ry="10" fill="#f6a342" stroke="#e8e0aa" stroke-width="2"/><path d="M-14 0L14 0" stroke="#ffffff" opacity=".35" stroke-width="3"/></g><g transform="translate(250.5558250863105 213.7559135267511) scale(0.7072730502672494)"><ellipse rx="19" ry="10" fill="#f6a342" stroke="#e8e0aa" stroke-width="2"/><path d="M-14 0L14 0" stroke="#ffffff" opacity=".35" stroke-width="3"/></g><g transform="translate(385.49404165986925 199.48242782242596) scale(0.780780629136134)"><ellipse rx="19" ry="12" fill="#399251" stroke="#1f6740" stroke-width="4"/><ellipse rx="13" ry="9" fill="#d3dfaa"/></g><g transform="translate(220.72011858131737 193.60831774398685) scale(0.8701570056937635)"><ellipse rx="19" ry="12" fill="#399251" stroke="#1f6740" stroke-width="4"/><ellipse rx="13" ry="9" fill="#d3dfaa"/></g><g transform="translate(215.31596756447107 323.21326427720487) scale(0.6833465940295719)"><ellipse rx="19" ry="12" fill="#399251" stroke="#1f6740" stroke-width="4"/><ellipse rx="13" ry="9" fill="#d3dfaa"/></g><g transform="translate(449.9077047659084 190.69978342950344) scale(0.982871255450882)"><ellipse rx="19" ry="12" fill="#399251" stroke="#1f6740" stroke-width="4"/><ellipse rx="13" ry="9" fill="#d3dfaa"/></g><g transform="translate(446.90918037388474 248.3375872913748) scale(1.0199235617392697)"><ellipse rx="19" ry="12" fill="#399251" stroke="#1f6740" stroke-width="4"/><ellipse rx="13" ry="9" fill="#d3dfaa"/></g><g transform="translate(316.0732099926099 175.65467442944646) scale(0.9100482401531189)"><ellipse rx="19" ry="12" fill="#399251" stroke="#1f6740" stroke-width="4"/><ellipse rx="13" ry="9" fill="#d3dfaa"/></g><g transform="translate(271.25124108511955 173.49254381470382) scale(1.19038505269913)"><ellipse rx="19" ry="12" fill="#399251" stroke="#1f6740" stroke-width="4"/><ellipse rx="13" ry="9" fill="#d3dfaa"/></g><g transform="translate(364.0293411631137 204.84006971213967) scale(1.0143423188338057)"><ellipse rx="18" ry="13" fill="#db4631" stroke="#ff9971" stroke-width="3"/><ellipse rx="9" ry="7" fill="#f5a45b"/></g><g transform="translate(236.28570926189423 284.07972817402333) scale(1.2417010226496497)"><ellipse rx="18" ry="13" fill="#db4631" stroke="#ff9971" stroke-width="3"/><ellipse rx="9" ry="7" fill="#f5a45b"/></g><g transform="translate(468.8990444969386 295.3765009539202) scale(1.1881700902339072)"><ellipse rx="18" ry="13" fill="#db4631" stroke="#ff9971" stroke-width="3"/><ellipse rx="9" ry="7" fill="#f5a45b"/></g><g transform="translate(259.48138154670596 254.69294882472605) scale(0.9128907765704207)"><ellipse rx="18" ry="13" fill="#db4631" stroke="#ff9971" stroke-width="3"/><ellipse rx="9" ry="7" fill="#f5a45b"/></g><g transform="translate(418.16982814110816 233.3706656480208) scale(0.6633150618849323)"><ellipse rx="18" ry="13" fill="#db4631" stroke="#ff9971" stroke-width="3"/><ellipse rx="9" ry="7" fill="#f5a45b"/></g><g transform="translate(464.8593455180526 286.2951419604942) scale(1.0468281991523691)"><ellipse rx="18" ry="13" fill="#db4631" stroke="#ff9971" stroke-width="3"/><ellipse rx="9" ry="7" fill="#f5a45b"/></g><g transform="translate(207.6579943150282 277.6874883202836) scale(1.0006518346816302)"><ellipse rx="19" ry="10" fill="#d93631" stroke="#e8e0aa" stroke-width="2"/><path d="M-14 0L14 0" stroke="#ffffff" opacity=".35" stroke-width="3"/></g><g transform="translate(358.2243523877114 261.2658678935841) scale(0.7885676227486693)"><ellipse rx="19" ry="10" fill="#d93631" stroke="#e8e0aa" stroke-width="2"/><path d="M-14 0L14 0" stroke="#ffffff" opacity=".35" stroke-width="3"/></g><g transform="translate(467.5239210687578 216.01456209179014) scale(0.8656999110104516)"><ellipse rx="19" ry="10" fill="#d93631" stroke="#e8e0aa" stroke-width="2"/><path d="M-14 0L14 0" stroke="#ffffff" opacity=".35" stroke-width="3"/></g><g transform="translate(415.22639323212206 323.94491117540747) scale(0.8378188543231226)"><ellipse rx="19" ry="10" fill="#d93631" stroke="#e8e0aa" stroke-width="2"/><path d="M-14 0L14 0" stroke="#ffffff" opacity=".35" stroke-width="3"/></g><g transform="translate(387.6789319589734 176.99673459958285) scale(0.8219363780785353)"><ellipse rx="19" ry="10" fill="#d93631" stroke="#e8e0aa" stroke-width="2"/><path d="M-14 0L14 0" stroke="#ffffff" opacity=".35" stroke-width="3"/></g><g transform="translate(433.999485662207 318.0648279013112) scale(0.843165356151294)"><ellipse rx="19" ry="10" fill="#d93631" stroke="#e8e0aa" stroke-width="2"/><path d="M-14 0L14 0" stroke="#ffffff" opacity=".35" stroke-width="3"/></g><g transform="translate(307.6048566289246 190.53162413742393) scale(1.0578919149329886)"><ellipse rx="19" ry="10" fill="#d93631" stroke="#e8e0aa" stroke-width="2"/><path d="M-14 0L14 0" stroke="#ffffff" opacity=".35" stroke-width="3"/></g><g transform="translate(437.5245971996337 222.5291644046083) scale(0.6831480151717552)"><ellipse rx="19" ry="10" fill="#d93631" stroke="#e8e0aa" stroke-width="2"/><path d="M-14 0L14 0" stroke="#ffffff" opacity=".35" stroke-width="3"/></g><circle cx="203.65192549675703" cy="294.94713419210166" r="4.370072161476128" fill="#ffcd49" stroke="#ffedb2" stroke-width="2"/><circle cx="414.48075792752206" cy="211.9544995399192" r="3.831801963376347" fill="#ffcd49" stroke="#ffedb2" stroke-width="2"/><circle cx="458.02832466736436" cy="233.33100105728954" r="6.130309925694019" fill="#ffcd49" stroke="#ffedb2" stroke-width="2"/><circle cx="214.3364995289594" cy="263.3850180367008" r="4.0962867480586285" fill="#ffcd49" stroke="#ffedb2" stroke-width="2"/><circle cx="324.2564929872751" cy="232.11924758832902" r="5.916533200000414" fill="#ffcd49" stroke="#ffedb2" stroke-width="2"/><circle cx="365.4144817572087" cy="241.94934019912034" r="3.3919515987974593" fill="#ffcd49" stroke="#ffedb2" stroke-width="2"/><circle cx="496.91081991419196" cy="220.45799671765417" r="4.702209252445027" fill="#ffcd49" stroke="#ffedb2" stroke-width="2"/><circle cx="429.3070307765156" cy="240.32954629603773" r="3.3231469706981445" fill="#ffcd49" stroke="#ffedb2" stroke-width="2"/><circle cx="238.0602475181222" cy="167.4733060700819" r="4.42862224036362" fill="#ffcd49" stroke="#ffedb2" stroke-width="2"/><circle cx="249.88898923061788" cy="295.23855460900813" r="4.1518621666939" fill="#ffcd49" stroke="#ffedb2" stroke-width="2"/><circle cx="373.34712790325284" cy="257.7997324159369" r="4.590237075276673" fill="#ffcd49" stroke="#ffedb2" stroke-width="2"/><circle cx="275.8946205396205" cy="340.49751401040703" r="3.8349458156037146" fill="#ffcd49" stroke="#ffedb2" stroke-width="2"/><circle cx="354.7340493798256" cy="240.40967737417668" r="3.400938684516586" fill="#ffcd49" stroke="#ffedb2" stroke-width="2"/><circle cx="238.38123194687068" cy="307.9452277915552" r="4.181065882660914" fill="#ffcd49" stroke="#ffedb2" stroke-width="2"/><circle cx="435.10613138601184" cy="181.0560143655166" r="4.65555706997402" fill="#ffcd49" stroke="#ffedb2" stroke-width="2"/><circle cx="386.6528418334201" cy="192.56659981422126" r="6.960982495299541" fill="#5dba53" stroke="#c8e387" stroke-width="2"/><circle cx="486.48426975589246" cy="276.62127574533224" r="6.048653561677783" fill="#5dba53" stroke="#c8e387" stroke-width="2"/><circle cx="467.97058903519064" cy="182.97477981634438" r="5.430416807052679" fill="#5dba53" stroke="#c8e387" stroke-width="2"/><circle cx="479.1425960799679" cy="249.6352779828012" r="4.496424455204979" fill="#5dba53" stroke="#c8e387" stroke-width="2"/><circle cx="383.8344005541876" cy="175.49490169249475" r="3.9769651610730214" fill="#5dba53" stroke="#c8e387" stroke-width="2"/><circle cx="436.7738413317129" cy="295.4912240207195" r="4.395400165356696" fill="#5dba53" stroke="#c8e387" stroke-width="2"/><circle cx="223.33934532199055" cy="325.9826640281826" r="6.720905447923579" fill="#5dba53" stroke="#c8e387" stroke-width="2"/><circle cx="336.0081315105781" cy="334.71526074782014" r="5.301370088299736" fill="#5dba53" stroke="#c8e387" stroke-width="2"/><circle cx="486.20425630826503" cy="282.6684144567698" r="7.206892212792299" fill="#5dba53" stroke="#c8e387" stroke-width="2"/><circle cx="491.7823400525376" cy="186.88359913975" r="4.421163196731358" fill="#5dba53" stroke="#c8e387" stroke-width="2"/><circle cx="246.5039082551375" cy="320.3527063000947" r="5.530704359044321" fill="#5dba53" stroke="#c8e387" stroke-width="2"/><circle cx="256.32812493946403" cy="303.42158652469516" r="3.9339033423084766" fill="#5dba53" stroke="#c8e387" stroke-width="2"/><circle cx="515.8972891615704" cy="207.19951145909727" r="5.021521111051552" fill="#5dba53" stroke="#c8e387" stroke-width="2"/><circle cx="428.99980955850333" cy="189.4066850990057" r="7.588038178682327" fill="#5dba53" stroke="#c8e387" stroke-width="2"/><circle cx="210.78946551773697" cy="273.18958955444396" r="6.710036294893362" fill="#5dba53" stroke="#c8e387" stroke-width="2"/><ellipse cx="330.37884603254497" cy="303.7220387356356" rx="4" ry="2" fill="#faf0d0"/><ellipse cx="323.1661076657474" cy="306.382168895565" rx="4" ry="2" fill="#faf0d0"/><ellipse cx="381.3705979231745" cy="168.04746601823717" rx="4" ry="2" fill="#faf0d0"/><ellipse cx="396.6318459138274" cy="236.8642238629982" rx="4" ry="2" fill="#faf0d0"/><ellipse cx="210.28234625421464" cy="229.50420787651092" rx="4" ry="2" fill="#faf0d0"/><ellipse cx="296.98939714208245" cy="232.85307834949344" rx="4" ry="2" fill="#faf0d0"/><ellipse cx="364.79604731686413" cy="315.09609140548855" rx="4" ry="2" fill="#faf0d0"/><ellipse cx="314.42394487559795" cy="269.6312536029145" rx="4" ry="2" fill="#faf0d0"/><ellipse cx="386.1500996630639" cy="339.0096371816471" rx="4" ry="2" fill="#faf0d0"/><ellipse cx="375.48753970488906" cy="183.15334423538297" rx="4" ry="2" fill="#faf0d0"/><ellipse cx="242.036560902372" cy="197.683639341034" rx="4" ry="2" fill="#faf0d0"/><ellipse cx="205.9787379577756" cy="195.55505142640322" rx="4" ry="2" fill="#faf0d0"/><ellipse cx="262.5100832488388" cy="189.58577690739185" rx="4" ry="2" fill="#faf0d0"/><ellipse cx="250.80270912125707" cy="296.15049737598747" rx="4" ry="2" fill="#faf0d0"/><ellipse cx="393.5960678178817" cy="252.50875637028366" rx="4" ry="2" fill="#faf0d0"/><ellipse cx="412.9993120133877" cy="303.23032100778073" rx="4" ry="2" fill="#faf0d0"/><ellipse cx="294.28553767316043" cy="316.19848551321775" rx="4" ry="2" fill="#faf0d0"/><g transform="translate(207.745509323664 274.7936747651547) scale(0.6478143181861379)"><rect x="-22" y="-12" width="44" height="24" rx="9" fill="#9c583c" stroke="#f9b77c" stroke-width="3"/><path d="M-12-3L9 4" stroke="#ffd7a0" stroke-width="4" opacity=".8"/></g><g transform="translate(314.3216808317229 328.269311837852) scale(0.7714229634124786)"><rect x="-22" y="-12" width="44" height="24" rx="9" fill="#9c583c" stroke="#f9b77c" stroke-width="3"/><path d="M-12-3L9 4" stroke="#ffd7a0" stroke-width="4" opacity=".8"/></g><g transform="translate(480.7455938095227 207.36705547757447) scale(0.7516183382342569)"><rect x="-22" y="-12" width="44" height="24" rx="9" fill="#9c583c" stroke="#f9b77c" stroke-width="3"/><path d="M-12-3L9 4" stroke="#ffd7a0" stroke-width="4" opacity=".8"/></g><g transform="translate(220.45272301044315 283.2593630217016) scale(0.8578935589035973)"><rect x="-22" y="-12" width="44" height="24" rx="9" fill="#9c583c" stroke="#f9b77c" stroke-width="3"/><path d="M-12-3L9 4" stroke="#ffd7a0" stroke-width="4" opacity=".8"/></g><g transform="translate(401.6521933572367 164.9942344482988) scale(1.1195781926368364)"><rect x="-22" y="-12" width="44" height="24" rx="9" fill="#9c583c" stroke="#f9b77c" stroke-width="3"/><path d="M-12-3L9 4" stroke="#ffd7a0" stroke-width="4" opacity=".8"/></g><g transform="translate(290.80879745911807 194.8666494488716) scale(1.1345430123247207)"><rect x="-22" y="-12" width="44" height="24" rx="9" fill="#9c583c" stroke="#f9b77c" stroke-width="3"/><path d="M-12-3L9 4" stroke="#ffd7a0" stroke-width="4" opacity=".8"/></g><g transform="translate(293.5805184999481 194.2773702237755) scale(1.1510339879407547)"><rect x="-22" y="-12" width="44" height="24" rx="9" fill="#9c583c" stroke="#f9b77c" stroke-width="3"/><path d="M-12-3L9 4" stroke="#ffd7a0" stroke-width="4" opacity=".8"/></g><g transform="translate(203.07987756095827 249.32605704385787) scale(0.9127213550126181)"><rect x="-22" y="-12" width="44" height="24" rx="9" fill="#d5b39c" stroke="#f9b77c" stroke-width="3"/><path d="M-12-3L9 4" stroke="#ffd7a0" stroke-width="4" opacity=".8"/></g><g transform="translate(232.8857744075358 265.5309269865975) scale(0.7568965603341349)"><rect x="-22" y="-12" width="44" height="24" rx="9" fill="#d5b39c" stroke="#f9b77c" stroke-width="3"/><path d="M-12-3L9 4" stroke="#ffd7a0" stroke-width="4" opacity=".8"/></g><g transform="translate(322.6674111355096 328.6873621502891) scale(1.1905343581549823)"><rect x="-22" y="-12" width="44" height="24" rx="9" fill="#d5b39c" stroke="#f9b77c" stroke-width="3"/><path d="M-12-3L9 4" stroke="#ffd7a0" stroke-width="4" opacity=".8"/></g><g transform="translate(437.20133696496487 264.2583410171792) scale(1.1959521043091081)"><rect x="-22" y="-12" width="44" height="24" rx="9" fill="#d5b39c" stroke="#f9b77c" stroke-width="3"/><path d="M-12-3L9 4" stroke="#ffd7a0" stroke-width="4" opacity=".8"/></g><g transform="translate(303.0741015356034 247.99394095409662) scale(1.0698693005228415)"><rect x="-22" y="-12" width="44" height="24" rx="9" fill="#d5b39c" stroke="#f9b77c" stroke-width="3"/><path d="M-12-3L9 4" stroke="#ffd7a0" stroke-width="4" opacity=".8"/></g><g transform="translate(372.39220821484923 253.4168805098161) scale(1.1908969651185908)"><rect x="-22" y="-12" width="44" height="24" rx="9" fill="#d5b39c" stroke="#f9b77c" stroke-width="3"/><path d="M-12-3L9 4" stroke="#ffd7a0" stroke-width="4" opacity=".8"/></g><g transform="translate(335.3559886999428 307.36672568228096) scale(1.0297739490726963)"><rect x="-22" y="-12" width="44" height="24" rx="9" fill="#e88d75" stroke="#f9b77c" stroke-width="3"/><path d="M-12-3L9 4" stroke="#ffd7a0" stroke-width="4" opacity=".8"/></g><g transform="translate(239.84720382280648 305.0041599581018) scale(0.8760244121053257)"><rect x="-22" y="-12" width="44" height="24" rx="9" fill="#e88d75" stroke="#f9b77c" stroke-width="3"/><path d="M-12-3L9 4" stroke="#ffd7a0" stroke-width="4" opacity=".8"/></g><g transform="translate(398.35273483395576 192.7925776420161) scale(0.8780037994589657)"><rect x="-22" y="-12" width="44" height="24" rx="9" fill="#e88d75" stroke="#f9b77c" stroke-width="3"/><path d="M-12-3L9 4" stroke="#ffd7a0" stroke-width="4" opacity=".8"/></g><g transform="translate(391.234514368698 172.33185621071607) scale(0.7677386171626859)"><rect x="-22" y="-12" width="44" height="24" rx="9" fill="#e88d75" stroke="#f9b77c" stroke-width="3"/><path d="M-12-3L9 4" stroke="#ffd7a0" stroke-width="4" opacity=".8"/></g><g transform="translate(492.4590845517814 320.2531202798709) scale(0.8151769019989297)"><rect x="-22" y="-12" width="44" height="24" rx="9" fill="#e88d75" stroke="#f9b77c" stroke-width="3"/><path d="M-12-3L9 4" stroke="#ffd7a0" stroke-width="4" opacity=".8"/></g><g transform="translate(285.4346865359694 186.90087813977152) scale(1.0262439507734962)"><rect x="-22" y="-12" width="44" height="24" rx="9" fill="#e88d75" stroke="#f9b77c" stroke-width="3"/><path d="M-12-3L9 4" stroke="#ffd7a0" stroke-width="4" opacity=".8"/></g><g transform="translate(494.61220502108335 235.29378377925605) scale(1.105605436079204)"><rect x="-22" y="-12" width="44" height="24" rx="9" fill="#e88d75" stroke="#f9b77c" stroke-width="3"/><path d="M-12-3L9 4" stroke="#ffd7a0" stroke-width="4" opacity=".8"/></g><g transform="translate(271.00172087643296 291.61733644641936) scale(0.8036146906879731)"><path d="M-13-15C25-35 31 14 0 18" fill="none" stroke="#ffb384" stroke-width="13"/><path d="M-13-15C25-35 31 14 0 18" fill="none" stroke="#fee5a7" stroke-width="3"/></g><g transform="translate(464.3514709388837 246.45938124135137) scale(1.2864615806937219)"><path d="M-13-15C25-35 31 14 0 18" fill="none" stroke="#ffb384" stroke-width="13"/><path d="M-13-15C25-35 31 14 0 18" fill="none" stroke="#fee5a7" stroke-width="3"/></g><g transform="translate(490.0041476460174 258.81782901100814) scale(0.6560483995801769)"><path d="M-13-15C25-35 31 14 0 18" fill="none" stroke="#ffb384" stroke-width="13"/><path d="M-13-15C25-35 31 14 0 18" fill="none" stroke="#fee5a7" stroke-width="3"/></g><g transform="translate(499.2625753758475 190.70092772692442) scale(0.7057553763361648)"><path d="M-13-15C25-35 31 14 0 18" fill="none" stroke="#ffb384" stroke-width="13"/><path d="M-13-15C25-35 31 14 0 18" fill="none" stroke="#fee5a7" stroke-width="3"/></g><g transform="translate(314.7363249892369 171.9463101644069) scale(0.7112401370168664)"><path d="M-13-15C25-35 31 14 0 18" fill="none" stroke="#ffb384" stroke-width="13"/><path d="M-13-15C25-35 31 14 0 18" fill="none" stroke="#fee5a7" stroke-width="3"/></g><g transform="translate(402.8682870110497 300.72853937372565) scale(0.9825121818203479)"><path d="M-13-15C25-35 31 14 0 18" fill="none" stroke="#ffb384" stroke-width="13"/><path d="M-13-15C25-35 31 14 0 18" fill="none" stroke="#fee5a7" stroke-width="3"/></g><g transform="translate(332.77710174489766 263.0452308114618) scale(0.6828886969457381)"><path d="M-13-15C25-35 31 14 0 18" fill="none" stroke="#ffb384" stroke-width="13"/><path d="M-13-15C25-35 31 14 0 18" fill="none" stroke="#fee5a7" stroke-width="3"/></g><ellipse cx="499.3938164357096" cy="246.5380481267348" rx="9.205932339727878" ry="6.904449254795908" fill="#f1d3a0" stroke="#d8bd88" stroke-width="2"/><ellipse cx="319.710681758821" cy="234.1499195350334" rx="5.675339005868882" ry="4.256504254401662" fill="#f1d3a0" stroke="#d8bd88" stroke-width="2"/><ellipse cx="478.1599253471941" cy="213.17874422390014" rx="9.206297359503806" ry="6.904723019627854" fill="#f1d3a0" stroke="#d8bd88" stroke-width="2"/><ellipse cx="468.3555617071688" cy="333.7172747692093" rx="10.059881530869752" ry="7.544911148152314" fill="#f1d3a0" stroke="#d8bd88" stroke-width="2"/><ellipse cx="253.39819573052227" cy="239.38686348591" rx="5.452724433019758" ry="4.0895433247648185" fill="#f1d3a0" stroke="#d8bd88" stroke-width="2"/><g transform="translate(406.4535599621013 187.0658585112542) scale(0.828745102134999)"><path d="M-15-9A21 21 0 0 1 19 9" fill="none" stroke="#ec6950" stroke-width="10"/><path d="M-13-6A16 16 0 0 1 14 7" fill="none" stroke="#ffe0a0" stroke-width="6"/></g><g transform="translate(378.6627502022311 249.9430780634284) scale(0.7345754413725808)"><path d="M-15-9A21 21 0 0 1 19 9" fill="none" stroke="#ec6950" stroke-width="10"/><path d="M-13-6A16 16 0 0 1 14 7" fill="none" stroke="#ffe0a0" stroke-width="6"/></g><g transform="translate(490.79900663439184 242.10381737537682) scale(1.1299948774487711)"><path d="M-15-9A21 21 0 0 1 19 9" fill="none" stroke="#ec6950" stroke-width="10"/><path d="M-13-6A16 16 0 0 1 14 7" fill="none" stroke="#ffe0a0" stroke-width="6"/></g><g transform="translate(340.88021673168987 268.44146579131484) scale(1.2168295981455595)"><path d="M-15-9A21 21 0 0 1 19 9" fill="none" stroke="#ec6950" stroke-width="10"/><path d="M-13-6A16 16 0 0 1 14 7" fill="none" stroke="#ffe0a0" stroke-width="6"/></g><g transform="translate(260.52763005066663 272.2321574445814) scale(1.2302974196593277)"><path d="M-15-9A21 21 0 0 1 19 9" fill="none" stroke="#ec6950" stroke-width="10"/><path d="M-13-6A16 16 0 0 1 14 7" fill="none" stroke="#ffe0a0" stroke-width="6"/></g><g transform="translate(227.21447731088847 181.34116926789284) scale(0.9059026248147711)"><path d="M-15-9A21 21 0 0 1 19 9" fill="none" stroke="#ec6950" stroke-width="10"/><path d="M-13-6A16 16 0 0 1 14 7" fill="none" stroke="#ffe0a0" stroke-width="6"/></g><path d="M420.49910861533135 281.5372610464692L441.49910861533135 288.5372610464692" stroke="#e2492c" stroke-width="4"/><path d="M248.0647362852469 222.52304558642209L269.0647362852469 229.52304558642209" stroke="#e2492c" stroke-width="4"/><path d="M323.5735771646723 334.9460474960506L344.5735771646723 341.9460474960506" stroke="#e2492c" stroke-width="4"/><path d="M353.86327332723886 244.09446298144758L374.86327332723886 251.09446298144758" stroke="#e2492c" stroke-width="4"/><path d="M224.45395338069648 325.95799677073956L245.45395338069648 332.95799677073956" stroke="#e2492c" stroke-width="4"/><path d="M432.62882176134735 294.5100047532469L453.62882176134735 301.5100047532469" stroke="#e2492c" stroke-width="4"/><path d="M452.09281199332327 161.41303749755025L473.09281199332327 168.41303749755025" stroke="#e2492c" stroke-width="4"/></g><ellipse cx="360" cy="276" rx="240" ry="154" fill="none" stroke="#fbe0ae" stroke-width="5" opacity=".66"/><path d="M145 335Q356 465 574 335" fill="none" stroke="#f9c271" stroke-opacity=".38" stroke-width="6"/></svg>