<svg xmlns="http://www.w3.org/2000/svg" viewBox="0 0 720 540" role="img" aria-label="Креветка премиум-класса"><defs><linearGradient id="wood" x2=".95" y2="1"><stop stop-color="#243832"/><stop offset="1" stop-color="#1e2220"/></linearGradient><linearGradient id="edge" x2=".7" y2="1"><stop stop-color="#f7d9a8"/><stop offset=".48" stop-color="#8a5e4a"/><stop offset="1" stop-color="#372522"/></linearGradient><radialGradient id="dish"><stop stop-color="#f6d08e"/><stop offset="1" stop-color="#dbab65"/></radialGradient><clipPath id="crop"><ellipse cx="360.0" cy="278.0" rx="217" ry="137" fill="#fff" stroke="none" stroke-width="1"/></clipPath></defs><rect width="720" height="540" fill="url(#wood)"/><path d="M0 59.0Q340 73.6 720 72.9" fill="none" stroke="#f5c68b" stroke-width="0.8" opacity=".09" stroke-linejoin="round" stroke-linecap="round"/><path d="M0 126.8Q340 136.4 720 143.0" fill="none" stroke="#f5c68b" stroke-width="0.8" opacity=".09" stroke-linejoin="round" stroke-linecap="round"/><path d="M0 171.1Q340 179.7 720 182.3" fill="none" stroke="#f5c68b" stroke-width="0.8" opacity=".09" stroke-linejoin="round" stroke-linecap="round"/><path d="M0 234.1Q340 244.0 720 254.9" fill="none" stroke="#f5c68b" stroke-width="0.8" opacity=".09" stroke-linejoin="round" stroke-linecap="round"/><path d="M0 297.6Q340 306.4 720 309.1" fill="none" stroke="#f5c68b" stroke-width="0.8" opacity=".09" stroke-linejoin="round" stroke-linecap="round"/><path d="M0 347.7Q340 352.8 720 357.1" fill="none" stroke="#f5c68b" stroke-width="0.8" opacity=".09" stroke-linejoin="round" stroke-linecap="round"/><path d="M0 398.6Q340 402.8 720 418.7" fill="none" stroke="#f5c68b" stroke-width="0.8" opacity=".09" stroke-linejoin="round" stroke-linecap="round"/><path d="M0 449.4Q340 451.8 720 457.2" fill="none" stroke="#f5c68b" stroke-width="0.8" opacity=".09" stroke-linejoin="round" stroke-linecap="round"/><path d="M0 516.0Q340 519.5 720 522.5" fill="none" stroke="#f5c68b" stroke-width="0.8" opacity=".09" stroke-linejoin="round" stroke-linecap="round"/><ellipse cx="360.0" cy="457.0" rx="269" ry="36" fill="#090909" stroke="none" stroke-width="1"/><ellipse cx="360.0" cy="278.0" rx="240" ry="158" fill="url(#edge)" stroke="#f6d8a6" stroke-width="7"/><ellipse cx="360.0" cy="278.0" rx="219" ry="140" fill="#2f1b13" stroke="#e8ba8b" stroke-width="7"/><ellipse cx="360.0" cy="278.0" rx="217" ry="137" fill="url(#dish)" stroke="none" stroke-width="1"/><g clip-path="url(#crop)"><path d="M327.0 317.5Q314.0 307.0 353.1 307.0T379.3 317.5T398.8 312.2" fill="none" stroke="#6f3a22" stroke-width="13" stroke-linejoin="round" stroke-linecap="round"/><path d="M327.0 317.5Q314.0 307.0 353.1 307.0T379.3 317.5T398.8 312.2" fill="none" stroke="#ffe0a0" stroke-width="8" stroke-linejoin="round" stroke-linecap="round"/><path d="M462.6 318.8Q450.9 291.9 485.9 291.9T509.3 318.8T526.8 305.4" fill="none" stroke="#6f3a22" stroke-width="13" stroke-linejoin="round" stroke-linecap="round"/><path d="M462.6 318.8Q450.9 291.9 485.9 291.9T509.3 318.8T526.8 305.4" fill="none" stroke="#ffe0a0" stroke-width="8" stroke-linejoin="round" stroke-linecap="round"/><path d="M506.0 347.3Q495.9 332.0 526.1 332.0T546.2 347.3T561.3 339.6" fill="none" stroke="#6f3a22" stroke-width="13" stroke-linejoin="round" stroke-linecap="round"/><path d="M506.0 347.3Q495.9 332.0 526.1 332.0T546.2 347.3T561.3 339.6" fill="none" stroke="#ffe0a0" stroke-width="8" stroke-linejoin="round" stroke-linecap="round"/><path d="M479.5 367.2Q473.9 337.4 490.7 337.4T501.8 367.2T510.2 352.3" fill="none" stroke="#6f3a22" stroke-width="13" stroke-linejoin="round" stroke-linecap="round"/><path d="M479.5 367.2Q473.9 337.4 490.7 337.4T501.8 367.2T510.2 352.3" fill="none" stroke="#ffe0a0" stroke-width="8" stroke-linejoin="round" stroke-linecap="round"/><path d="M274.3 349.8Q268.3 314.4 286.2 314.4T298.1 349.8T307.0 332.1" fill="none" stroke="#6f3a22" stroke-width="13" stroke-linejoin="round" stroke-linecap="round"/><path d="M274.3 349.8Q268.3 314.4 286.2 314.4T298.1 349.8T307.0 332.1" fill="none" stroke="#ffe0a0" stroke-width="8" stroke-linejoin="round" stroke-linecap="round"/><path d="M181.0 351.2Q165.0 317.9 213.1 317.9T245.1 351.2T269.2 334.6" fill="none" stroke="#6f3a22" stroke-width="13" stroke-linejoin="round" stroke-linecap="round"/><path d="M181.0 351.2Q165.0 317.9 213.1 317.9T245.1 351.2T269.2 334.6" fill="none" stroke="#ffe0a0" stroke-width="8" stroke-linejoin="round" stroke-linecap="round"/><path d="M220.4 377.9Q205.4 363.5 250.4 363.5T280.4 377.9T302.9 370.7" fill="none" stroke="#6f3a22" stroke-width="13" stroke-linejoin="round" stroke-linecap="round"/><path d="M220.4 377.9Q205.4 363.5 250.4 363.5T280.4 377.9T302.9 370.7" fill="none" stroke="#ffe0a0" stroke-width="8" stroke-linejoin="round" stroke-linecap="round"/><path d="M495.7 248.6Q488.4 233.7 510.3 233.7T524.9 248.6T535.8 241.1" fill="none" stroke="#6f3a22" stroke-width="13" stroke-linejoin="round" stroke-linecap="round"/><path d="M495.7 248.6Q488.4 233.7 510.3 233.7T524.9 248.6T535.8 241.1" fill="none" stroke="#ffe0a0" stroke-width="8" stroke-linejoin="round" stroke-linecap="round"/><path d="M273.6 363.9Q258.4 332.6 303.8 332.6T334.1 363.9T356.7 348.2" fill="none" stroke="#6f3a22" stroke-width="13" stroke-linejoin="round" stroke-linecap="round"/><path d="M273.6 363.9Q258.4 332.6 303.8 332.6T334.1 363.9T356.7 348.2" fill="none" stroke="#ffe0a0" stroke-width="8" stroke-linejoin="round" stroke-linecap="round"/><path d="M168.3 309.3Q158.2 281.5 188.5 281.5T208.7 309.3T223.9 295.4" fill="none" stroke="#6f3a22" stroke-width="13" stroke-linejoin="round" stroke-linecap="round"/><path d="M168.3 309.3Q158.2 281.5 188.5 281.5T208.7 309.3T223.9 295.4" fill="none" stroke="#ffe0a0" stroke-width="8" stroke-linejoin="round" stroke-linecap="round"/><path d="M269.4 249.5Q255.3 234.7 297.7 234.7T326.0 249.5T347.2 242.1" fill="none" stroke="#6f3a22" stroke-width="13" stroke-linejoin="round" stroke-linecap="round"/><path d="M269.4 249.5Q255.3 234.7 297.7 234.7T326.0 249.5T347.2 242.1" fill="none" stroke="#ffe0a0" stroke-width="8" stroke-linejoin="round" stroke-linecap="round"/><path d="M191.5 378.3Q175.7 348.8 223.0 348.8T254.6 378.3T278.3 363.6" fill="none" stroke="#6f3a22" stroke-width="13" stroke-linejoin="round" stroke-linecap="round"/><path d="M191.5 378.3Q175.7 348.8 223.0 348.8T254.6 378.3T278.3 363.6" fill="none" stroke="#ffe0a0" stroke-width="8" stroke-linejoin="round" stroke-linecap="round"/><path d="M395.2 362.8Q387.5 326.9 410.4 326.9T425.6 362.8T437.0 344.8" fill="none" stroke="#6f3a22" stroke-width="13" stroke-linejoin="round" stroke-linecap="round"/><path d="M395.2 362.8Q387.5 326.9 410.4 326.9T425.6 362.8T437.0 344.8" fill="none" stroke="#ffe0a0" stroke-width="8" stroke-linejoin="round" stroke-linecap="round"/><path d="M410.1 235.0Q395.2 205.9 439.8 205.9T469.5 235.0T491.8 220.4" fill="none" stroke="#6f3a22" stroke-width="13" stroke-linejoin="round" stroke-linecap="round"/><path d="M410.1 235.0Q395.2 205.9 439.8 205.9T469.5 235.0T491.8 220.4" fill="none" stroke="#ffe0a0" stroke-width="8" stroke-linejoin="round" stroke-linecap="round"/><path d="M426.0 333.8Q413.8 321.9 450.3 321.9T474.6 333.8T492.9 327.8" fill="none" stroke="#6f3a22" stroke-width="13" stroke-linejoin="round" stroke-linecap="round"/><path d="M426.0 333.8Q413.8 321.9 450.3 321.9T474.6 333.8T492.9 327.8" fill="none" stroke="#ffe0a0" stroke-width="8" stroke-linejoin="round" stroke-linecap="round"/><path d="M164.4 227.9Q156.6 217.8 179.9 217.8T195.5 227.9T207.1 222.9" fill="none" stroke="#6f3a22" stroke-width="13" stroke-linejoin="round" stroke-linecap="round"/><path d="M164.4 227.9Q156.6 217.8 179.9 217.8T195.5 227.9T207.1 222.9" fill="none" stroke="#ffe0a0" stroke-width="8" stroke-linejoin="round" stroke-linecap="round"/><path d="M235.6 295.9Q222.5 279.4 261.8 279.4T288.0 295.9T307.7 287.6" fill="none" stroke="#6f3a22" stroke-width="13" stroke-linejoin="round" stroke-linecap="round"/><path d="M235.6 295.9Q222.5 279.4 261.8 279.4T288.0 295.9T307.7 287.6" fill="none" stroke="#ffe0a0" stroke-width="8" stroke-linejoin="round" stroke-linecap="round"/><path d="M405.9 375.0Q395.4 358.3 426.8 358.3T447.7 375.0T463.3 366.7" fill="none" stroke="#6f3a22" stroke-width="13" stroke-linejoin="round" stroke-linecap="round"/><path d="M405.9 375.0Q395.4 358.3 426.8 358.3T447.7 375.0T463.3 366.7" fill="none" stroke="#ffe0a0" stroke-width="8" stroke-linejoin="round" stroke-linecap="round"/><path d="M491.9 187.7Q481.2 162.2 513.3 162.2T534.7 187.7T550.8 175.0" fill="none" stroke="#6f3a22" stroke-width="13" stroke-linejoin="round" stroke-linecap="round"/><path d="M491.9 187.7Q481.2 162.2 513.3 162.2T534.7 187.7T550.8 175.0" fill="none" stroke="#ffe0a0" stroke-width="8" stroke-linejoin="round" stroke-linecap="round"/><path d="M177.6 207.6Q168.8 193.4 195.3 193.4T212.9 207.6T226.1 200.5" fill="none" stroke="#6f3a22" stroke-width="13" stroke-linejoin="round" stroke-linecap="round"/><path d="M177.6 207.6Q168.8 193.4 195.3 193.4T212.9 207.6T226.1 200.5" fill="none" stroke="#ffe0a0" stroke-width="8" stroke-linejoin="round" stroke-linecap="round"/><path d="M237.4 324.4Q222.0 289.6 268.1 289.6T298.8 324.4T321.8 307.0" fill="none" stroke="#6f3a22" stroke-width="13" stroke-linejoin="round" stroke-linecap="round"/><path d="M237.4 324.4Q222.0 289.6 268.1 289.6T298.8 324.4T321.8 307.0" fill="none" stroke="#ffe0a0" stroke-width="8" stroke-linejoin="round" stroke-linecap="round"/><path d="M480.2 282.1Q468.3 264.5 504.0 264.5T527.8 282.1T545.6 273.3" fill="none" stroke="#6f3a22" stroke-width="13" stroke-linejoin="round" stroke-linecap="round"/><path d="M480.2 282.1Q468.3 264.5 504.0 264.5T527.8 282.1T545.6 273.3" fill="none" stroke="#ffe0a0" stroke-width="8" stroke-linejoin="round" stroke-linecap="round"/><path d="M307.9 277.0Q293.2 246.4 337.3 246.4T366.6 277.0T388.7 261.7" fill="none" stroke="#6f3a22" stroke-width="13" stroke-linejoin="round" stroke-linecap="round"/><path d="M307.9 277.0Q293.2 246.4 337.3 246.4T366.6 277.0T388.7 261.7" fill="none" stroke="#ffe0a0" stroke-width="8" stroke-linejoin="round" stroke-linecap="round"/><path d="M434.0 174.4Q426.3 153.7 449.5 153.7T464.9 174.4T476.6 164.0" fill="none" stroke="#6f3a22" stroke-width="13" stroke-linejoin="round" stroke-linecap="round"/><path d="M434.0 174.4Q426.3 153.7 449.5 153.7T464.9 174.4T476.6 164.0" fill="none" stroke="#ffe0a0" stroke-width="8" stroke-linejoin="round" stroke-linecap="round"/><path d="M503.4 215.9Q487.2 195.7 535.8 195.7T568.2 215.9T592.5 205.8" fill="none" stroke="#6f3a22" stroke-width="13" stroke-linejoin="round" stroke-linecap="round"/><path d="M503.4 215.9Q487.2 195.7 535.8 195.7T568.2 215.9T592.5 205.8" fill="none" stroke="#ffe0a0" stroke-width="8" stroke-linejoin="round" stroke-linecap="round"/><path d="M490.4 299.6Q483.9 289.4 503.3 289.4T516.1 299.6T525.8 294.5" fill="none" stroke="#6f3a22" stroke-width="13" stroke-linejoin="round" stroke-linecap="round"/><path d="M490.4 299.6Q483.9 289.4 503.3 289.4T516.1 299.6T525.8 294.5" fill="none" stroke="#ffe0a0" stroke-width="8" stroke-linejoin="round" stroke-linecap="round"/><path d="M168.8 163.7Q153.0 146.2 200.5 146.2T232.2 163.7T256.0 154.9" fill="none" stroke="#6f3a22" stroke-width="13" stroke-linejoin="round" stroke-linecap="round"/><path d="M168.8 163.7Q153.0 146.2 200.5 146.2T232.2 163.7T256.0 154.9" fill="none" stroke="#ffe0a0" stroke-width="8" stroke-linejoin="round" stroke-linecap="round"/><path d="M413.2 332.7Q404.1 317.0 431.3 317.0T449.5 332.7T463.1 324.9" fill="none" stroke="#6f3a22" stroke-width="13" stroke-linejoin="round" stroke-linecap="round"/><path d="M413.2 332.7Q404.1 317.0 431.3 317.0T449.5 332.7T463.1 324.9" fill="none" stroke="#ffe0a0" stroke-width="8" stroke-linejoin="round" stroke-linecap="round"/><path d="M515.7 323.3Q508.2 310.7 530.8 310.7T545.8 323.3T557.1 317.0" fill="none" stroke="#6f3a22" stroke-width="13" stroke-linejoin="round" stroke-linecap="round"/><path d="M515.7 323.3Q508.2 310.7 530.8 310.7T545.8 323.3T557.1 317.0" fill="none" stroke="#ffe0a0" stroke-width="8" stroke-linejoin="round" stroke-linecap="round"/><path d="M463.9 212.2Q457.9 202.1 476.0 202.1T488.1 212.2T497.2 207.2" fill="none" stroke="#6f3a22" stroke-width="13" stroke-linejoin="round" stroke-linecap="round"/><path d="M463.9 212.2Q457.9 202.1 476.0 202.1T488.1 212.2T497.2 207.2" fill="none" stroke="#ffe0a0" stroke-width="8" stroke-linejoin="round" stroke-linecap="round"/><path d="M450.4 280.9Q439.7 255.3 471.8 255.3T493.1 280.9T509.2 268.1" fill="none" stroke="#6f3a22" stroke-width="13" stroke-linejoin="round" stroke-linecap="round"/><path d="M450.4 280.9Q439.7 255.3 471.8 255.3T493.1 280.9T509.2 268.1" fill="none" stroke="#ffe0a0" stroke-width="8" stroke-linejoin="round" stroke-linecap="round"/><path d="M390.5 309.8Q385.5 282.5 400.6 282.5T410.8 309.8T418.4 296.2" fill="none" stroke="#6f3a22" stroke-width="13" stroke-linejoin="round" stroke-linecap="round"/><path d="M390.5 309.8Q385.5 282.5 400.6 282.5T410.8 309.8T418.4 296.2" fill="none" stroke="#ffe0a0" stroke-width="8" stroke-linejoin="round" stroke-linecap="round"/><path d="M155.8 343.6Q143.5 329.5 180.2 329.5T204.7 343.6T223.0 336.5" fill="none" stroke="#6f3a22" stroke-width="13" stroke-linejoin="round" stroke-linecap="round"/><path d="M155.8 343.6Q143.5 329.5 180.2 329.5T204.7 343.6T223.0 336.5" fill="none" stroke="#ffe0a0" stroke-width="8" stroke-linejoin="round" stroke-linecap="round"/><path d="M340.4 307.2Q332.5 280.2 356.1 280.2T371.9 307.2T383.7 293.7" fill="none" stroke="#6f3a22" stroke-width="13" stroke-linejoin="round" stroke-linecap="round"/><path d="M340.4 307.2Q332.5 280.2 356.1 280.2T371.9 307.2T383.7 293.7" fill="none" stroke="#ffe0a0" stroke-width="8" stroke-linejoin="round" stroke-linecap="round"/><path d="M178.6 255.1Q171.6 233.4 192.6 233.4T206.5 255.1T217.0 244.2" fill="none" stroke="#6f3a22" stroke-width="13" stroke-linejoin="round" stroke-linecap="round"/><path d="M178.6 255.1Q171.6 233.4 192.6 233.4T206.5 255.1T217.0 244.2" fill="none" stroke="#ffe0a0" stroke-width="8" stroke-linejoin="round" stroke-linecap="round"/><path d="M320.5 189.9Q315.3 161.0 330.7 161.0T341.0 189.9T348.7 175.5" fill="none" stroke="#6f3a22" stroke-width="13" stroke-linejoin="round" stroke-linecap="round"/><path d="M320.5 189.9Q315.3 161.0 330.7 161.0T341.0 189.9T348.7 175.5" fill="none" stroke="#ffe0a0" stroke-width="8" stroke-linejoin="round" stroke-linecap="round"/><path d="M235.3 193.0Q225.2 169.6 255.6 169.6T275.9 193.0T291.2 181.3" fill="none" stroke="#6f3a22" stroke-width="13" stroke-linejoin="round" stroke-linecap="round"/><path d="M235.3 193.0Q225.2 169.6 255.6 169.6T275.9 193.0T291.2 181.3" fill="none" stroke="#ffe0a0" stroke-width="8" stroke-linejoin="round" stroke-linecap="round"/><path d="M317.5 185.2Q305.3 165.2 341.9 165.2T366.3 185.2T384.6 175.2" fill="none" stroke="#6f3a22" stroke-width="13" stroke-linejoin="round" stroke-linecap="round"/><path d="M317.5 185.2Q305.3 165.2 341.9 165.2T366.3 185.2T384.6 175.2" fill="none" stroke="#ffe0a0" stroke-width="8" stroke-linejoin="round" stroke-linecap="round"/><path d="M325.5 269.6Q318.3 257.3 339.8 257.3T354.2 269.6T365.0 263.4" fill="none" stroke="#6f3a22" stroke-width="13" stroke-linejoin="round" stroke-linecap="round"/><path d="M325.5 269.6Q318.3 257.3 339.8 257.3T354.2 269.6T365.0 263.4" fill="none" stroke="#ffe0a0" stroke-width="8" stroke-linejoin="round" stroke-linecap="round"/><g transform="translate(537.8 293.5) rotate(10) scale(0.8)"><path d="M-19 12Q-31-3 -13-15Q-7-26 0-12Q8-30 17-13Q33 7 8 18Q-9 26-19 12Z" fill="#fff0c6" stroke="#caad7a" stroke-width="3" stroke-linejoin="round" stroke-linecap="round"/><path d="M0-10Q-8 7 0 18" fill="none" stroke="#dbca9c" stroke-width="2" stroke-linejoin="round" stroke-linecap="round"/></g><g transform="translate(434.1 324.9) rotate(-19) scale(1.0)"><path d="M-19 12Q-31-3 -13-15Q-7-26 0-12Q8-30 17-13Q33 7 8 18Q-9 26-19 12Z" fill="#fff0c6" stroke="#caad7a" stroke-width="3" stroke-linejoin="round" stroke-linecap="round"/><path d="M0-10Q-8 7 0 18" fill="none" stroke="#dbca9c" stroke-width="2" stroke-linejoin="round" stroke-linecap="round"/></g><g transform="translate(391.2 414.3) rotate(45) scale(0.7)"><path d="M-19 12Q-31-3 -13-15Q-7-26 0-12Q8-30 17-13Q33 7 8 18Q-9 26-19 12Z" fill="#fff0c6" stroke="#caad7a" stroke-width="3" stroke-linejoin="round" stroke-linecap="round"/><path d="M0-10Q-8 7 0 18" fill="none" stroke="#dbca9c" stroke-width="2" stroke-linejoin="round" stroke-linecap="round"/></g><g transform="translate(245.2 387.3) rotate(8) scale(1.0)"><path d="M-29-12Q21-38 29 4Q20 26-9 12" fill="none" stroke="#f8a077" stroke-width="15" stroke-linejoin="round" stroke-linecap="round"/><path d="M-26-11Q12-28 21-2" fill="none" stroke="#ffdcad" stroke-width="4" stroke-linejoin="round" stroke-linecap="round"/></g><g transform="translate(235.2 278.8) rotate(-39) scale(0.7)"><path d="M-29-12Q21-38 29 4Q20 26-9 12" fill="none" stroke="#f8a077" stroke-width="15" stroke-linejoin="round" stroke-linecap="round"/><path d="M-26-11Q12-28 21-2" fill="none" stroke="#ffdcad" stroke-width="4" stroke-linejoin="round" stroke-linecap="round"/></g><g transform="translate(210.5 193.6) rotate(-36) scale(1.1)"><path d="M-29-12Q21-38 29 4Q20 26-9 12" fill="none" stroke="#f8a077" stroke-width="15" stroke-linejoin="round" stroke-linecap="round"/><path d="M-26-11Q12-28 21-2" fill="none" stroke="#ffdcad" stroke-width="4" stroke-linejoin="round" stroke-linecap="round"/></g><g transform="translate(299.7 152.8) rotate(-44) scale(1.0)"><path d="M-29-12Q21-38 29 4Q20 26-9 12" fill="none" stroke="#f8a077" stroke-width="15" stroke-linejoin="round" stroke-linecap="round"/><path d="M-26-11Q12-28 21-2" fill="none" stroke="#ffdcad" stroke-width="4" stroke-linejoin="round" stroke-linecap="round"/></g><g transform="translate(434.2 200.9) rotate(-28) scale(0.7)"><path d="M-29-12Q21-38 29 4Q20 26-9 12" fill="none" stroke="#f8a077" stroke-width="15" stroke-linejoin="round" stroke-linecap="round"/><path d="M-26-11Q12-28 21-2" fill="none" stroke="#ffdcad" stroke-width="4" stroke-linejoin="round" stroke-linecap="round"/></g><g transform="translate(546.4 232.6) rotate(16) scale(0.9)"><path d="M-29-12Q21-38 29 4Q20 26-9 12" fill="none" stroke="#f8a077" stroke-width="15" stroke-linejoin="round" stroke-linecap="round"/><path d="M-26-11Q12-28 21-2" fill="none" stroke="#ffdcad" stroke-width="4" stroke-linejoin="round" stroke-linecap="round"/></g></g><ellipse cx="360.0" cy="278.0" rx="223" ry="143" fill="none" stroke="#ffecbd" stroke-width="4"/><path d="M112 444Q356 494 604 443" fill="none" stroke="#fff2d2" stroke-opacity=".10" stroke-width="3"/></svg>