<svg xmlns="http://www.w3.org/2000/svg" viewBox="0 0 720 540" width="720" height="540" role="img" aria-label="Грибной бухгалтер"><defs><radialGradient id="bg"><stop stop-color="#49301e"/><stop offset="1" stop-color="#170f0d"/></radialGradient><linearGradient id="plate"><stop stop-color="#fbd698"/><stop offset=".55" stop-color="#7f4228"/><stop offset="1" stop-color="#442322"/></linearGradient><clipPath id="food"><ellipse cx="360" cy="276" rx="228" ry="143"/></clipPath></defs><rect width="720" height="540" fill="url(#bg)"/><ellipse cx="360" cy="464" rx="270" ry="40" fill="#0c0706" opacity=".6"/><ellipse cx="360" cy="275" rx="267" ry="179" fill="url(#plate)" stroke="#c88e56" stroke-width="8"/><ellipse cx="360" cy="276" rx="241" ry="155" fill="#e3bc81" stroke="#f3d298" stroke-width="10"/><g clip-path="url(#food)"><path d="M167.8 167.0q115.6 -25 173.5 0t173.5 0" stroke="#734322" stroke-width="13" fill="none" opacity=".75"/><path d="M167.8 164.0q115.6 -25 173.5 0t173.5 0" stroke="#ffe09b" stroke-width="7" fill="none" stroke-linecap="round"/><path d="M160.8 181.5q111.3 -25 166.9 0t166.9 0" stroke="#734322" stroke-width="13" fill="none" opacity=".75"/><path d="M160.8 178.5q111.3 -25 166.9 0t166.9 0" stroke="#ffc25f" stroke-width="7" fill="none" stroke-linecap="round"/><path d="M190.8 182.8q103.3 -25 155.0 0t155.0 0" stroke="#734322" stroke-width="13" fill="none" opacity=".75"/><path d="M190.8 179.8q103.3 -25 155.0 0t155.0 0" stroke="#ffc25f" stroke-width="7" fill="none" stroke-linecap="round"/><path d="M172.3 174.7q119.9 -25 179.9 0t179.9 0" stroke="#734322" stroke-width="13" fill="none" opacity=".75"/><path d="M172.3 171.7q119.9 -25 179.9 0t179.9 0" stroke="#ffe09b" stroke-width="7" fill="none" stroke-linecap="round"/><path d="M203.9 172.8q117.6 -25 176.4 0t176.4 0" stroke="#734322" stroke-width="13" fill="none" opacity=".75"/><path d="M203.9 169.8q117.6 -25 176.4 0t176.4 0" stroke="#ffc25f" stroke-width="7" fill="none" stroke-linecap="round"/><path d="M198.1 184.9q119.0 -25 178.5 0t178.5 0" stroke="#734322" stroke-width="13" fill="none" opacity=".75"/><path d="M198.1 181.9q119.0 -25 178.5 0t178.5 0" stroke="#ffc25f" stroke-width="7" fill="none" stroke-linecap="round"/><path d="M185.0 200.9q132.8 -25 199.2 0t199.2 0" stroke="#734322" stroke-width="13" fill="none" opacity=".75"/><path d="M185.0 197.9q132.8 -25 199.2 0t199.2 0" stroke="#ffe09b" stroke-width="7" fill="none" stroke-linecap="round"/><path d="M183.6 205.8q125.6 -25 188.4 0t188.4 0" stroke="#734322" stroke-width="13" fill="none" opacity=".75"/><path d="M183.6 202.8q125.6 -25 188.4 0t188.4 0" stroke="#ffc25f" stroke-width="7" fill="none" stroke-linecap="round"/><path d="M211.4 198.7q107.6 -25 161.4 0t161.4 0" stroke="#734322" stroke-width="13" fill="none" opacity=".75"/><path d="M211.4 195.7q107.6 -25 161.4 0t161.4 0" stroke="#ffc25f" stroke-width="7" fill="none" stroke-linecap="round"/><path d="M155.1 194.0q119.2 -25 178.9 0t178.9 0" stroke="#734322" stroke-width="13" fill="none" opacity=".75"/><path d="M155.1 191.0q119.2 -25 178.9 0t178.9 0" stroke="#ffe09b" stroke-width="7" fill="none" stroke-linecap="round"/><path d="M186.4 203.1q104.2 -25 156.4 0t156.4 0" stroke="#734322" stroke-width="13" fill="none" opacity=".75"/><path d="M186.4 200.1q104.2 -25 156.4 0t156.4 0" stroke="#ffc25f" stroke-width="7" fill="none" stroke-linecap="round"/><path d="M183.0 219.7q111.5 -25 167.3 0t167.3 0" stroke="#734322" stroke-width="13" fill="none" opacity=".75"/><path d="M183.0 216.7q111.5 -25 167.3 0t167.3 0" stroke="#ffc25f" stroke-width="7" fill="none" stroke-linecap="round"/><path d="M172.2 228.0q119.8 -25 179.7 0t179.7 0" stroke="#734322" stroke-width="13" fill="none" opacity=".75"/><path d="M172.2 225.0q119.8 -25 179.7 0t179.7 0" stroke="#ffe09b" stroke-width="7" fill="none" stroke-linecap="round"/><path d="M161.3 222.8q128.1 -25 192.1 0t192.1 0" stroke="#734322" stroke-width="13" fill="none" opacity=".75"/><path d="M161.3 219.8q128.1 -25 192.1 0t192.1 0" stroke="#ffc25f" stroke-width="7" fill="none" stroke-linecap="round"/><path d="M175.2 216.0q131.6 -25 197.5 0t197.5 0" stroke="#734322" stroke-width="13" fill="none" opacity=".75"/><path d="M175.2 213.0q131.6 -25 197.5 0t197.5 0" stroke="#ffc25f" stroke-width="7" fill="none" stroke-linecap="round"/><path d="M184.9 221.7q131.8 -25 197.8 0t197.8 0" stroke="#734322" stroke-width="13" fill="none" opacity=".75"/><path d="M184.9 218.7q131.8 -25 197.8 0t197.8 0" stroke="#ffe09b" stroke-width="7" fill="none" stroke-linecap="round"/><path d="M207.2 238.0q135.8 -25 203.7 0t203.7 0" stroke="#734322" stroke-width="13" fill="none" opacity=".75"/><path d="M207.2 235.0q135.8 -25 203.7 0t203.7 0" stroke="#ffc25f" stroke-width="7" fill="none" stroke-linecap="round"/><path d="M152.1 249.4q111.8 -25 167.6 0t167.6 0" stroke="#734322" stroke-width="13" fill="none" opacity=".75"/><path d="M152.1 246.4q111.8 -25 167.6 0t167.6 0" stroke="#ffc25f" stroke-width="7" fill="none" stroke-linecap="round"/><path d="M205.4 246.8q112.1 -25 168.2 0t168.2 0" stroke="#734322" stroke-width="13" fill="none" opacity=".75"/><path d="M205.4 243.8q112.1 -25 168.2 0t168.2 0" stroke="#ffe09b" stroke-width="7" fill="none" stroke-linecap="round"/><path d="M175.5 238.8q128.1 -25 192.1 0t192.1 0" stroke="#734322" stroke-width="13" fill="none" opacity=".75"/><path d="M175.5 235.8q128.1 -25 192.1 0t192.1 0" stroke="#ffc25f" stroke-width="7" fill="none" stroke-linecap="round"/><path d="M176.3 241.0q116.5 -25 174.8 0t174.8 0" stroke="#734322" stroke-width="13" fill="none" opacity=".75"/><path d="M176.3 238.0q116.5 -25 174.8 0t174.8 0" stroke="#ffc25f" stroke-width="7" fill="none" stroke-linecap="round"/><path d="M185.0 255.9q116.0 -25 173.9 0t173.9 0" stroke="#734322" stroke-width="13" fill="none" opacity=".75"/><path d="M185.0 252.9q116.0 -25 173.9 0t173.9 0" stroke="#ffe09b" stroke-width="7" fill="none" stroke-linecap="round"/><path d="M183.4 269.9q121.8 -25 182.7 0t182.7 0" stroke="#734322" stroke-width="13" fill="none" opacity=".75"/><path d="M183.4 266.9q121.8 -25 182.7 0t182.7 0" stroke="#ffc25f" stroke-width="7" fill="none" stroke-linecap="round"/><path d="M203.1 270.5q100.8 -25 151.2 0t151.2 0" stroke="#734322" stroke-width="13" fill="none" opacity=".75"/><path d="M203.1 267.5q100.8 -25 151.2 0t151.2 0" stroke="#ffc25f" stroke-width="7" fill="none" stroke-linecap="round"/><path d="M159.2 262.3q120.0 -25 180.0 0t180.0 0" stroke="#734322" stroke-width="13" fill="none" opacity=".75"/><path d="M159.2 259.3q120.0 -25 180.0 0t180.0 0" stroke="#ffe09b" stroke-width="7" fill="none" stroke-linecap="round"/><path d="M198.2 261.1q131.6 -25 197.4 0t197.4 0" stroke="#734322" stroke-width="13" fill="none" opacity=".75"/><path d="M198.2 258.1q131.6 -25 197.4 0t197.4 0" stroke="#ffc25f" stroke-width="7" fill="none" stroke-linecap="round"/><path d="M175.0 273.8q126.0 -25 189.0 0t189.0 0" stroke="#734322" stroke-width="13" fill="none" opacity=".75"/><path d="M175.0 270.8q126.0 -25 189.0 0t189.0 0" stroke="#ffc25f" stroke-width="7" fill="none" stroke-linecap="round"/><path d="M192.4 289.6q127.7 -25 191.5 0t191.5 0" stroke="#734322" stroke-width="13" fill="none" opacity=".75"/><path d="M192.4 286.6q127.7 -25 191.5 0t191.5 0" stroke="#ffe09b" stroke-width="7" fill="none" stroke-linecap="round"/><path d="M205.1 293.6q136.2 -25 204.4 0t204.4 0" stroke="#734322" stroke-width="13" fill="none" opacity=".75"/><path d="M205.1 290.6q136.2 -25 204.4 0t204.4 0" stroke="#ffc25f" stroke-width="7" fill="none" stroke-linecap="round"/><path d="M195.0 286.2q100.1 -25 150.2 0t150.2 0" stroke="#734322" stroke-width="13" fill="none" opacity=".75"/><path d="M195.0 283.2q100.1 -25 150.2 0t150.2 0" stroke="#ffc25f" stroke-width="7" fill="none" stroke-linecap="round"/><path d="M192.6 282.1q104.7 -25 157.0 0t157.0 0" stroke="#734322" stroke-width="13" fill="none" opacity=".75"/><path d="M192.6 279.1q104.7 -25 157.0 0t157.0 0" stroke="#ffe09b" stroke-width="7" fill="none" stroke-linecap="round"/><path d="M182.6 291.9q118.0 -25 177.1 0t177.1 0" stroke="#734322" stroke-width="13" fill="none" opacity=".75"/><path d="M182.6 288.9q118.0 -25 177.1 0t177.1 0" stroke="#ffc25f" stroke-width="7" fill="none" stroke-linecap="round"/><path d="M191.2 308.5q117.7 -25 176.5 0t176.5 0" stroke="#734322" stroke-width="13" fill="none" opacity=".75"/><path d="M191.2 305.5q117.7 -25 176.5 0t176.5 0" stroke="#ffc25f" stroke-width="7" fill="none" stroke-linecap="round"/><path d="M221.9 316.0q132.5 -25 198.8 0t198.8 0" stroke="#734322" stroke-width="13" fill="none" opacity=".75"/><path d="M221.9 313.0q132.5 -25 198.8 0t198.8 0" stroke="#ffe09b" stroke-width="7" fill="none" stroke-linecap="round"/><path d="M161.2 310.2q115.7 -25 173.5 0t173.5 0" stroke="#734322" stroke-width="13" fill="none" opacity=".75"/><path d="M161.2 307.2q115.7 -25 173.5 0t173.5 0" stroke="#ffc25f" stroke-width="7" fill="none" stroke-linecap="round"/><path d="M221.0 303.9q110.7 -25 166.1 0t166.1 0" stroke="#734322" stroke-width="13" fill="none" opacity=".75"/><path d="M221.0 300.9q110.7 -25 166.1 0t166.1 0" stroke="#ffc25f" stroke-width="7" fill="none" stroke-linecap="round"/><path d="M211.9 310.4q130.7 -25 196.1 0t196.1 0" stroke="#734322" stroke-width="13" fill="none" opacity=".75"/><path d="M211.9 307.4q130.7 -25 196.1 0t196.1 0" stroke="#ffe09b" stroke-width="7" fill="none" stroke-linecap="round"/><path d="M211.2 326.9q134.1 -25 201.1 0t201.1 0" stroke="#734322" stroke-width="13" fill="none" opacity=".75"/><path d="M211.2 323.9q134.1 -25 201.1 0t201.1 0" stroke="#ffc25f" stroke-width="7" fill="none" stroke-linecap="round"/><path d="M203.9 337.6q113.1 -25 169.7 0t169.7 0" stroke="#734322" stroke-width="13" fill="none" opacity=".75"/><path d="M203.9 334.6q113.1 -25 169.7 0t169.7 0" stroke="#ffc25f" stroke-width="7" fill="none" stroke-linecap="round"/><path d="M189.5 334.3q124.7 -25 187.0 0t187.0 0" stroke="#734322" stroke-width="13" fill="none" opacity=".75"/><path d="M189.5 331.3q124.7 -25 187.0 0t187.0 0" stroke="#ffe09b" stroke-width="7" fill="none" stroke-linecap="round"/><path d="M166.0 326.5q115.4 -25 173.1 0t173.1 0" stroke="#734322" stroke-width="13" fill="none" opacity=".75"/><path d="M166.0 323.5q115.4 -25 173.1 0t173.1 0" stroke="#ffc25f" stroke-width="7" fill="none" stroke-linecap="round"/><path d="M178.0 329.6q119.4 -25 179.0 0t179.0 0" stroke="#734322" stroke-width="13" fill="none" opacity=".75"/><path d="M178.0 326.6q119.4 -25 179.0 0t179.0 0" stroke="#ffc25f" stroke-width="7" fill="none" stroke-linecap="round"/><path d="M197.3 344.9q106.8 -25 160.2 0t160.2 0" stroke="#734322" stroke-width="13" fill="none" opacity=".75"/><path d="M197.3 341.9q106.8 -25 160.2 0t160.2 0" stroke="#ffe09b" stroke-width="7" fill="none" stroke-linecap="round"/><path d="M197.0 358.3q113.1 -25 169.7 0t169.7 0" stroke="#734322" stroke-width="13" fill="none" opacity=".75"/><path d="M197.0 355.3q113.1 -25 169.7 0t169.7 0" stroke="#ffc25f" stroke-width="7" fill="none" stroke-linecap="round"/><path d="M154.1 358.1q133.3 -25 200.0 0t200.0 0" stroke="#734322" stroke-width="13" fill="none" opacity=".75"/><path d="M154.1 355.1q133.3 -25 200.0 0t200.0 0" stroke="#ffc25f" stroke-width="7" fill="none" stroke-linecap="round"/><path d="M211.9 349.9q117.0 -25 175.5 0t175.5 0" stroke="#734322" stroke-width="13" fill="none" opacity=".75"/><path d="M211.9 346.9q117.0 -25 175.5 0t175.5 0" stroke="#ffe09b" stroke-width="7" fill="none" stroke-linecap="round"/><path d="M205.7 349.5q113.4 -25 170.1 0t170.1 0" stroke="#734322" stroke-width="13" fill="none" opacity=".75"/><path d="M205.7 346.5q113.4 -25 170.1 0t170.1 0" stroke="#ffc25f" stroke-width="7" fill="none" stroke-linecap="round"/><path d="M205.4 362.8q130.4 -25 195.7 0t195.7 0" stroke="#734322" stroke-width="13" fill="none" opacity=".75"/><path d="M205.4 359.8q130.4 -25 195.7 0t195.7 0" stroke="#ffc25f" stroke-width="7" fill="none" stroke-linecap="round"/><path d="M215.2 378.1q113.6 -25 170.4 0t170.4 0" stroke="#734322" stroke-width="13" fill="none" opacity=".75"/><path d="M215.2 375.1q113.6 -25 170.4 0t170.4 0" stroke="#ffe09b" stroke-width="7" fill="none" stroke-linecap="round"/><path d="M192.1 381.3q104.1 -25 156.2 0t156.2 0" stroke="#734322" stroke-width="13" fill="none" opacity=".75"/><path d="M192.1 378.3q104.1 -25 156.2 0t156.2 0" stroke="#ffc25f" stroke-width="7" fill="none" stroke-linecap="round"/><g transform="translate(229.69122941885144 226.79829354025424) scale(1.1168375689745882)"><ellipse rx="32" ry="24" fill="#fff1ce" stroke="#e5d09e" stroke-width="4"/><circle r="14" fill="#f49a22" stroke="#ffe178" stroke-width="4"/><circle cx="-4" cy="-5" r="4" fill="#ffeab0"/></g><g transform="translate(376.01468969509006 318.9151767557487) scale(0.854778548735194)"><path d="M-17 3Q-15-23 1-22Q17-21 17 3Z" fill="#b78250" stroke="#f2d5a6" stroke-width="4"/><path d="M-6 1V16H6V1" fill="#e5cb99"/></g><g transform="translate(460.2099159602076 322.90191743616015) scale(1.157277630988974)"><path d="M-17 3Q-15-23 1-22Q17-21 17 3Z" fill="#b78250" stroke="#f2d5a6" stroke-width="4"/><path d="M-6 1V16H6V1" fill="#e5cb99"/></g><g transform="translate(406.7200023755431 273.68130841385573) scale(1.142166104502976)"><path d="M-17 3Q-15-23 1-22Q17-21 17 3Z" fill="#b78250" stroke="#f2d5a6" stroke-width="4"/><path d="M-6 1V16H6V1" fill="#e5cb99"/></g><g transform="translate(487.06677461229265 336.94183876831084) scale(0.6785419983766042)"><path d="M-17 3Q-15-23 1-22Q17-21 17 3Z" fill="#b78250" stroke="#f2d5a6" stroke-width="4"/><path d="M-6 1V16H6V1" fill="#e5cb99"/></g><g transform="translate(477.03947911038995 225.27046273555607) scale(1.2132919994043188)"><path d="M-17 3Q-15-23 1-22Q17-21 17 3Z" fill="#b78250" stroke="#f2d5a6" stroke-width="4"/><path d="M-6 1V16H6V1" fill="#e5cb99"/></g><g transform="translate(454.1935988282785 168.9483592994511) scale(1.0509037734684534)"><path d="M-21-14L23-10 12 19 -22 12Z" fill="#ffdc70" stroke="#fff3ba" stroke-width="3"/><circle cx="3" cy="-2" r="4" fill="#e7a836"/></g><g transform="translate(360.44793697912246 206.6632201950997) scale(1.1469767598062754)"><path d="M-21-14L23-10 12 19 -22 12Z" fill="#ffdc70" stroke="#fff3ba" stroke-width="3"/><circle cx="3" cy="-2" r="4" fill="#e7a836"/></g><g transform="translate(340.8424709616229 299.8970805630088) scale(0.7845607228553855)"><path d="M-21-14L23-10 12 19 -22 12Z" fill="#ffdc70" stroke="#fff3ba" stroke-width="3"/><circle cx="3" cy="-2" r="4" fill="#e7a836"/></g><g transform="translate(396.01764016691595 179.4346099216491) scale(0.9306550427200273)"><path d="M-21-14L23-10 12 19 -22 12Z" fill="#ffdc70" stroke="#fff3ba" stroke-width="3"/><circle cx="3" cy="-2" r="4" fill="#e7a836"/></g><g transform="translate(406.6487417360768 208.1089559160173) scale(1.2284277357370592)"><path d="M-21-14L23-10 12 19 -22 12Z" fill="#ffdc70" stroke="#fff3ba" stroke-width="3"/><circle cx="3" cy="-2" r="4" fill="#e7a836"/></g><g transform="translate(416.77175911236554 178.20290551148355) scale(0.9702719109226019)"><path d="M-21-14L23-10 12 19 -22 12Z" fill="#ffdc70" stroke="#fff3ba" stroke-width="3"/><circle cx="3" cy="-2" r="4" fill="#e7a836"/></g><g transform="translate(229.21130747813731 230.17707173340023) scale(0.6906046927650459)"><ellipse rx="12" ry="6" fill="#459447" stroke="#b2db77" stroke-width="2"/><path d="M-8 0H8" stroke="#e2f4a8" stroke-width="2"/></g><g transform="translate(364.94939059298486 267.0866080895066) scale(0.7196689203940332)"><ellipse rx="12" ry="6" fill="#459447" stroke="#b2db77" stroke-width="2"/><path d="M-8 0H8" stroke="#e2f4a8" stroke-width="2"/></g><g transform="translate(305.2660282040015 237.02175347693264) scale(0.6531630604504608)"><ellipse rx="12" ry="6" fill="#459447" stroke="#b2db77" stroke-width="2"/><path d="M-8 0H8" stroke="#e2f4a8" stroke-width="2"/></g><g transform="translate(441.98168194200844 334.7334182970226) scale(0.8366404855484143)"><ellipse rx="12" ry="6" fill="#459447" stroke="#b2db77" stroke-width="2"/><path d="M-8 0H8" stroke="#e2f4a8" stroke-width="2"/></g><g transform="translate(457.57919651735574 273.7547328379005) scale(1.0976516566448846)"><ellipse rx="12" ry="6" fill="#459447" stroke="#b2db77" stroke-width="2"/><path d="M-8 0H8" stroke="#e2f4a8" stroke-width="2"/></g><g transform="translate(481.4304461432621 288.15676169097424) scale(0.7172210087161511)"><ellipse rx="12" ry="6" fill="#459447" stroke="#b2db77" stroke-width="2"/><path d="M-8 0H8" stroke="#e2f4a8" stroke-width="2"/></g><g transform="translate(406.0761425802484 179.85017764009535) scale(0.8929774337890558)"><ellipse rx="12" ry="6" fill="#459447" stroke="#b2db77" stroke-width="2"/><path d="M-8 0H8" stroke="#e2f4a8" stroke-width="2"/></g><g transform="translate(376.55245714541525 261.59158642962575) scale(1.1564219104452058)"><ellipse rx="12" ry="6" fill="#459447" stroke="#b2db77" stroke-width="2"/><path d="M-8 0H8" stroke="#e2f4a8" stroke-width="2"/></g><g transform="translate(479.1917027803138 190.0133500676602) scale(0.923927988645155)"><ellipse rx="12" ry="6" fill="#459447" stroke="#b2db77" stroke-width="2"/><path d="M-8 0H8" stroke="#e2f4a8" stroke-width="2"/></g><g transform="translate(269.4508120417595 221.8228862164542) scale(1.118482414293103)"><ellipse rx="19" ry="10" fill="#549449" stroke="#e8e0aa" stroke-width="2"/><path d="M-14 0L14 0" stroke="#ffffff" opacity=".35" stroke-width="3"/></g><g transform="translate(311.1458356808871 199.73467545676976) scale(1.0840954094869084)"><ellipse rx="19" ry="10" fill="#549449" stroke="#e8e0aa" stroke-width="2"/><path d="M-14 0L14 0" stroke="#ffffff" opacity=".35" stroke-width="3"/></g><g transform="translate(418.20880598947406 290.1065809195861) scale(0.7549203786626458)"><ellipse rx="19" ry="10" fill="#549449" stroke="#e8e0aa" stroke-width="2"/><path d="M-14 0L14 0" stroke="#ffffff" opacity=".35" stroke-width="3"/></g><g transform="translate(305.7487850431353 221.54383782390505) scale(0.7867376228771172)"><ellipse rx="19" ry="10" fill="#549449" stroke="#e8e0aa" stroke-width="2"/><path d="M-14 0L14 0" stroke="#ffffff" opacity=".35" stroke-width="3"/></g><g transform="translate(481.3897685036063 239.76857611071318) scale(0.6851637159334496)"><ellipse rx="19" ry="10" fill="#549449" stroke="#e8e0aa" stroke-width="2"/><path d="M-14 0L14 0" stroke="#ffffff" opacity=".35" stroke-width="3"/></g><g transform="translate(397.995348399505 277.86262592393905) scale(1.1777083074883559)"><ellipse rx="19" ry="10" fill="#549449" stroke="#e8e0aa" stroke-width="2"/><path d="M-14 0L14 0" stroke="#ffffff" opacity=".35" stroke-width="3"/></g><g transform="translate(219.39453557506204 285.85633139219135) scale(1.163966237762943)"><ellipse rx="19" ry="10" fill="#549449" stroke="#e8e0aa" stroke-width="2"/><path d="M-14 0L14 0" stroke="#ffffff" opacity=".35" stroke-width="3"/></g><g transform="translate(204.6041049035266 221.1397593896836) scale(0.7244658856396563)"><ellipse rx="19" ry="10" fill="#f6a342" stroke="#e8e0aa" stroke-width="2"/><path d="M-14 0L14 0" stroke="#ffffff" opacity=".35" stroke-width="3"/></g><g transform="translate(273.0830557523295 183.35206528753042) scale(0.7217385313101113)"><ellipse rx="19" ry="10" fill="#f6a342" stroke="#e8e0aa" stroke-width="2"/><path d="M-14 0L14 0" stroke="#ffffff" opacity=".35" stroke-width="3"/></g><g transform="translate(445.96071051899344 239.3460102993995) scale(1.2222731453343294)"><ellipse rx="19" ry="10" fill="#f6a342" stroke="#e8e0aa" stroke-width="2"/><path d="M-14 0L14 0" stroke="#ffffff" opacity=".35" stroke-width="3"/></g><g transform="translate(202.50181336607784 259.4060665331781) scale(1.150681807086803)"><ellipse rx="19" ry="10" fill="#f6a342" stroke="#e8e0aa" stroke-width="2"/><path d="M-14 0L14 0" stroke="#ffffff" opacity=".35" stroke-width="3"/></g><g transform="translate(387.0151443677023 268.682605182752) scale(0.7283853431441821)"><ellipse rx="19" ry="10" fill="#f6a342" stroke="#e8e0aa" stroke-width="2"/><path d="M-14 0L14 0" stroke="#ffffff" opacity=".35" stroke-width="3"/></g><g transform="translate(229.8853417141363 313.8182164132595) scale(0.706741252085194)"><ellipse rx="19" ry="10" fill="#f6a342" stroke="#e8e0aa" stroke-width="2"/><path d="M-14 0L14 0" stroke="#ffffff" opacity=".35" stroke-width="3"/></g><g transform="translate(323.4274167874828 205.8817074690014) scale(1.1260712898778729)"><ellipse rx="19" ry="10" fill="#f6a342" stroke="#e8e0aa" stroke-width="2"/><path d="M-14 0L14 0" stroke="#ffffff" opacity=".35" stroke-width="3"/></g><g transform="translate(362.8388644522056 237.73722041025758) scale(0.8572281487612055)"><ellipse rx="19" ry="10" fill="#f6a342" stroke="#e8e0aa" stroke-width="2"/><path d="M-14 0L14 0" stroke="#ffffff" opacity=".35" stroke-width="3"/></g><g transform="translate(499.20786465425044 336.8860671352595) scale(1.127760927726049)"><ellipse rx="19" ry="10" fill="#f6a342" stroke="#e8e0aa" stroke-width="2"/><path d="M-14 0L14 0" stroke="#ffffff" opacity=".35" stroke-width="3"/></g><g transform="translate(256.28752823174 331.76878151576966) scale(1.073111682604067)"><ellipse rx="19" ry="12" fill="#399251" stroke="#1f6740" stroke-width="4"/><ellipse rx="13" ry="9" fill="#d3dfaa"/></g><g transform="translate(436.4452657084912 337.4498830186203) scale(1.2669307170179673)"><ellipse rx="19" ry="12" fill="#399251" stroke="#1f6740" stroke-width="4"/><ellipse rx="13" ry="9" fill="#d3dfaa"/></g><g transform="translate(498.7306782864034 233.99046807643026) scale(0.7951885142922401)"><ellipse rx="19" ry="12" fill="#399251" stroke="#1f6740" stroke-width="4"/><ellipse rx="13" ry="9" fill="#d3dfaa"/></g><g transform="translate(318.51122800447047 215.48889782372862) scale(0.7551964733726345)"><ellipse rx="19" ry="12" fill="#399251" stroke="#1f6740" stroke-width="4"/><ellipse rx="13" ry="9" fill="#d3dfaa"/></g><g transform="translate(412.91644183546305 210.10714442562312) scale(0.8032847667904571)"><ellipse rx="19" ry="12" fill="#399251" stroke="#1f6740" stroke-width="4"/><ellipse rx="13" ry="9" fill="#d3dfaa"/></g><g transform="translate(407.5181408729404 306.4244364025071) scale(0.719886067903135)"><ellipse rx="19" ry="12" fill="#399251" stroke="#1f6740" stroke-width="4"/><ellipse rx="13" ry="9" fill="#d3dfaa"/></g><g transform="translate(338.0469854362309 268.25800600554794) scale(0.7006206480879337)"><ellipse rx="19" ry="12" fill="#399251" stroke="#1f6740" stroke-width="4"/><ellipse rx="13" ry="9" fill="#d3dfaa"/></g><g transform="translate(220.32933698315173 295.149002565071) scale(1.0711228607199155)"><ellipse rx="18" ry="13" fill="#db4631" stroke="#ff9971" stroke-width="3"/><ellipse rx="9" ry="7" fill="#f5a45b"/></g><g transform="translate(335.39915404003114 194.46099115163088) scale(1.2731839996622876)"><ellipse rx="18" ry="13" fill="#db4631" stroke="#ff9971" stroke-width="3"/><ellipse rx="9" ry="7" fill="#f5a45b"/></g><g transform="translate(208.65163058880717 271.0904951263219) scale(1.0904820515052416)"><ellipse rx="18" ry="13" fill="#db4631" stroke="#ff9971" stroke-width="3"/><ellipse rx="9" ry="7" fill="#f5a45b"/></g><g transform="translate(428.2777269175276 268.8072084598243) scale(0.7302259445283562)"><ellipse rx="18" ry="13" fill="#db4631" stroke="#ff9971" stroke-width="3"/><ellipse rx="9" ry="7" fill="#f5a45b"/></g><g transform="translate(309.3589358078316 295.70930965803564) scale(0.9837602444435469)"><ellipse rx="18" ry="13" fill="#db4631" stroke="#ff9971" stroke-width="3"/><ellipse rx="9" ry="7" fill="#f5a45b"/></g><g transform="translate(449.7980305207893 243.37663711607456) scale(0.7143265773868188)"><ellipse rx="18" ry="13" fill="#db4631" stroke="#ff9971" stroke-width="3"/><ellipse rx="9" ry="7" fill="#f5a45b"/></g><g transform="translate(299.0698411045596 179.87078597396612) scale(0.8432069725100882)"><ellipse rx="19" ry="10" fill="#d93631" stroke="#e8e0aa" stroke-width="2"/><path d="M-14 0L14 0" stroke="#ffffff" opacity=".35" stroke-width="3"/></g><g transform="translate(241.52730076853186 284.13816324062645) scale(0.7793615369684994)"><ellipse rx="19" ry="10" fill="#d93631" stroke="#e8e0aa" stroke-width="2"/><path d="M-14 0L14 0" stroke="#ffffff" opacity=".35" stroke-width="3"/></g><g transform="translate(269.87037266697735 227.03473537787795) scale(0.85576667384943)"><ellipse rx="19" ry="10" fill="#d93631" stroke="#e8e0aa" stroke-width="2"/><path d="M-14 0L14 0" stroke="#ffffff" opacity=".35" stroke-width="3"/></g><g transform="translate(264.141571004875 340.05502030812204) scale(0.7662334047118202)"><ellipse rx="19" ry="10" fill="#d93631" stroke="#e8e0aa" stroke-width="2"/><path d="M-14 0L14 0" stroke="#ffffff" opacity=".35" stroke-width="3"/></g><g transform="translate(386.6328520877287 319.3461553156376) scale(1.1014221248426475)"><ellipse rx="19" ry="10" fill="#d93631" stroke="#e8e0aa" stroke-width="2"/><path d="M-14 0L14 0" stroke="#ffffff" opacity=".35" stroke-width="3"/></g><g transform="translate(275.1522387722507 253.33916077949107) scale(1.005797890117392)"><ellipse rx="19" ry="10" fill="#d93631" stroke="#e8e0aa" stroke-width="2"/><path d="M-14 0L14 0" stroke="#ffffff" opacity=".35" stroke-width="3"/></g><g transform="translate(428.6224151318893 203.95594853535295) scale(0.826491834174376)"><ellipse rx="19" ry="10" fill="#d93631" stroke="#e8e0aa" stroke-width="2"/><path d="M-14 0L14 0" stroke="#ffffff" opacity=".35" stroke-width="3"/></g><g transform="translate(303.3447874309495 218.05467252247036) scale(1.2637232855288312)"><ellipse rx="19" ry="10" fill="#d93631" stroke="#e8e0aa" stroke-width="2"/><path d="M-14 0L14 0" stroke="#ffffff" opacity=".35" stroke-width="3"/></g><circle cx="399.0328353596851" cy="268.16905276477337" r="6.25186234874418" fill="#ffcd49" stroke="#ffedb2" stroke-width="2"/><circle cx="228.41324535105377" cy="269.8442392293364" r="5.643264318048022" fill="#ffcd49" stroke="#ffedb2" stroke-width="2"/><circle cx="245.5297834193334" cy="286.66404481604695" r="4.0062197967083195" fill="#ffcd49" stroke="#ffedb2" stroke-width="2"/><circle cx="503.41074639279395" cy="267.2362343650311" r="3.2243368269875643" fill="#ffcd49" stroke="#ffedb2" stroke-width="2"/><circle cx="510.0976976631209" cy="341.03808050602674" r="5.2241623876499945" fill="#ffcd49" stroke="#ffedb2" stroke-width="2"/><circle cx="295.8283514017239" cy="270.64113325066864" r="4.365524018579163" fill="#ffcd49" stroke="#ffedb2" stroke-width="2"/><circle cx="298.233067615889" cy="235.47071858868003" r="5.834246392466593" fill="#ffcd49" stroke="#ffedb2" stroke-width="2"/><circle cx="448.39407913852483" cy="190.87213874422014" r="6.193641368346289" fill="#ffcd49" stroke="#ffedb2" stroke-width="2"/><circle cx="393.7689153952524" cy="337.44695299863815" r="3.8658675181097353" fill="#ffcd49" stroke="#ffedb2" stroke-width="2"/><circle cx="468.72558154258877" cy="166.97037423588336" r="6.347802518564276" fill="#ffcd49" stroke="#ffedb2" stroke-width="2"/><circle cx="315.5268953209743" cy="228.95472261682153" r="5.204434113914614" fill="#ffcd49" stroke="#ffedb2" stroke-width="2"/><circle cx="205.78497771639377" cy="262.3340340387076" r="4.160684632416815" fill="#ffcd49" stroke="#ffedb2" stroke-width="2"/><circle cx="378.4342372743413" cy="306.0613272860646" r="6.304994510009419" fill="#ffcd49" stroke="#ffedb2" stroke-width="2"/><circle cx="400.8922816598788" cy="196.8826900292188" r="3.203994340193458" fill="#ffcd49" stroke="#ffedb2" stroke-width="2"/><circle cx="311.04303380753845" cy="288.431250076741" r="6.396331427257974" fill="#ffcd49" stroke="#ffedb2" stroke-width="2"/><circle cx="283.30218060687184" cy="197.47779714968055" r="7.438529090126976" fill="#5dba53" stroke="#c8e387" stroke-width="2"/><circle cx="364.9029280859977" cy="313.79293814394623" r="4.094408699437045" fill="#5dba53" stroke="#c8e387" stroke-width="2"/><circle cx="400.12548199296" cy="177.96242405753583" r="4.601095540691167" fill="#5dba53" stroke="#c8e387" stroke-width="2"/><circle cx="459.00737310759723" cy="255.3211787538603" r="6.915534059037454" fill="#5dba53" stroke="#c8e387" stroke-width="2"/><circle cx="250.37872998043895" cy="241.53566620405763" r="4.290284412922338" fill="#5dba53" stroke="#c8e387" stroke-width="2"/><circle cx="372.78139972127974" cy="264.2352457726374" r="4.623084648172371" fill="#5dba53" stroke="#c8e387" stroke-width="2"/><circle cx="438.93317376822233" cy="340.3909029914066" r="6.8346642100811" fill="#5dba53" stroke="#c8e387" stroke-width="2"/><circle cx="395.62725535593927" cy="297.18793785292655" r="6.804950337843038" fill="#5dba53" stroke="#c8e387" stroke-width="2"/><circle cx="263.0000741519034" cy="193.06497390475124" r="7.121763277156278" fill="#5dba53" stroke="#c8e387" stroke-width="2"/><circle cx="374.36227227933705" cy="304.0486826756969" r="3.8795736485486856" fill="#5dba53" stroke="#c8e387" stroke-width="2"/><circle cx="511.0181546956301" cy="249.75189921539277" r="5.0880155940167615" fill="#5dba53" stroke="#c8e387" stroke-width="2"/><circle cx="206.4481156449765" cy="274.67233577836305" r="7.317295842510648" fill="#5dba53" stroke="#c8e387" stroke-width="2"/><circle cx="293.64652165398" cy="314.9798819338903" r="6.022920130575075" fill="#5dba53" stroke="#c8e387" stroke-width="2"/><circle cx="431.0442502889782" cy="200.06251063290983" r="5.191010572048835" fill="#5dba53" stroke="#c8e387" stroke-width="2"/><circle cx="295.05055264383554" cy="262.9640910131857" r="4.933104681931436" fill="#5dba53" stroke="#c8e387" stroke-width="2"/><ellipse cx="428.17149169091135" cy="342.17966093309224" rx="4" ry="2" fill="#faf0d0"/><ellipse cx="487.4654299309477" cy="320.8468108586967" rx="4" ry="2" fill="#faf0d0"/><ellipse cx="307.9246171461418" cy="250.5553133096546" rx="4" ry="2" fill="#faf0d0"/><ellipse cx="351.8875565780327" cy="266.3667571693659" rx="4" ry="2" fill="#faf0d0"/><ellipse cx="393.302140773274" cy="206.41854556836188" rx="4" ry="2" fill="#faf0d0"/><ellipse cx="468.93996890541166" cy="217.73783783987164" rx="4" ry="2" fill="#faf0d0"/><ellipse cx="337.21753665525466" cy="248.75867751054466" rx="4" ry="2" fill="#faf0d0"/><ellipse cx="307.64138849359006" cy="268.1150602325797" rx="4" ry="2" fill="#faf0d0"/><ellipse cx="453.2654159599915" cy="315.00535181351006" rx="4" ry="2" fill="#faf0d0"/><ellipse cx="282.26332928147167" cy="173.55237274989486" rx="4" ry="2" fill="#faf0d0"/><ellipse cx="352.5279234247282" cy="288.3686219211668" rx="4" ry="2" fill="#faf0d0"/><ellipse cx="452.86110342573375" cy="187.22751834988594" rx="4" ry="2" fill="#faf0d0"/><ellipse cx="355.56472759041935" cy="165.58919618465006" rx="4" ry="2" fill="#faf0d0"/><ellipse cx="235.83217091020197" cy="282.98329431191087" rx="4" ry="2" fill="#faf0d0"/><ellipse cx="431.02410478610545" cy="179.16133825294673" rx="4" ry="2" fill="#faf0d0"/><ellipse cx="393.43933290522546" cy="324.7477182522416" rx="4" ry="2" fill="#faf0d0"/><ellipse cx="339.312616863288" cy="213.09092371352017" rx="4" ry="2" fill="#faf0d0"/><g transform="translate(281.4947651512921 281.66129144933075) scale(1.2074556480953471)"><rect x="-22" y="-12" width="44" height="24" rx="9" fill="#9c583c" stroke="#f9b77c" stroke-width="3"/><path d="M-12-3L9 4" stroke="#ffd7a0" stroke-width="4" opacity=".8"/></g><g transform="translate(419.0602812785655 313.97684514615685) scale(0.6560900897928513)"><rect x="-22" y="-12" width="44" height="24" rx="9" fill="#9c583c" stroke="#f9b77c" stroke-width="3"/><path d="M-12-3L9 4" stroke="#ffd7a0" stroke-width="4" opacity=".8"/></g><g transform="translate(290.93493789434433 274.56104849558324) scale(1.2001566282566638)"><rect x="-22" y="-12" width="44" height="24" rx="9" fill="#9c583c" stroke="#f9b77c" stroke-width="3"/><path d="M-12-3L9 4" stroke="#ffd7a0" stroke-width="4" opacity=".8"/></g><g transform="translate(257.7201848458499 241.05709867645055) scale(1.055093105460983)"><rect x="-22" y="-12" width="44" height="24" rx="9" fill="#9c583c" stroke="#f9b77c" stroke-width="3"/><path d="M-12-3L9 4" stroke="#ffd7a0" stroke-width="4" opacity=".8"/></g><g transform="translate(218.97034807130694 213.68277496751398) scale(1.1948116246936844)"><rect x="-22" y="-12" width="44" height="24" rx="9" fill="#9c583c" stroke="#f9b77c" stroke-width="3"/><path d="M-12-3L9 4" stroke="#ffd7a0" stroke-width="4" opacity=".8"/></g><g transform="translate(453.913508201018 281.8178487205878) scale(0.713037437174935)"><rect x="-22" y="-12" width="44" height="24" rx="9" fill="#9c583c" stroke="#f9b77c" stroke-width="3"/><path d="M-12-3L9 4" stroke="#ffd7a0" stroke-width="4" opacity=".8"/></g><g transform="translate(337.412796638906 343.9560563219711) scale(0.6835577908530831)"><rect x="-22" y="-12" width="44" height="24" rx="9" fill="#9c583c" stroke="#f9b77c" stroke-width="3"/><path d="M-12-3L9 4" stroke="#ffd7a0" stroke-width="4" opacity=".8"/></g><g transform="translate(316.3744549760595 320.2277559284121) scale(0.796390898290556)"><rect x="-22" y="-12" width="44" height="24" rx="9" fill="#d5b39c" stroke="#f9b77c" stroke-width="3"/><path d="M-12-3L9 4" stroke="#ffd7a0" stroke-width="4" opacity=".8"/></g><g transform="translate(426.58642318006605 283.98553859069943) scale(0.8034212699485943)"><rect x="-22" y="-12" width="44" height="24" rx="9" fill="#d5b39c" stroke="#f9b77c" stroke-width="3"/><path d="M-12-3L9 4" stroke="#ffd7a0" stroke-width="4" opacity=".8"/></g><g transform="translate(467.29063573200256 247.1869378965348) scale(1.0828053662297317)"><rect x="-22" y="-12" width="44" height="24" rx="9" fill="#d5b39c" stroke="#f9b77c" stroke-width="3"/><path d="M-12-3L9 4" stroke="#ffd7a0" stroke-width="4" opacity=".8"/></g><g transform="translate(483.40583803039044 170.3484263047576) scale(1.0456677263230085)"><rect x="-22" y="-12" width="44" height="24" rx="9" fill="#d5b39c" stroke="#f9b77c" stroke-width="3"/><path d="M-12-3L9 4" stroke="#ffd7a0" stroke-width="4" opacity=".8"/></g><g transform="translate(336.80412840191275 316.9006999451667) scale(0.8156019881344401)"><rect x="-22" y="-12" width="44" height="24" rx="9" fill="#d5b39c" stroke="#f9b77c" stroke-width="3"/><path d="M-12-3L9 4" stroke="#ffd7a0" stroke-width="4" opacity=".8"/></g><g transform="translate(272.3424140950665 306.0741537772119) scale(0.7427436611475423)"><rect x="-22" y="-12" width="44" height="24" rx="9" fill="#d5b39c" stroke="#f9b77c" stroke-width="3"/><path d="M-12-3L9 4" stroke="#ffd7a0" stroke-width="4" opacity=".8"/></g><g transform="translate(516.063063508831 245.67472446337342) scale(1.1208436707011424)"><rect x="-22" y="-12" width="44" height="24" rx="9" fill="#e88d75" stroke="#f9b77c" stroke-width="3"/><path d="M-12-3L9 4" stroke="#ffd7a0" stroke-width="4" opacity=".8"/></g><g transform="translate(488.55868686456233 269.29471109621227) scale(0.9044180014031008)"><rect x="-22" y="-12" width="44" height="24" rx="9" fill="#e88d75" stroke="#f9b77c" stroke-width="3"/><path d="M-12-3L9 4" stroke="#ffd7a0" stroke-width="4" opacity=".8"/></g><g transform="translate(345.0420659808442 173.9536833539605) scale(1.2172296786890366)"><rect x="-22" y="-12" width="44" height="24" rx="9" fill="#e88d75" stroke="#f9b77c" stroke-width="3"/><path d="M-12-3L9 4" stroke="#ffd7a0" stroke-width="4" opacity=".8"/></g><g transform="translate(372.77515361551195 282.00785158760846) scale(0.9243640508595854)"><rect x="-22" y="-12" width="44" height="24" rx="9" fill="#e88d75" stroke="#f9b77c" stroke-width="3"/><path d="M-12-3L9 4" stroke="#ffd7a0" stroke-width="4" opacity=".8"/></g><g transform="translate(345.3518183818087 284.8104516379535) scale(1.2152012337441556)"><rect x="-22" y="-12" width="44" height="24" rx="9" fill="#e88d75" stroke="#f9b77c" stroke-width="3"/><path d="M-12-3L9 4" stroke="#ffd7a0" stroke-width="4" opacity=".8"/></g><g transform="translate(236.24193501938134 179.6563630606979) scale(1.2770421729749069)"><rect x="-22" y="-12" width="44" height="24" rx="9" fill="#e88d75" stroke="#f9b77c" stroke-width="3"/><path d="M-12-3L9 4" stroke="#ffd7a0" stroke-width="4" opacity=".8"/></g><g transform="translate(290.15670269262046 213.07102666795254) scale(1.116415239193011)"><rect x="-22" y="-12" width="44" height="24" rx="9" fill="#e88d75" stroke="#f9b77c" stroke-width="3"/><path d="M-12-3L9 4" stroke="#ffd7a0" stroke-width="4" opacity=".8"/></g><g transform="translate(216.3230301514268 266.7368701202795) scale(0.9890728208562359)"><path d="M-13-15C25-35 31 14 0 18" fill="none" stroke="#ffb384" stroke-width="13"/><path d="M-13-15C25-35 31 14 0 18" fill="none" stroke="#fee5a7" stroke-width="3"/></g><g transform="translate(256.82458384893835 319.522639346309) scale(1.0305799084459433)"><path d="M-13-15C25-35 31 14 0 18" fill="none" stroke="#ffb384" stroke-width="13"/><path d="M-13-15C25-35 31 14 0 18" fill="none" stroke="#fee5a7" stroke-width="3"/></g><g transform="translate(278.8058190830052 285.10503592994064) scale(0.8155501658655704)"><path d="M-13-15C25-35 31 14 0 18" fill="none" stroke="#ffb384" stroke-width="13"/><path d="M-13-15C25-35 31 14 0 18" fill="none" stroke="#fee5a7" stroke-width="3"/></g><g transform="translate(276.4768454451114 315.38341969344765) scale(0.9332815707637929)"><path d="M-13-15C25-35 31 14 0 18" fill="none" stroke="#ffb384" stroke-width="13"/><path d="M-13-15C25-35 31 14 0 18" fill="none" stroke="#fee5a7" stroke-width="3"/></g><g transform="translate(323.40978252887726 226.00963478069752) scale(1.2500197846302763)"><path d="M-13-15C25-35 31 14 0 18" fill="none" stroke="#ffb384" stroke-width="13"/><path d="M-13-15C25-35 31 14 0 18" fill="none" stroke="#fee5a7" stroke-width="3"/></g><g transform="translate(429.91601060144603 202.81611787248403) scale(1.0254558929451743)"><path d="M-13-15C25-35 31 14 0 18" fill="none" stroke="#ffb384" stroke-width="13"/><path d="M-13-15C25-35 31 14 0 18" fill="none" stroke="#fee5a7" stroke-width="3"/></g><g transform="translate(484.8093465678394 342.9708740776405) scale(1.0636487483140082)"><path d="M-13-15C25-35 31 14 0 18" fill="none" stroke="#ffb384" stroke-width="13"/><path d="M-13-15C25-35 31 14 0 18" fill="none" stroke="#fee5a7" stroke-width="3"/></g><ellipse cx="268.2294952617958" cy="173.7963975276798" rx="10.143526861611754" ry="7.6076451462088155" fill="#f1d3a0" stroke="#d8bd88" stroke-width="2"/><ellipse cx="221.46383800636977" cy="289.06299294531345" rx="5.196877763122321" ry="3.8976583223417407" fill="#f1d3a0" stroke="#d8bd88" stroke-width="2"/><ellipse cx="484.3364023575559" cy="302.26488682068884" rx="9.706214638780803" ry="7.279660979085603" fill="#f1d3a0" stroke="#d8bd88" stroke-width="2"/><ellipse cx="383.2215096568689" cy="284.7361842878163" rx="10.069170074053108" ry="7.551877555539831" fill="#f1d3a0" stroke="#d8bd88" stroke-width="2"/><ellipse cx="306.7082019718364" cy="169.9722692053765" rx="6.865066709537059" ry="5.148800032152794" fill="#f1d3a0" stroke="#d8bd88" stroke-width="2"/><g transform="translate(444.6056961007416 326.2845631232485) scale(1.22349682437256)"><path d="M-15-9A21 21 0 0 1 19 9" fill="none" stroke="#ec6950" stroke-width="10"/><path d="M-13-6A16 16 0 0 1 14 7" fill="none" stroke="#ffe0a0" stroke-width="6"/></g><g transform="translate(263.3127081710845 336.11984714958817) scale(0.8950329174264334)"><path d="M-15-9A21 21 0 0 1 19 9" fill="none" stroke="#ec6950" stroke-width="10"/><path d="M-13-6A16 16 0 0 1 14 7" fill="none" stroke="#ffe0a0" stroke-width="6"/></g><g transform="translate(396.98763033747673 252.85219688992947) scale(0.9603234164277092)"><path d="M-15-9A21 21 0 0 1 19 9" fill="none" stroke="#ec6950" stroke-width="10"/><path d="M-13-6A16 16 0 0 1 14 7" fill="none" stroke="#ffe0a0" stroke-width="6"/></g><g transform="translate(387.24700338952243 325.15378596354276) scale(1.2281735149421729)"><path d="M-15-9A21 21 0 0 1 19 9" fill="none" stroke="#ec6950" stroke-width="10"/><path d="M-13-6A16 16 0 0 1 14 7" fill="none" stroke="#ffe0a0" stroke-width="6"/></g><g transform="translate(356.61739752814174 331.5925370818004) scale(0.9634033027198166)"><path d="M-15-9A21 21 0 0 1 19 9" fill="none" stroke="#ec6950" stroke-width="10"/><path d="M-13-6A16 16 0 0 1 14 7" fill="none" stroke="#ffe0a0" stroke-width="6"/></g><g transform="translate(500.9330487791449 225.30058670882136) scale(1.225903885017615)"><path d="M-15-9A21 21 0 0 1 19 9" fill="none" stroke="#ec6950" stroke-width="10"/><path d="M-13-6A16 16 0 0 1 14 7" fill="none" stroke="#ffe0a0" stroke-width="6"/></g><path d="M322.12059743888676 236.35727731976658L343.12059743888676 243.35727731976658" stroke="#e2492c" stroke-width="4"/><path d="M366.71801437437534 270.2067011920735L387.71801437437534 277.2067011920735" stroke="#e2492c" stroke-width="4"/><path d="M318.03830516152084 162.561274622567L339.03830516152084 169.561274622567" stroke="#e2492c" stroke-width="4"/><path d="M276.5007936023176 309.2794552957639L297.5007936023176 316.2794552957639" stroke="#e2492c" stroke-width="4"/><path d="M275.94788680411875 232.273477637209L296.94788680411875 239.273477637209" stroke="#e2492c" stroke-width="4"/><path d="M249.68107829242945 232.59364999365062L270.68107829242945 239.59364999365062" stroke="#e2492c" stroke-width="4"/><path d="M486.4907865729183 303.04176558274776L507.4907865729183 310.04176558274776" stroke="#e2492c" stroke-width="4"/></g><ellipse cx="360" cy="276" rx="240" ry="154" fill="none" stroke="#fbe0ae" stroke-width="5" opacity=".66"/><path d="M145 335Q356 465 574 335" fill="none" stroke="#f9c271" stroke-opacity=".38" stroke-width="6"/></svg>