<svg xmlns="http://www.w3.org/2000/svg" viewBox="0 0 720 540" role="img" aria-label="Итальянская командировка"><defs><linearGradient id="wood" x2=".95" y2="1"><stop stop-color="#333039"/><stop offset="1" stop-color="#1b1d1e"/></linearGradient><linearGradient id="edge" x2=".7" y2="1"><stop stop-color="#f7d9a8"/><stop offset=".48" stop-color="#8a5e4a"/><stop offset="1" stop-color="#372522"/></linearGradient><radialGradient id="dish"><stop stop-color="#f6d08e"/><stop offset="1" stop-color="#dbab65"/></radialGradient><clipPath id="crop"><ellipse cx="360.0" cy="278.0" rx="217" ry="137" fill="#fff" stroke="none" stroke-width="1"/></clipPath></defs><rect width="720" height="540" fill="url(#wood)"/><path d="M0 73.6Q340 85.9 720 91.7" fill="none" stroke="#f5c68b" stroke-width="0.8" opacity=".09" stroke-linejoin="round" stroke-linecap="round"/><path d="M0 123.0Q340 129.5 720 138.4" fill="none" stroke="#f5c68b" stroke-width="0.8" opacity=".09" stroke-linejoin="round" stroke-linecap="round"/><path d="M0 175.9Q340 185.4 720 199.5" fill="none" stroke="#f5c68b" stroke-width="0.8" opacity=".09" stroke-linejoin="round" stroke-linecap="round"/><path d="M0 226.6Q340 237.6 720 233.2" fill="none" stroke="#f5c68b" stroke-width="0.8" opacity=".09" stroke-linejoin="round" stroke-linecap="round"/><path d="M0 294.4Q340 295.9 720 307.9" fill="none" stroke="#f5c68b" stroke-width="0.8" opacity=".09" stroke-linejoin="round" stroke-linecap="round"/><path d="M0 338.3Q340 350.2 720 339.9" fill="none" stroke="#f5c68b" stroke-width="0.8" opacity=".09" stroke-linejoin="round" stroke-linecap="round"/><path d="M0 400.8Q340 405.6 720 408.8" fill="none" stroke="#f5c68b" stroke-width="0.8" opacity=".09" stroke-linejoin="round" stroke-linecap="round"/><path d="M0 465.3Q340 468.8 720 487.0" fill="none" stroke="#f5c68b" stroke-width="0.8" opacity=".09" stroke-linejoin="round" stroke-linecap="round"/><path d="M0 509.3Q340 519.2 720 517.1" fill="none" stroke="#f5c68b" stroke-width="0.8" opacity=".09" stroke-linejoin="round" stroke-linecap="round"/><ellipse cx="360.0" cy="457.0" rx="269" ry="36" fill="#090909" stroke="none" stroke-width="1"/><ellipse cx="360.0" cy="278.0" rx="240" ry="158" fill="url(#edge)" stroke="#f6d8a6" stroke-width="7"/><ellipse cx="360.0" cy="278.0" rx="219" ry="140" fill="#2f1b13" stroke="#e8ba8b" stroke-width="7"/><ellipse cx="360.0" cy="278.0" rx="217" ry="137" fill="url(#dish)" stroke="none" stroke-width="1"/><g clip-path="url(#crop)"><path d="M422.2 223.7Q416.7 191.3 433.3 191.3T444.3 223.7T452.6 207.5" fill="none" stroke="#6f3a22" stroke-width="13" stroke-linejoin="round" stroke-linecap="round"/><path d="M422.2 223.7Q416.7 191.3 433.3 191.3T444.3 223.7T452.6 207.5" fill="none" stroke="#ffe0a0" stroke-width="8" stroke-linejoin="round" stroke-linecap="round"/><path d="M264.4 376.0Q250.6 358.5 292.1 358.5T319.9 376.0T340.7 367.2" fill="none" stroke="#6f3a22" stroke-width="13" stroke-linejoin="round" stroke-linecap="round"/><path d="M264.4 376.0Q250.6 358.5 292.1 358.5T319.9 376.0T340.7 367.2" fill="none" stroke="#ffe0a0" stroke-width="8" stroke-linejoin="round" stroke-linecap="round"/><path d="M188.4 306.6Q181.1 283.5 203.1 283.5T217.7 306.6T228.7 295.1" fill="none" stroke="#6f3a22" stroke-width="13" stroke-linejoin="round" stroke-linecap="round"/><path d="M188.4 306.6Q181.1 283.5 203.1 283.5T217.7 306.6T228.7 295.1" fill="none" stroke="#ffe0a0" stroke-width="8" stroke-linejoin="round" stroke-linecap="round"/><path d="M456.6 329.7Q449.5 317.5 471.0 317.5T485.3 329.7T496.1 323.6" fill="none" stroke="#6f3a22" stroke-width="13" stroke-linejoin="round" stroke-linecap="round"/><path d="M456.6 329.7Q449.5 317.5 471.0 317.5T485.3 329.7T496.1 323.6" fill="none" stroke="#ffe0a0" stroke-width="8" stroke-linejoin="round" stroke-linecap="round"/><path d="M402.5 306.7Q396.0 294.2 415.4 294.2T428.4 306.7T438.1 300.4" fill="none" stroke="#6f3a22" stroke-width="13" stroke-linejoin="round" stroke-linecap="round"/><path d="M402.5 306.7Q396.0 294.2 415.4 294.2T428.4 306.7T438.1 300.4" fill="none" stroke="#ffe0a0" stroke-width="8" stroke-linejoin="round" stroke-linecap="round"/><path d="M402.3 373.4Q388.9 345.5 429.0 345.5T455.7 373.4T475.7 359.5" fill="none" stroke="#6f3a22" stroke-width="13" stroke-linejoin="round" stroke-linecap="round"/><path d="M402.3 373.4Q388.9 345.5 429.0 345.5T455.7 373.4T475.7 359.5" fill="none" stroke="#ffe0a0" stroke-width="8" stroke-linejoin="round" stroke-linecap="round"/><path d="M503.2 226.1Q495.9 212.5 517.8 212.5T532.3 226.1T543.3 219.3" fill="none" stroke="#6f3a22" stroke-width="13" stroke-linejoin="round" stroke-linecap="round"/><path d="M503.2 226.1Q495.9 212.5 517.8 212.5T532.3 226.1T543.3 219.3" fill="none" stroke="#ffe0a0" stroke-width="8" stroke-linejoin="round" stroke-linecap="round"/><path d="M177.4 324.3Q171.6 312.5 189.0 312.5T200.7 324.3T209.4 318.4" fill="none" stroke="#6f3a22" stroke-width="13" stroke-linejoin="round" stroke-linecap="round"/><path d="M177.4 324.3Q171.6 312.5 189.0 312.5T200.7 324.3T209.4 318.4" fill="none" stroke="#ffe0a0" stroke-width="8" stroke-linejoin="round" stroke-linecap="round"/><path d="M290.2 281.3Q274.1 270.6 322.4 270.6T354.7 281.3T378.8 275.9" fill="none" stroke="#6f3a22" stroke-width="13" stroke-linejoin="round" stroke-linecap="round"/><path d="M290.2 281.3Q274.1 270.6 322.4 270.6T354.7 281.3T378.8 275.9" fill="none" stroke="#ffe0a0" stroke-width="8" stroke-linejoin="round" stroke-linecap="round"/><path d="M179.3 362.6Q174.1 335.3 189.7 335.3T200.1 362.6T207.8 349.0" fill="none" stroke="#6f3a22" stroke-width="13" stroke-linejoin="round" stroke-linecap="round"/><path d="M179.3 362.6Q174.1 335.3 189.7 335.3T200.1 362.6T207.8 349.0" fill="none" stroke="#ffe0a0" stroke-width="8" stroke-linejoin="round" stroke-linecap="round"/><path d="M490.8 370.2Q476.8 355.7 519.0 355.7T547.1 370.2T568.2 362.9" fill="none" stroke="#6f3a22" stroke-width="13" stroke-linejoin="round" stroke-linecap="round"/><path d="M490.8 370.2Q476.8 355.7 519.0 355.7T547.1 370.2T568.2 362.9" fill="none" stroke="#ffe0a0" stroke-width="8" stroke-linejoin="round" stroke-linecap="round"/><path d="M159.1 338.0Q144.1 309.6 189.1 309.6T219.1 338.0T241.6 323.8" fill="none" stroke="#6f3a22" stroke-width="13" stroke-linejoin="round" stroke-linecap="round"/><path d="M159.1 338.0Q144.1 309.6 189.1 309.6T219.1 338.0T241.6 323.8" fill="none" stroke="#ffe0a0" stroke-width="8" stroke-linejoin="round" stroke-linecap="round"/><path d="M487.7 244.1Q476.9 208.3 509.4 208.3T531.1 244.1T547.4 226.2" fill="none" stroke="#6f3a22" stroke-width="13" stroke-linejoin="round" stroke-linecap="round"/><path d="M487.7 244.1Q476.9 208.3 509.4 208.3T531.1 244.1T547.4 226.2" fill="none" stroke="#ffe0a0" stroke-width="8" stroke-linejoin="round" stroke-linecap="round"/><path d="M500.0 237.5Q484.3 219.0 531.3 219.0T562.6 237.5T586.0 228.3" fill="none" stroke="#6f3a22" stroke-width="13" stroke-linejoin="round" stroke-linecap="round"/><path d="M500.0 237.5Q484.3 219.0 531.3 219.0T562.6 237.5T586.0 228.3" fill="none" stroke="#ffe0a0" stroke-width="8" stroke-linejoin="round" stroke-linecap="round"/><path d="M390.8 183.8Q383.2 156.6 405.9 156.6T420.9 183.8T432.3 170.2" fill="none" stroke="#6f3a22" stroke-width="13" stroke-linejoin="round" stroke-linecap="round"/><path d="M390.8 183.8Q383.2 156.6 405.9 156.6T420.9 183.8T432.3 170.2" fill="none" stroke="#ffe0a0" stroke-width="8" stroke-linejoin="round" stroke-linecap="round"/><path d="M342.2 181.1Q325.7 158.3 375.1 158.3T408.0 181.1T432.6 169.7" fill="none" stroke="#6f3a22" stroke-width="13" stroke-linejoin="round" stroke-linecap="round"/><path d="M342.2 181.1Q325.7 158.3 375.1 158.3T408.0 181.1T432.6 169.7" fill="none" stroke="#ffe0a0" stroke-width="8" stroke-linejoin="round" stroke-linecap="round"/><path d="M338.6 273.0Q332.7 244.3 350.4 244.3T362.1 273.0T370.9 258.7" fill="none" stroke="#6f3a22" stroke-width="13" stroke-linejoin="round" stroke-linecap="round"/><path d="M338.6 273.0Q332.7 244.3 350.4 244.3T362.1 273.0T370.9 258.7" fill="none" stroke="#ffe0a0" stroke-width="8" stroke-linejoin="round" stroke-linecap="round"/><path d="M435.2 246.8Q430.1 217.3 445.3 217.3T455.4 246.8T463.0 232.0" fill="none" stroke="#6f3a22" stroke-width="13" stroke-linejoin="round" stroke-linecap="round"/><path d="M435.2 246.8Q430.1 217.3 445.3 217.3T455.4 246.8T463.0 232.0" fill="none" stroke="#ffe0a0" stroke-width="8" stroke-linejoin="round" stroke-linecap="round"/><path d="M384.0 271.4Q377.2 249.7 397.7 249.7T411.4 271.4T421.6 260.5" fill="none" stroke="#6f3a22" stroke-width="13" stroke-linejoin="round" stroke-linecap="round"/><path d="M384.0 271.4Q377.2 249.7 397.7 249.7T411.4 271.4T421.6 260.5" fill="none" stroke="#ffe0a0" stroke-width="8" stroke-linejoin="round" stroke-linecap="round"/><path d="M201.6 190.7Q189.0 160.6 226.7 160.6T251.8 190.7T270.6 175.6" fill="none" stroke="#6f3a22" stroke-width="13" stroke-linejoin="round" stroke-linecap="round"/><path d="M201.6 190.7Q189.0 160.6 226.7 160.6T251.8 190.7T270.6 175.6" fill="none" stroke="#ffe0a0" stroke-width="8" stroke-linejoin="round" stroke-linecap="round"/><path d="M220.5 347.8Q210.5 334.6 240.4 334.6T260.4 347.8T275.3 341.2" fill="none" stroke="#6f3a22" stroke-width="13" stroke-linejoin="round" stroke-linecap="round"/><path d="M220.5 347.8Q210.5 334.6 240.4 334.6T260.4 347.8T275.3 341.2" fill="none" stroke="#ffe0a0" stroke-width="8" stroke-linejoin="round" stroke-linecap="round"/><path d="M387.0 347.4Q380.4 317.4 400.2 317.4T413.3 347.4T423.2 332.4" fill="none" stroke="#6f3a22" stroke-width="13" stroke-linejoin="round" stroke-linecap="round"/><path d="M387.0 347.4Q380.4 317.4 400.2 317.4T413.3 347.4T423.2 332.4" fill="none" stroke="#ffe0a0" stroke-width="8" stroke-linejoin="round" stroke-linecap="round"/><path d="M189.5 266.9Q176.0 231.2 216.3 231.2T243.1 266.9T263.3 249.1" fill="none" stroke="#6f3a22" stroke-width="13" stroke-linejoin="round" stroke-linecap="round"/><path d="M189.5 266.9Q176.0 231.2 216.3 231.2T243.1 266.9T263.3 249.1" fill="none" stroke="#ffe0a0" stroke-width="8" stroke-linejoin="round" stroke-linecap="round"/><path d="M410.5 334.2Q395.0 308.5 441.7 308.5T472.9 334.2T496.3 321.4" fill="none" stroke="#6f3a22" stroke-width="13" stroke-linejoin="round" stroke-linecap="round"/><path d="M410.5 334.2Q395.0 308.5 441.7 308.5T472.9 334.2T496.3 321.4" fill="none" stroke="#ffe0a0" stroke-width="8" stroke-linejoin="round" stroke-linecap="round"/><path d="M329.3 379.3Q314.7 365.7 358.6 365.7T387.9 379.3T409.8 372.5" fill="none" stroke="#6f3a22" stroke-width="13" stroke-linejoin="round" stroke-linecap="round"/><path d="M329.3 379.3Q314.7 365.7 358.6 365.7T387.9 379.3T409.8 372.5" fill="none" stroke="#ffe0a0" stroke-width="8" stroke-linejoin="round" stroke-linecap="round"/><path d="M360.0 325.2Q348.2 293.4 383.7 293.4T407.4 325.2T425.1 309.3" fill="none" stroke="#6f3a22" stroke-width="13" stroke-linejoin="round" stroke-linecap="round"/><path d="M360.0 325.2Q348.2 293.4 383.7 293.4T407.4 325.2T425.1 309.3" fill="none" stroke="#ffe0a0" stroke-width="8" stroke-linejoin="round" stroke-linecap="round"/><path d="M344.7 173.8Q332.8 159.9 368.5 159.9T392.2 173.8T410.1 166.9" fill="none" stroke="#6f3a22" stroke-width="13" stroke-linejoin="round" stroke-linecap="round"/><path d="M344.7 173.8Q332.8 159.9 368.5 159.9T392.2 173.8T410.1 166.9" fill="none" stroke="#ffe0a0" stroke-width="8" stroke-linejoin="round" stroke-linecap="round"/><path d="M230.7 328.6Q216.7 305.2 258.7 305.2T286.6 328.6T307.6 316.9" fill="none" stroke="#6f3a22" stroke-width="13" stroke-linejoin="round" stroke-linecap="round"/><path d="M230.7 328.6Q216.7 305.2 258.7 305.2T286.6 328.6T307.6 316.9" fill="none" stroke="#ffe0a0" stroke-width="8" stroke-linejoin="round" stroke-linecap="round"/><path d="M497.4 264.2Q491.0 240.3 510.2 240.3T522.9 264.2T532.5 252.3" fill="none" stroke="#6f3a22" stroke-width="13" stroke-linejoin="round" stroke-linecap="round"/><path d="M497.4 264.2Q491.0 240.3 510.2 240.3T522.9 264.2T532.5 252.3" fill="none" stroke="#ffe0a0" stroke-width="8" stroke-linejoin="round" stroke-linecap="round"/><path d="M453.3 285.8Q447.1 255.1 465.7 255.1T478.0 285.8T487.3 270.4" fill="none" stroke="#6f3a22" stroke-width="13" stroke-linejoin="round" stroke-linecap="round"/><path d="M453.3 285.8Q447.1 255.1 465.7 255.1T478.0 285.8T487.3 270.4" fill="none" stroke="#ffe0a0" stroke-width="8" stroke-linejoin="round" stroke-linecap="round"/><path d="M178.2 311.7Q173.0 300.8 188.6 300.8T198.9 311.7T206.7 306.2" fill="none" stroke="#6f3a22" stroke-width="13" stroke-linejoin="round" stroke-linecap="round"/><path d="M178.2 311.7Q173.0 300.8 188.6 300.8T198.9 311.7T206.7 306.2" fill="none" stroke="#ffe0a0" stroke-width="8" stroke-linejoin="round" stroke-linecap="round"/><path d="M164.2 357.9Q156.7 338.3 179.1 338.3T194.1 357.9T205.3 348.1" fill="none" stroke="#6f3a22" stroke-width="13" stroke-linejoin="round" stroke-linecap="round"/><path d="M164.2 357.9Q156.7 338.3 179.1 338.3T194.1 357.9T205.3 348.1" fill="none" stroke="#ffe0a0" stroke-width="8" stroke-linejoin="round" stroke-linecap="round"/><path d="M302.4 190.9Q289.0 162.6 329.2 162.6T356.0 190.9T376.1 176.8" fill="none" stroke="#6f3a22" stroke-width="13" stroke-linejoin="round" stroke-linecap="round"/><path d="M302.4 190.9Q289.0 162.6 329.2 162.6T356.0 190.9T376.1 176.8" fill="none" stroke="#ffe0a0" stroke-width="8" stroke-linejoin="round" stroke-linecap="round"/><path d="M249.4 286.4Q234.0 258.1 280.2 258.1T311.0 286.4T334.1 272.3" fill="none" stroke="#6f3a22" stroke-width="13" stroke-linejoin="round" stroke-linecap="round"/><path d="M249.4 286.4Q234.0 258.1 280.2 258.1T311.0 286.4T334.1 272.3" fill="none" stroke="#ffe0a0" stroke-width="8" stroke-linejoin="round" stroke-linecap="round"/><path d="M170.3 181.4Q155.0 150.7 201.0 150.7T231.7 181.4T254.7 166.0" fill="none" stroke="#6f3a22" stroke-width="13" stroke-linejoin="round" stroke-linecap="round"/><path d="M170.3 181.4Q155.0 150.7 201.0 150.7T231.7 181.4T254.7 166.0" fill="none" stroke="#ffe0a0" stroke-width="8" stroke-linejoin="round" stroke-linecap="round"/><path d="M354.8 253.3Q347.0 240.2 370.5 240.2T386.1 253.3T397.9 246.8" fill="none" stroke="#6f3a22" stroke-width="13" stroke-linejoin="round" stroke-linecap="round"/><path d="M354.8 253.3Q347.0 240.2 370.5 240.2T386.1 253.3T397.9 246.8" fill="none" stroke="#ffe0a0" stroke-width="8" stroke-linejoin="round" stroke-linecap="round"/><path d="M172.5 270.3Q158.2 247.4 201.1 247.4T229.7 270.3T251.1 258.9" fill="none" stroke="#6f3a22" stroke-width="13" stroke-linejoin="round" stroke-linecap="round"/><path d="M172.5 270.3Q158.2 247.4 201.1 247.4T229.7 270.3T251.1 258.9" fill="none" stroke="#ffe0a0" stroke-width="8" stroke-linejoin="round" stroke-linecap="round"/><path d="M279.5 178.0Q265.0 151.2 308.4 151.2T337.3 178.0T359.0 164.6" fill="none" stroke="#6f3a22" stroke-width="13" stroke-linejoin="round" stroke-linecap="round"/><path d="M279.5 178.0Q265.0 151.2 308.4 151.2T337.3 178.0T359.0 164.6" fill="none" stroke="#ffe0a0" stroke-width="8" stroke-linejoin="round" stroke-linecap="round"/><path d="M492.5 332.6Q477.4 311.4 522.7 311.4T552.9 332.6T575.6 322.0" fill="none" stroke="#6f3a22" stroke-width="13" stroke-linejoin="round" stroke-linecap="round"/><path d="M492.5 332.6Q477.4 311.4 522.7 311.4T552.9 332.6T575.6 322.0" fill="none" stroke="#ffe0a0" stroke-width="8" stroke-linejoin="round" stroke-linecap="round"/><g transform="translate(504.7 316.7) rotate(17) scale(0.7)"><path d="M-27-9Q0-31 28-10L14 17Q-1 27-27-9Z" fill="#e95c3b" stroke="#ffb372" stroke-width="3" stroke-linejoin="round" stroke-linecap="round"/><path d="M-19-9Q0-14 16-8" fill="none" stroke="#ffc59d" stroke-width="3" stroke-linejoin="round" stroke-linecap="round"/></g><g transform="translate(490.3 395.6) rotate(-43) scale(0.8)"><path d="M-27-9Q0-31 28-10L14 17Q-1 27-27-9Z" fill="#e95c3b" stroke="#ffb372" stroke-width="3" stroke-linejoin="round" stroke-linecap="round"/><path d="M-19-9Q0-14 16-8" fill="none" stroke="#ffc59d" stroke-width="3" stroke-linejoin="round" stroke-linecap="round"/></g><g transform="translate(371.3 413.7) rotate(5) scale(0.8)"><path d="M-27-9Q0-31 28-10L14 17Q-1 27-27-9Z" fill="#e95c3b" stroke="#ffb372" stroke-width="3" stroke-linejoin="round" stroke-linecap="round"/><path d="M-19-9Q0-14 16-8" fill="none" stroke="#ffc59d" stroke-width="3" stroke-linejoin="round" stroke-linecap="round"/></g><g transform="translate(252.7 358.8) rotate(10) scale(0.8)"><path d="M-27-9Q0-31 28-10L14 17Q-1 27-27-9Z" fill="#e95c3b" stroke="#ffb372" stroke-width="3" stroke-linejoin="round" stroke-linecap="round"/><path d="M-19-9Q0-14 16-8" fill="none" stroke="#ffc59d" stroke-width="3" stroke-linejoin="round" stroke-linecap="round"/></g><g transform="translate(161.1 299.5) rotate(21) scale(1.0)"><path d="M-27-9Q0-31 28-10L14 17Q-1 27-27-9Z" fill="#e95c3b" stroke="#ffb372" stroke-width="3" stroke-linejoin="round" stroke-linecap="round"/><path d="M-19-9Q0-14 16-8" fill="none" stroke="#ffc59d" stroke-width="3" stroke-linejoin="round" stroke-linecap="round"/></g><g transform="translate(246.5 212.3) rotate(-3) scale(1.0)"><path d="M-28 4Q-12-22 18-18Q28 9-14 19Z" fill="#418e55" stroke="#aade83" stroke-width="3" stroke-linejoin="round" stroke-linecap="round"/><path d="M-19 10L19-13" fill="none" stroke="#d2e89a" stroke-width="2" stroke-linejoin="round" stroke-linecap="round"/></g><g transform="translate(333.0 187.8) rotate(-43) scale(0.9)"><path d="M-28 4Q-12-22 18-18Q28 9-14 19Z" fill="#418e55" stroke="#aade83" stroke-width="3" stroke-linejoin="round" stroke-linecap="round"/><path d="M-19 10L19-13" fill="none" stroke="#d2e89a" stroke-width="2" stroke-linejoin="round" stroke-linecap="round"/></g><g transform="translate(395.5 206.4) rotate(0) scale(0.9)"><path d="M-28 4Q-12-22 18-18Q28 9-14 19Z" fill="#418e55" stroke="#aade83" stroke-width="3" stroke-linejoin="round" stroke-linecap="round"/><path d="M-19 10L19-13" fill="none" stroke="#d2e89a" stroke-width="2" stroke-linejoin="round" stroke-linecap="round"/></g><g transform="translate(424.0 247.5) rotate(-4) scale(0.7)"><path d="M-28 4Q-12-22 18-18Q28 9-14 19Z" fill="#418e55" stroke="#aade83" stroke-width="3" stroke-linejoin="round" stroke-linecap="round"/><path d="M-19 10L19-13" fill="none" stroke="#d2e89a" stroke-width="2" stroke-linejoin="round" stroke-linecap="round"/></g></g><ellipse cx="360.0" cy="278.0" rx="223" ry="143" fill="none" stroke="#ffecbd" stroke-width="4"/><path d="M112 444Q356 494 604 443" fill="none" stroke="#fff2d2" stroke-opacity=".10" stroke-width="3"/></svg>