<svg xmlns="http://www.w3.org/2000/svg" viewBox="0 0 720 540" width="720" height="540" role="img" aria-label="Лаваш «Закрытый протокол»"><defs><radialGradient id="bg"><stop stop-color="#49301e"/><stop offset="1" stop-color="#170f0d"/></radialGradient><linearGradient id="plate"><stop stop-color="#fbd698"/><stop offset=".55" stop-color="#7f4228"/><stop offset="1" stop-color="#442322"/></linearGradient><clipPath id="food"><ellipse cx="360" cy="276" rx="228" ry="143"/></clipPath></defs><rect width="720" height="540" fill="url(#bg)"/><ellipse cx="360" cy="464" rx="270" ry="40" fill="#0c0706" opacity=".6"/><ellipse cx="360" cy="275" rx="267" ry="179" fill="url(#plate)" stroke="#c88e56" stroke-width="8"/><ellipse cx="360" cy="276" rx="241" ry="155" fill="#c48a42" stroke="#f3d298" stroke-width="10"/><g clip-path="url(#food)"><path d="M189.7 167.0q125.7 -25 188.5 0t188.5 0" stroke="#734322" stroke-width="13" fill="none" opacity=".75"/><path d="M189.7 164.0q125.7 -25 188.5 0t188.5 0" stroke="#ffe09b" stroke-width="7" fill="none" stroke-linecap="round"/><path d="M197.4 181.5q128.0 -25 192.0 0t192.0 0" stroke="#734322" stroke-width="13" fill="none" opacity=".75"/><path d="M197.4 178.5q128.0 -25 192.0 0t192.0 0" stroke="#ffc25f" stroke-width="7" fill="none" stroke-linecap="round"/><path d="M212.9 182.8q106.7 -25 160.1 0t160.1 0" stroke="#734322" stroke-width="13" fill="none" opacity=".75"/><path d="M212.9 179.8q106.7 -25 160.1 0t160.1 0" stroke="#ffc25f" stroke-width="7" fill="none" stroke-linecap="round"/><path d="M176.2 174.7q115.8 -25 173.7 0t173.7 0" stroke="#734322" stroke-width="13" fill="none" opacity=".75"/><path d="M176.2 171.7q115.8 -25 173.7 0t173.7 0" stroke="#ffe09b" stroke-width="7" fill="none" stroke-linecap="round"/><path d="M196.2 172.8q102.7 -25 154.1 0t154.1 0" stroke="#734322" stroke-width="13" fill="none" opacity=".75"/><path d="M196.2 169.8q102.7 -25 154.1 0t154.1 0" stroke="#ffc25f" stroke-width="7" fill="none" stroke-linecap="round"/><path d="M221.9 184.9q121.2 -25 181.8 0t181.8 0" stroke="#734322" stroke-width="13" fill="none" opacity=".75"/><path d="M221.9 181.9q121.2 -25 181.8 0t181.8 0" stroke="#ffc25f" stroke-width="7" fill="none" stroke-linecap="round"/><path d="M171.3 200.9q120.1 -25 180.2 0t180.2 0" stroke="#734322" stroke-width="13" fill="none" opacity=".75"/><path d="M171.3 197.9q120.1 -25 180.2 0t180.2 0" stroke="#ffe09b" stroke-width="7" fill="none" stroke-linecap="round"/><path d="M209.1 205.8q127.5 -25 191.2 0t191.2 0" stroke="#734322" stroke-width="13" fill="none" opacity=".75"/><path d="M209.1 202.8q127.5 -25 191.2 0t191.2 0" stroke="#ffc25f" stroke-width="7" fill="none" stroke-linecap="round"/><path d="M166.5 198.7q136.0 -25 204.0 0t204.0 0" stroke="#734322" stroke-width="13" fill="none" opacity=".75"/><path d="M166.5 195.7q136.0 -25 204.0 0t204.0 0" stroke="#ffc25f" stroke-width="7" fill="none" stroke-linecap="round"/><path d="M156.3 194.0q105.6 -25 158.4 0t158.4 0" stroke="#734322" stroke-width="13" fill="none" opacity=".75"/><path d="M156.3 191.0q105.6 -25 158.4 0t158.4 0" stroke="#ffe09b" stroke-width="7" fill="none" stroke-linecap="round"/><path d="M168.6 203.1q136.3 -25 204.5 0t204.5 0" stroke="#734322" stroke-width="13" fill="none" opacity=".75"/><path d="M168.6 200.1q136.3 -25 204.5 0t204.5 0" stroke="#ffc25f" stroke-width="7" fill="none" stroke-linecap="round"/><path d="M195.7 219.7q103.5 -25 155.2 0t155.2 0" stroke="#734322" stroke-width="13" fill="none" opacity=".75"/><path d="M195.7 216.7q103.5 -25 155.2 0t155.2 0" stroke="#ffc25f" stroke-width="7" fill="none" stroke-linecap="round"/><path d="M211.8 228.0q130.5 -25 195.8 0t195.8 0" stroke="#734322" stroke-width="13" fill="none" opacity=".75"/><path d="M211.8 225.0q130.5 -25 195.8 0t195.8 0" stroke="#ffe09b" stroke-width="7" fill="none" stroke-linecap="round"/><path d="M178.2 222.8q101.6 -25 152.3 0t152.3 0" stroke="#734322" stroke-width="13" fill="none" opacity=".75"/><path d="M178.2 219.8q101.6 -25 152.3 0t152.3 0" stroke="#ffc25f" stroke-width="7" fill="none" stroke-linecap="round"/><path d="M155.7 216.0q109.2 -25 163.9 0t163.9 0" stroke="#734322" stroke-width="13" fill="none" opacity=".75"/><path d="M155.7 213.0q109.2 -25 163.9 0t163.9 0" stroke="#ffc25f" stroke-width="7" fill="none" stroke-linecap="round"/><path d="M160.3 221.7q102.1 -25 153.1 0t153.1 0" stroke="#734322" stroke-width="13" fill="none" opacity=".75"/><path d="M160.3 218.7q102.1 -25 153.1 0t153.1 0" stroke="#ffe09b" stroke-width="7" fill="none" stroke-linecap="round"/><path d="M196.6 238.0q107.4 -25 161.1 0t161.1 0" stroke="#734322" stroke-width="13" fill="none" opacity=".75"/><path d="M196.6 235.0q107.4 -25 161.1 0t161.1 0" stroke="#ffc25f" stroke-width="7" fill="none" stroke-linecap="round"/><path d="M169.5 249.4q123.3 -25 184.9 0t184.9 0" stroke="#734322" stroke-width="13" fill="none" opacity=".75"/><path d="M169.5 246.4q123.3 -25 184.9 0t184.9 0" stroke="#ffc25f" stroke-width="7" fill="none" stroke-linecap="round"/><path d="M167.2 246.8q101.9 -25 152.9 0t152.9 0" stroke="#734322" stroke-width="13" fill="none" opacity=".75"/><path d="M167.2 243.8q101.9 -25 152.9 0t152.9 0" stroke="#ffe09b" stroke-width="7" fill="none" stroke-linecap="round"/><path d="M179.9 238.8q107.9 -25 161.8 0t161.8 0" stroke="#734322" stroke-width="13" fill="none" opacity=".75"/><path d="M179.9 235.8q107.9 -25 161.8 0t161.8 0" stroke="#ffc25f" stroke-width="7" fill="none" stroke-linecap="round"/><path d="M177.2 241.0q107.7 -25 161.5 0t161.5 0" stroke="#734322" stroke-width="13" fill="none" opacity=".75"/><path d="M177.2 238.0q107.7 -25 161.5 0t161.5 0" stroke="#ffc25f" stroke-width="7" fill="none" stroke-linecap="round"/><path d="M199.8 255.9q131.4 -25 197.2 0t197.2 0" stroke="#734322" stroke-width="13" fill="none" opacity=".75"/><path d="M199.8 252.9q131.4 -25 197.2 0t197.2 0" stroke="#ffe09b" stroke-width="7" fill="none" stroke-linecap="round"/><path d="M192.5 269.9q108.9 -25 163.4 0t163.4 0" stroke="#734322" stroke-width="13" fill="none" opacity=".75"/><path d="M192.5 266.9q108.9 -25 163.4 0t163.4 0" stroke="#ffc25f" stroke-width="7" fill="none" stroke-linecap="round"/><path d="M178.1 270.5q132.3 -25 198.4 0t198.4 0" stroke="#734322" stroke-width="13" fill="none" opacity=".75"/><path d="M178.1 267.5q132.3 -25 198.4 0t198.4 0" stroke="#ffc25f" stroke-width="7" fill="none" stroke-linecap="round"/><path d="M161.3 262.3q135.2 -25 202.8 0t202.8 0" stroke="#734322" stroke-width="13" fill="none" opacity=".75"/><path d="M161.3 259.3q135.2 -25 202.8 0t202.8 0" stroke="#ffe09b" stroke-width="7" fill="none" stroke-linecap="round"/><path d="M155.9 261.1q116.3 -25 174.5 0t174.5 0" stroke="#734322" stroke-width="13" fill="none" opacity=".75"/><path d="M155.9 258.1q116.3 -25 174.5 0t174.5 0" stroke="#ffc25f" stroke-width="7" fill="none" stroke-linecap="round"/><path d="M209.8 273.8q101.0 -25 151.5 0t151.5 0" stroke="#734322" stroke-width="13" fill="none" opacity=".75"/><path d="M209.8 270.8q101.0 -25 151.5 0t151.5 0" stroke="#ffc25f" stroke-width="7" fill="none" stroke-linecap="round"/><path d="M195.7 289.6q114.2 -25 171.3 0t171.3 0" stroke="#734322" stroke-width="13" fill="none" opacity=".75"/><path d="M195.7 286.6q114.2 -25 171.3 0t171.3 0" stroke="#ffe09b" stroke-width="7" fill="none" stroke-linecap="round"/><path d="M170.4 293.6q101.8 -25 152.6 0t152.6 0" stroke="#734322" stroke-width="13" fill="none" opacity=".75"/><path d="M170.4 290.6q101.8 -25 152.6 0t152.6 0" stroke="#ffc25f" stroke-width="7" fill="none" stroke-linecap="round"/><path d="M198.9 286.2q128.2 -25 192.3 0t192.3 0" stroke="#734322" stroke-width="13" fill="none" opacity=".75"/><path d="M198.9 283.2q128.2 -25 192.3 0t192.3 0" stroke="#ffc25f" stroke-width="7" fill="none" stroke-linecap="round"/><path d="M171.2 282.1q108.9 -25 163.4 0t163.4 0" stroke="#734322" stroke-width="13" fill="none" opacity=".75"/><path d="M171.2 279.1q108.9 -25 163.4 0t163.4 0" stroke="#ffe09b" stroke-width="7" fill="none" stroke-linecap="round"/><path d="M159.1 291.9q135.3 -25 202.9 0t202.9 0" stroke="#734322" stroke-width="13" fill="none" opacity=".75"/><path d="M159.1 288.9q135.3 -25 202.9 0t202.9 0" stroke="#ffc25f" stroke-width="7" fill="none" stroke-linecap="round"/><path d="M183.1 308.5q104.1 -25 156.2 0t156.2 0" stroke="#734322" stroke-width="13" fill="none" opacity=".75"/><path d="M183.1 305.5q104.1 -25 156.2 0t156.2 0" stroke="#ffc25f" stroke-width="7" fill="none" stroke-linecap="round"/><path d="M157.7 316.0q108.6 -25 162.8 0t162.8 0" stroke="#734322" stroke-width="13" fill="none" opacity=".75"/><path d="M157.7 313.0q108.6 -25 162.8 0t162.8 0" stroke="#ffe09b" stroke-width="7" fill="none" stroke-linecap="round"/><path d="M219.9 310.2q126.2 -25 189.3 0t189.3 0" stroke="#734322" stroke-width="13" fill="none" opacity=".75"/><path d="M219.9 307.2q126.2 -25 189.3 0t189.3 0" stroke="#ffc25f" stroke-width="7" fill="none" stroke-linecap="round"/><path d="M193.9 303.9q105.2 -25 157.8 0t157.8 0" stroke="#734322" stroke-width="13" fill="none" opacity=".75"/><path d="M193.9 300.9q105.2 -25 157.8 0t157.8 0" stroke="#ffc25f" stroke-width="7" fill="none" stroke-linecap="round"/><path d="M171.3 310.4q117.4 -25 176.1 0t176.1 0" stroke="#734322" stroke-width="13" fill="none" opacity=".75"/><path d="M171.3 307.4q117.4 -25 176.1 0t176.1 0" stroke="#ffe09b" stroke-width="7" fill="none" stroke-linecap="round"/><path d="M169.5 326.9q108.2 -25 162.3 0t162.3 0" stroke="#734322" stroke-width="13" fill="none" opacity=".75"/><path d="M169.5 323.9q108.2 -25 162.3 0t162.3 0" stroke="#ffc25f" stroke-width="7" fill="none" stroke-linecap="round"/><path d="M159.8 337.6q123.8 -25 185.7 0t185.7 0" stroke="#734322" stroke-width="13" fill="none" opacity=".75"/><path d="M159.8 334.6q123.8 -25 185.7 0t185.7 0" stroke="#ffc25f" stroke-width="7" fill="none" stroke-linecap="round"/><path d="M157.3 334.3q127.9 -25 191.8 0t191.8 0" stroke="#734322" stroke-width="13" fill="none" opacity=".75"/><path d="M157.3 331.3q127.9 -25 191.8 0t191.8 0" stroke="#ffe09b" stroke-width="7" fill="none" stroke-linecap="round"/><path d="M157.3 326.5q130.2 -25 195.3 0t195.3 0" stroke="#734322" stroke-width="13" fill="none" opacity=".75"/><path d="M157.3 323.5q130.2 -25 195.3 0t195.3 0" stroke="#ffc25f" stroke-width="7" fill="none" stroke-linecap="round"/><path d="M187.4 329.6q123.0 -25 184.5 0t184.5 0" stroke="#734322" stroke-width="13" fill="none" opacity=".75"/><path d="M187.4 326.6q123.0 -25 184.5 0t184.5 0" stroke="#ffc25f" stroke-width="7" fill="none" stroke-linecap="round"/><path d="M205.7 344.9q104.3 -25 156.5 0t156.5 0" stroke="#734322" stroke-width="13" fill="none" opacity=".75"/><path d="M205.7 341.9q104.3 -25 156.5 0t156.5 0" stroke="#ffe09b" stroke-width="7" fill="none" stroke-linecap="round"/><path d="M205.8 358.3q118.3 -25 177.5 0t177.5 0" stroke="#734322" stroke-width="13" fill="none" opacity=".75"/><path d="M205.8 355.3q118.3 -25 177.5 0t177.5 0" stroke="#ffc25f" stroke-width="7" fill="none" stroke-linecap="round"/><path d="M153.5 358.1q135.3 -25 202.9 0t202.9 0" stroke="#734322" stroke-width="13" fill="none" opacity=".75"/><path d="M153.5 355.1q135.3 -25 202.9 0t202.9 0" stroke="#ffc25f" stroke-width="7" fill="none" stroke-linecap="round"/><path d="M174.4 349.9q133.7 -25 200.5 0t200.5 0" stroke="#734322" stroke-width="13" fill="none" opacity=".75"/><path d="M174.4 346.9q133.7 -25 200.5 0t200.5 0" stroke="#ffe09b" stroke-width="7" fill="none" stroke-linecap="round"/><path d="M217.0 349.5q121.5 -25 182.3 0t182.3 0" stroke="#734322" stroke-width="13" fill="none" opacity=".75"/><path d="M217.0 346.5q121.5 -25 182.3 0t182.3 0" stroke="#ffc25f" stroke-width="7" fill="none" stroke-linecap="round"/><path d="M160.9 362.8q100.1 -25 150.1 0t150.1 0" stroke="#734322" stroke-width="13" fill="none" opacity=".75"/><path d="M160.9 359.8q100.1 -25 150.1 0t150.1 0" stroke="#ffc25f" stroke-width="7" fill="none" stroke-linecap="round"/><path d="M193.7 378.1q123.2 -25 184.8 0t184.8 0" stroke="#734322" stroke-width="13" fill="none" opacity=".75"/><path d="M193.7 375.1q123.2 -25 184.8 0t184.8 0" stroke="#ffe09b" stroke-width="7" fill="none" stroke-linecap="round"/><path d="M214.7 381.3q129.1 -25 193.7 0t193.7 0" stroke="#734322" stroke-width="13" fill="none" opacity=".75"/><path d="M214.7 378.3q129.1 -25 193.7 0t193.7 0" stroke="#ffc25f" stroke-width="7" fill="none" stroke-linecap="round"/><g transform="translate(454.4161334615201 204.52706614602357) scale(1.063471190268174)"><ellipse rx="32" ry="24" fill="#fff1ce" stroke="#e5d09e" stroke-width="4"/><circle r="14" fill="#f49a22" stroke="#ffe178" stroke-width="4"/><circle cx="-4" cy="-5" r="4" fill="#ffeab0"/></g><g transform="translate(365.5544605227187 302.41718482784927) scale(1.2161587459710428)"><path d="M-17 3Q-15-23 1-22Q17-21 17 3Z" fill="#b78250" stroke="#f2d5a6" stroke-width="4"/><path d="M-6 1V16H6V1" fill="#e5cb99"/></g><g transform="translate(495.296823608689 274.4577590152621) scale(1.2800816321372985)"><path d="M-17 3Q-15-23 1-22Q17-21 17 3Z" fill="#b78250" stroke="#f2d5a6" stroke-width="4"/><path d="M-6 1V16H6V1" fill="#e5cb99"/></g><g transform="translate(208.7011562222615 248.67880082316697) scale(0.7721775192744099)"><path d="M-17 3Q-15-23 1-22Q17-21 17 3Z" fill="#b78250" stroke="#f2d5a6" stroke-width="4"/><path d="M-6 1V16H6V1" fill="#e5cb99"/></g><g transform="translate(418.6924655875191 230.57695582136512) scale(0.9287144194217398)"><path d="M-17 3Q-15-23 1-22Q17-21 17 3Z" fill="#b78250" stroke="#f2d5a6" stroke-width="4"/><path d="M-6 1V16H6V1" fill="#e5cb99"/></g><g transform="translate(324.6796141760424 193.26928526721895) scale(0.8624321539164521)"><path d="M-17 3Q-15-23 1-22Q17-21 17 3Z" fill="#b78250" stroke="#f2d5a6" stroke-width="4"/><path d="M-6 1V16H6V1" fill="#e5cb99"/></g><g transform="translate(267.3594782464206 209.64116609748453) scale(1.040672877021134)"><path d="M-21-14L23-10 12 19 -22 12Z" fill="#ffdc70" stroke="#fff3ba" stroke-width="3"/><circle cx="3" cy="-2" r="4" fill="#e7a836"/></g><g transform="translate(385.4391420725733 166.59509275201708) scale(0.9140677852532826)"><path d="M-21-14L23-10 12 19 -22 12Z" fill="#ffdc70" stroke="#fff3ba" stroke-width="3"/><circle cx="3" cy="-2" r="4" fill="#e7a836"/></g><g transform="translate(516.6926138028502 271.9929758561775) scale(0.7236929026292637)"><path d="M-21-14L23-10 12 19 -22 12Z" fill="#ffdc70" stroke="#fff3ba" stroke-width="3"/><circle cx="3" cy="-2" r="4" fill="#e7a836"/></g><g transform="translate(290.88244176469743 180.50523808319122) scale(1.0721931575075723)"><path d="M-21-14L23-10 12 19 -22 12Z" fill="#ffdc70" stroke="#fff3ba" stroke-width="3"/><circle cx="3" cy="-2" r="4" fill="#e7a836"/></g><g transform="translate(243.98000130429864 205.16561101283878) scale(1.1589444741699846)"><path d="M-21-14L23-10 12 19 -22 12Z" fill="#ffdc70" stroke="#fff3ba" stroke-width="3"/><circle cx="3" cy="-2" r="4" fill="#e7a836"/></g><g transform="translate(362.04237924702466 332.5583986202255) scale(0.7943119757319801)"><path d="M-21-14L23-10 12 19 -22 12Z" fill="#ffdc70" stroke="#fff3ba" stroke-width="3"/><circle cx="3" cy="-2" r="4" fill="#e7a836"/></g><g transform="translate(369.64988959766924 231.83040242735296) scale(1.175922430921346)"><ellipse rx="12" ry="6" fill="#459447" stroke="#b2db77" stroke-width="2"/><path d="M-8 0H8" stroke="#e2f4a8" stroke-width="2"/></g><g transform="translate(347.87371910363436 297.7972219986841) scale(0.9777735357149504)"><ellipse rx="12" ry="6" fill="#459447" stroke="#b2db77" stroke-width="2"/><path d="M-8 0H8" stroke="#e2f4a8" stroke-width="2"/></g><g transform="translate(348.482844164595 217.9889219822362) scale(0.8379801101842895)"><ellipse rx="12" ry="6" fill="#459447" stroke="#b2db77" stroke-width="2"/><path d="M-8 0H8" stroke="#e2f4a8" stroke-width="2"/></g><g transform="translate(294.7893917746842 324.02981775905937) scale(0.7863486868538894)"><ellipse rx="12" ry="6" fill="#459447" stroke="#b2db77" stroke-width="2"/><path d="M-8 0H8" stroke="#e2f4a8" stroke-width="2"/></g><g transform="translate(438.82028976269066 229.74256321880966) scale(0.691429652562365)"><ellipse rx="12" ry="6" fill="#459447" stroke="#b2db77" stroke-width="2"/><path d="M-8 0H8" stroke="#e2f4a8" stroke-width="2"/></g><g transform="translate(346.8930648267269 193.2375748930499) scale(1.0858755528437904)"><ellipse rx="12" ry="6" fill="#459447" stroke="#b2db77" stroke-width="2"/><path d="M-8 0H8" stroke="#e2f4a8" stroke-width="2"/></g><g transform="translate(407.1210228931159 340.14289798308164) scale(1.148041492733173)"><ellipse rx="12" ry="6" fill="#459447" stroke="#b2db77" stroke-width="2"/><path d="M-8 0H8" stroke="#e2f4a8" stroke-width="2"/></g><g transform="translate(271.7965422682464 239.25625256355852) scale(1.1591358672571368)"><ellipse rx="12" ry="6" fill="#459447" stroke="#b2db77" stroke-width="2"/><path d="M-8 0H8" stroke="#e2f4a8" stroke-width="2"/></g><g transform="translate(511.4879288021475 164.73302949313074) scale(0.8728903680667282)"><ellipse rx="12" ry="6" fill="#459447" stroke="#b2db77" stroke-width="2"/><path d="M-8 0H8" stroke="#e2f4a8" stroke-width="2"/></g><g transform="translate(417.5365279028192 251.55343520082533) scale(1.1657828351226636)"><ellipse rx="19" ry="10" fill="#549449" stroke="#e8e0aa" stroke-width="2"/><path d="M-14 0L14 0" stroke="#ffffff" opacity=".35" stroke-width="3"/></g><g transform="translate(349.8526938473806 337.06418450549245) scale(1.2670767338573934)"><ellipse rx="19" ry="10" fill="#549449" stroke="#e8e0aa" stroke-width="2"/><path d="M-14 0L14 0" stroke="#ffffff" opacity=".35" stroke-width="3"/></g><g transform="translate(279.6065100999549 218.01230770163238) scale(0.7438681598729454)"><ellipse rx="19" ry="10" fill="#549449" stroke="#e8e0aa" stroke-width="2"/><path d="M-14 0L14 0" stroke="#ffffff" opacity=".35" stroke-width="3"/></g><g transform="translate(375.7460952280089 171.83619802445173) scale(1.0422566967876628)"><ellipse rx="19" ry="10" fill="#549449" stroke="#e8e0aa" stroke-width="2"/><path d="M-14 0L14 0" stroke="#ffffff" opacity=".35" stroke-width="3"/></g><g transform="translate(324.9044881099835 286.8492878098041) scale(0.8216646667779424)"><ellipse rx="19" ry="10" fill="#549449" stroke="#e8e0aa" stroke-width="2"/><path d="M-14 0L14 0" stroke="#ffffff" opacity=".35" stroke-width="3"/></g><g transform="translate(506.20942424144596 265.6675158403814) scale(0.9729127368051559)"><ellipse rx="19" ry="10" fill="#549449" stroke="#e8e0aa" stroke-width="2"/><path d="M-14 0L14 0" stroke="#ffffff" opacity=".35" stroke-width="3"/></g><g transform="translate(349.98709397483617 328.16224635206163) scale(1.1166747844289058)"><ellipse rx="19" ry="10" fill="#549449" stroke="#e8e0aa" stroke-width="2"/><path d="M-14 0L14 0" stroke="#ffffff" opacity=".35" stroke-width="3"/></g><g transform="translate(420.280989671126 325.162550249137) scale(0.9577830751053988)"><ellipse rx="19" ry="10" fill="#f6a342" stroke="#e8e0aa" stroke-width="2"/><path d="M-14 0L14 0" stroke="#ffffff" opacity=".35" stroke-width="3"/></g><g transform="translate(371.31574907153845 211.74601503740996) scale(1.0165339964418671)"><ellipse rx="19" ry="10" fill="#f6a342" stroke="#e8e0aa" stroke-width="2"/><path d="M-14 0L14 0" stroke="#ffffff" opacity=".35" stroke-width="3"/></g><g transform="translate(479.6804003175348 227.19140609819442) scale(0.8938715813541784)"><ellipse rx="19" ry="10" fill="#f6a342" stroke="#e8e0aa" stroke-width="2"/><path d="M-14 0L14 0" stroke="#ffffff" opacity=".35" stroke-width="3"/></g><g transform="translate(514.0110831595957 286.35084490384907) scale(0.9873977462970651)"><ellipse rx="19" ry="10" fill="#f6a342" stroke="#e8e0aa" stroke-width="2"/><path d="M-14 0L14 0" stroke="#ffffff" opacity=".35" stroke-width="3"/></g><g transform="translate(417.2413187492639 249.8352772751823) scale(0.6770993047486991)"><ellipse rx="19" ry="10" fill="#f6a342" stroke="#e8e0aa" stroke-width="2"/><path d="M-14 0L14 0" stroke="#ffffff" opacity=".35" stroke-width="3"/></g><g transform="translate(214.9888428300619 300.82801860850304) scale(0.913681010666769)"><ellipse rx="19" ry="10" fill="#f6a342" stroke="#e8e0aa" stroke-width="2"/><path d="M-14 0L14 0" stroke="#ffffff" opacity=".35" stroke-width="3"/></g><g transform="translate(307.62572750262916 179.1910847472027) scale(1.0777242860151455)"><ellipse rx="19" ry="10" fill="#f6a342" stroke="#e8e0aa" stroke-width="2"/><path d="M-14 0L14 0" stroke="#ffffff" opacity=".35" stroke-width="3"/></g><g transform="translate(417.63677203282714 257.7397967791185) scale(1.2606235423800536)"><ellipse rx="19" ry="10" fill="#f6a342" stroke="#e8e0aa" stroke-width="2"/><path d="M-14 0L14 0" stroke="#ffffff" opacity=".35" stroke-width="3"/></g><g transform="translate(514.0078619215637 292.14317929092795) scale(1.1453243409842253)"><ellipse rx="19" ry="10" fill="#f6a342" stroke="#e8e0aa" stroke-width="2"/><path d="M-14 0L14 0" stroke="#ffffff" opacity=".35" stroke-width="3"/></g><g transform="translate(421.80033873114735 171.64654950238764) scale(0.6586881924164482)"><ellipse rx="19" ry="12" fill="#399251" stroke="#1f6740" stroke-width="4"/><ellipse rx="13" ry="9" fill="#d3dfaa"/></g><g transform="translate(404.4202901190147 328.0550943650305) scale(0.7069261706992984)"><ellipse rx="19" ry="12" fill="#399251" stroke="#1f6740" stroke-width="4"/><ellipse rx="13" ry="9" fill="#d3dfaa"/></g><g transform="translate(497.7061070324853 249.67414830438793) scale(0.827727431987878)"><ellipse rx="19" ry="12" fill="#399251" stroke="#1f6740" stroke-width="4"/><ellipse rx="13" ry="9" fill="#d3dfaa"/></g><g transform="translate(209.37086928170174 195.20869848877192) scale(0.697173804868944)"><ellipse rx="19" ry="12" fill="#399251" stroke="#1f6740" stroke-width="4"/><ellipse rx="13" ry="9" fill="#d3dfaa"/></g><g transform="translate(309.6932532573119 297.8468644488603) scale(0.8709936613426544)"><ellipse rx="19" ry="12" fill="#399251" stroke="#1f6740" stroke-width="4"/><ellipse rx="13" ry="9" fill="#d3dfaa"/></g><g transform="translate(367.9684215178713 212.65953339263797) scale(1.017590564126149)"><ellipse rx="19" ry="12" fill="#399251" stroke="#1f6740" stroke-width="4"/><ellipse rx="13" ry="9" fill="#d3dfaa"/></g><g transform="translate(364.0599255608395 223.34966593049467) scale(0.6771962602133863)"><ellipse rx="19" ry="12" fill="#399251" stroke="#1f6740" stroke-width="4"/><ellipse rx="13" ry="9" fill="#d3dfaa"/></g><g transform="translate(424.88980714417994 302.3232474559918) scale(1.0054314280720429)"><ellipse rx="18" ry="13" fill="#db4631" stroke="#ff9971" stroke-width="3"/><ellipse rx="9" ry="7" fill="#f5a45b"/></g><g transform="translate(282.6922148838639 200.21477134060115) scale(1.191255799329374)"><ellipse rx="18" ry="13" fill="#db4631" stroke="#ff9971" stroke-width="3"/><ellipse rx="9" ry="7" fill="#f5a45b"/></g><g transform="translate(298.13062199018896 301.94248659629375) scale(0.8528229085821659)"><ellipse rx="18" ry="13" fill="#db4631" stroke="#ff9971" stroke-width="3"/><ellipse rx="9" ry="7" fill="#f5a45b"/></g><g transform="translate(272.21156768873334 264.4266528179869) scale(1.145351911939215)"><ellipse rx="18" ry="13" fill="#db4631" stroke="#ff9971" stroke-width="3"/><ellipse rx="9" ry="7" fill="#f5a45b"/></g><g transform="translate(442.11452192254364 286.5826210388914) scale(0.8346648040553555)"><ellipse rx="18" ry="13" fill="#db4631" stroke="#ff9971" stroke-width="3"/><ellipse rx="9" ry="7" fill="#f5a45b"/></g><g transform="translate(517.6085036993027 170.38975005131215) scale(0.8764144229446538)"><ellipse rx="18" ry="13" fill="#db4631" stroke="#ff9971" stroke-width="3"/><ellipse rx="9" ry="7" fill="#f5a45b"/></g><g transform="translate(236.41781195253134 256.8696139110252) scale(0.7236389127187431)"><ellipse rx="19" ry="10" fill="#d93631" stroke="#e8e0aa" stroke-width="2"/><path d="M-14 0L14 0" stroke="#ffffff" opacity=".35" stroke-width="3"/></g><g transform="translate(231.12025034986436 288.92403712589294) scale(0.9046373481838964)"><ellipse rx="19" ry="10" fill="#d93631" stroke="#e8e0aa" stroke-width="2"/><path d="M-14 0L14 0" stroke="#ffffff" opacity=".35" stroke-width="3"/></g><g transform="translate(492.3499500490725 164.68520294036716) scale(1.025429982491769)"><ellipse rx="19" ry="10" fill="#d93631" stroke="#e8e0aa" stroke-width="2"/><path d="M-14 0L14 0" stroke="#ffffff" opacity=".35" stroke-width="3"/></g><g transform="translate(377.4090540278703 281.48601152095944) scale(0.8350512939714827)"><ellipse rx="19" ry="10" fill="#d93631" stroke="#e8e0aa" stroke-width="2"/><path d="M-14 0L14 0" stroke="#ffffff" opacity=".35" stroke-width="3"/></g><g transform="translate(457.99363665282726 283.9888126878068) scale(0.6985420645307749)"><ellipse rx="19" ry="10" fill="#d93631" stroke="#e8e0aa" stroke-width="2"/><path d="M-14 0L14 0" stroke="#ffffff" opacity=".35" stroke-width="3"/></g><g transform="translate(238.74624731950462 256.23118991125375) scale(0.7734072705241852)"><ellipse rx="19" ry="10" fill="#d93631" stroke="#e8e0aa" stroke-width="2"/><path d="M-14 0L14 0" stroke="#ffffff" opacity=".35" stroke-width="3"/></g><g transform="translate(314.14359813556075 319.6681432342157) scale(1.0304134516371415)"><ellipse rx="19" ry="10" fill="#d93631" stroke="#e8e0aa" stroke-width="2"/><path d="M-14 0L14 0" stroke="#ffffff" opacity=".35" stroke-width="3"/></g><g transform="translate(445.33609486557543 211.79319065157324) scale(0.6440304951486178)"><ellipse rx="19" ry="10" fill="#d93631" stroke="#e8e0aa" stroke-width="2"/><path d="M-14 0L14 0" stroke="#ffffff" opacity=".35" stroke-width="3"/></g><circle cx="378.65928241610527" cy="201.97153945546597" r="4.2666768442606555" fill="#ffcd49" stroke="#ffedb2" stroke-width="2"/><circle cx="446.3809605371207" cy="178.2037830548361" r="3.49141387908021" fill="#ffcd49" stroke="#ffedb2" stroke-width="2"/><circle cx="438.0898957066238" cy="168.698539650999" r="3.9042968980968" fill="#ffcd49" stroke="#ffedb2" stroke-width="2"/><circle cx="305.9373405519873" cy="259.9125306690112" r="3.26152548751561" fill="#ffcd49" stroke="#ffedb2" stroke-width="2"/><circle cx="215.34936898201704" cy="312.6721798731014" r="3.929327831999399" fill="#ffcd49" stroke="#ffedb2" stroke-width="2"/><circle cx="382.2876717802137" cy="289.01309853512794" r="6.126779710978736" fill="#ffcd49" stroke="#ffedb2" stroke-width="2"/><circle cx="360.5818243660033" cy="251.60776640381664" r="3.9656377910170706" fill="#ffcd49" stroke="#ffedb2" stroke-width="2"/><circle cx="482.6528509426862" cy="287.7858030060306" r="4.711313600873109" fill="#ffcd49" stroke="#ffedb2" stroke-width="2"/><circle cx="283.17837800085545" cy="174.38950506132096" r="6.238714223424903" fill="#ffcd49" stroke="#ffedb2" stroke-width="2"/><circle cx="436.19888889603317" cy="195.97685704100877" r="5.759967250155751" fill="#ffcd49" stroke="#ffedb2" stroke-width="2"/><circle cx="448.5825599692762" cy="338.43500315304846" r="3.204286412615329" fill="#ffcd49" stroke="#ffedb2" stroke-width="2"/><circle cx="423.4028774295002" cy="234.14920028392226" r="5.0581794422934765" fill="#ffcd49" stroke="#ffedb2" stroke-width="2"/><circle cx="272.38870296627283" cy="274.735552678816" r="4.103404460405" fill="#ffcd49" stroke="#ffedb2" stroke-width="2"/><circle cx="479.93067481182516" cy="284.24036039132625" r="4.0266765436274" fill="#ffcd49" stroke="#ffedb2" stroke-width="2"/><circle cx="286.9207997210324" cy="200.88469478394836" r="3.7410023096483203" fill="#ffcd49" stroke="#ffedb2" stroke-width="2"/><circle cx="458.3672298537567" cy="265.3182426895946" r="7.708187541305088" fill="#5dba53" stroke="#c8e387" stroke-width="2"/><circle cx="395.8223439110443" cy="229.8458287268877" r="6.327855944875628" fill="#5dba53" stroke="#c8e387" stroke-width="2"/><circle cx="325.86121714208275" cy="206.75621154345572" r="5.177309198384174" fill="#5dba53" stroke="#c8e387" stroke-width="2"/><circle cx="317.00926341768354" cy="292.0436830408871" r="5.854105510013179" fill="#5dba53" stroke="#c8e387" stroke-width="2"/><circle cx="331.9214122565463" cy="203.49394079856575" r="4.034719779188745" fill="#5dba53" stroke="#c8e387" stroke-width="2"/><circle cx="507.99327673297375" cy="340.32676538079977" r="7.301119239404797" fill="#5dba53" stroke="#c8e387" stroke-width="2"/><circle cx="362.87509238068014" cy="207.14442274160683" r="5.262635364742019" fill="#5dba53" stroke="#c8e387" stroke-width="2"/><circle cx="294.61645443644375" cy="333.98510813340545" r="7.091162302074954" fill="#5dba53" stroke="#c8e387" stroke-width="2"/><circle cx="490.9784745173529" cy="304.06590417586267" r="5.691526406756603" fill="#5dba53" stroke="#c8e387" stroke-width="2"/><circle cx="275.10232157539576" cy="264.491131991148" r="4.152871627416461" fill="#5dba53" stroke="#c8e387" stroke-width="2"/><circle cx="208.9692057231441" cy="239.04963056184351" r="4.806290480014868" fill="#5dba53" stroke="#c8e387" stroke-width="2"/><circle cx="287.6767072742805" cy="332.4784057177603" r="4.8219118423853065" fill="#5dba53" stroke="#c8e387" stroke-width="2"/><circle cx="484.2399470927194" cy="288.4802464079112" r="5.670111497151665" fill="#5dba53" stroke="#c8e387" stroke-width="2"/><circle cx="210.15343809407204" cy="225.5993121638894" r="4.5004614699259395" fill="#5dba53" stroke="#c8e387" stroke-width="2"/><circle cx="303.07055149320513" cy="302.03135191090405" r="3.988893569433131" fill="#5dba53" stroke="#c8e387" stroke-width="2"/><ellipse cx="265.95562692545354" cy="252.00950188655406" rx="4" ry="2" fill="#faf0d0"/><ellipse cx="480.4661371000111" cy="201.28385308291763" rx="4" ry="2" fill="#faf0d0"/><ellipse cx="356.56802684254944" cy="320.9176054606214" rx="4" ry="2" fill="#faf0d0"/><ellipse cx="517.5112111568451" cy="262.74271790962666" rx="4" ry="2" fill="#faf0d0"/><ellipse cx="456.59199462644756" cy="261.0935192005709" rx="4" ry="2" fill="#faf0d0"/><ellipse cx="224.01390362903476" cy="186.52027762588114" rx="4" ry="2" fill="#faf0d0"/><ellipse cx="320.68864306248724" cy="305.37465784791857" rx="4" ry="2" fill="#faf0d0"/><ellipse cx="438.7305955514312" cy="326.4316157354042" rx="4" ry="2" fill="#faf0d0"/><ellipse cx="215.47249985300004" cy="238.8568132193759" rx="4" ry="2" fill="#faf0d0"/><ellipse cx="271.3729139305651" cy="337.2544164499268" rx="4" ry="2" fill="#faf0d0"/><ellipse cx="324.9477869141847" cy="300.48717178497463" rx="4" ry="2" fill="#faf0d0"/><ellipse cx="328.588932916522" cy="242.6989353923127" rx="4" ry="2" fill="#faf0d0"/><ellipse cx="426.5814184229821" cy="218.7393634961918" rx="4" ry="2" fill="#faf0d0"/><ellipse cx="485.54984372481704" cy="263.2412515496835" rx="4" ry="2" fill="#faf0d0"/><ellipse cx="494.7002176139504" cy="164.18304186407477" rx="4" ry="2" fill="#faf0d0"/><ellipse cx="483.32959330827" cy="239.1323004765436" rx="4" ry="2" fill="#faf0d0"/><ellipse cx="438.8998523261398" cy="246.7604952873662" rx="4" ry="2" fill="#faf0d0"/><g transform="translate(223.09912139642984 258.3518257047981) scale(0.8352959028654732)"><rect x="-22" y="-12" width="44" height="24" rx="9" fill="#9c583c" stroke="#f9b77c" stroke-width="3"/><path d="M-12-3L9 4" stroke="#ffd7a0" stroke-width="4" opacity=".8"/></g><g transform="translate(404.1935026599094 220.17165736854076) scale(0.9561613340955228)"><rect x="-22" y="-12" width="44" height="24" rx="9" fill="#9c583c" stroke="#f9b77c" stroke-width="3"/><path d="M-12-3L9 4" stroke="#ffd7a0" stroke-width="4" opacity=".8"/></g><g transform="translate(466.1647739717737 164.56554519571364) scale(1.038079532373231)"><rect x="-22" y="-12" width="44" height="24" rx="9" fill="#9c583c" stroke="#f9b77c" stroke-width="3"/><path d="M-12-3L9 4" stroke="#ffd7a0" stroke-width="4" opacity=".8"/></g><g transform="translate(213.60269551631063 209.2003732509911) scale(0.8770677345199511)"><rect x="-22" y="-12" width="44" height="24" rx="9" fill="#9c583c" stroke="#f9b77c" stroke-width="3"/><path d="M-12-3L9 4" stroke="#ffd7a0" stroke-width="4" opacity=".8"/></g><g transform="translate(331.521098789759 267.42053967528045) scale(0.714246003862936)"><rect x="-22" y="-12" width="44" height="24" rx="9" fill="#9c583c" stroke="#f9b77c" stroke-width="3"/><path d="M-12-3L9 4" stroke="#ffd7a0" stroke-width="4" opacity=".8"/></g><g transform="translate(300.82940607052296 266.3818449303508) scale(1.2730241359770298)"><rect x="-22" y="-12" width="44" height="24" rx="9" fill="#9c583c" stroke="#f9b77c" stroke-width="3"/><path d="M-12-3L9 4" stroke="#ffd7a0" stroke-width="4" opacity=".8"/></g><g transform="translate(242.24598338548094 221.01454264111817) scale(0.8433813478774391)"><rect x="-22" y="-12" width="44" height="24" rx="9" fill="#9c583c" stroke="#f9b77c" stroke-width="3"/><path d="M-12-3L9 4" stroke="#ffd7a0" stroke-width="4" opacity=".8"/></g><g transform="translate(440.95427851192653 185.09733514953405) scale(1.269362956690602)"><rect x="-22" y="-12" width="44" height="24" rx="9" fill="#d5b39c" stroke="#f9b77c" stroke-width="3"/><path d="M-12-3L9 4" stroke="#ffd7a0" stroke-width="4" opacity=".8"/></g><g transform="translate(490.4062010757625 224.63215298112482) scale(1.1189296066504903)"><rect x="-22" y="-12" width="44" height="24" rx="9" fill="#d5b39c" stroke="#f9b77c" stroke-width="3"/><path d="M-12-3L9 4" stroke="#ffd7a0" stroke-width="4" opacity=".8"/></g><g transform="translate(407.2826268915087 204.51370958331972) scale(1.1969540897384285)"><rect x="-22" y="-12" width="44" height="24" rx="9" fill="#d5b39c" stroke="#f9b77c" stroke-width="3"/><path d="M-12-3L9 4" stroke="#ffd7a0" stroke-width="4" opacity=".8"/></g><g transform="translate(245.77725376933813 204.9715811861679) scale(0.9996660402021371)"><rect x="-22" y="-12" width="44" height="24" rx="9" fill="#d5b39c" stroke="#f9b77c" stroke-width="3"/><path d="M-12-3L9 4" stroke="#ffd7a0" stroke-width="4" opacity=".8"/></g><g transform="translate(278.65833682380617 310.22102078516036) scale(1.1590116445766763)"><rect x="-22" y="-12" width="44" height="24" rx="9" fill="#d5b39c" stroke="#f9b77c" stroke-width="3"/><path d="M-12-3L9 4" stroke="#ffd7a0" stroke-width="4" opacity=".8"/></g><g transform="translate(460.26794842258096 266.2158344229683) scale(0.8011331742838956)"><rect x="-22" y="-12" width="44" height="24" rx="9" fill="#d5b39c" stroke="#f9b77c" stroke-width="3"/><path d="M-12-3L9 4" stroke="#ffd7a0" stroke-width="4" opacity=".8"/></g><g transform="translate(299.4102007113397 330.86257591005415) scale(1.2854619166674093)"><rect x="-22" y="-12" width="44" height="24" rx="9" fill="#e88d75" stroke="#f9b77c" stroke-width="3"/><path d="M-12-3L9 4" stroke="#ffd7a0" stroke-width="4" opacity=".8"/></g><g transform="translate(433.1345449183136 306.961944215931) scale(0.6902850017161108)"><rect x="-22" y="-12" width="44" height="24" rx="9" fill="#e88d75" stroke="#f9b77c" stroke-width="3"/><path d="M-12-3L9 4" stroke="#ffd7a0" stroke-width="4" opacity=".8"/></g><g transform="translate(505.1638301089406 328.5687388582155) scale(0.9359256917703898)"><rect x="-22" y="-12" width="44" height="24" rx="9" fill="#e88d75" stroke="#f9b77c" stroke-width="3"/><path d="M-12-3L9 4" stroke="#ffd7a0" stroke-width="4" opacity=".8"/></g><g transform="translate(452.2372510340065 343.359096926637) scale(0.6555382902245037)"><rect x="-22" y="-12" width="44" height="24" rx="9" fill="#e88d75" stroke="#f9b77c" stroke-width="3"/><path d="M-12-3L9 4" stroke="#ffd7a0" stroke-width="4" opacity=".8"/></g><g transform="translate(383.3559910841286 172.91842389013618) scale(1.165980124413036)"><rect x="-22" y="-12" width="44" height="24" rx="9" fill="#e88d75" stroke="#f9b77c" stroke-width="3"/><path d="M-12-3L9 4" stroke="#ffd7a0" stroke-width="4" opacity=".8"/></g><g transform="translate(240.65375909395516 218.08734849188477) scale(0.7600327907805331)"><rect x="-22" y="-12" width="44" height="24" rx="9" fill="#e88d75" stroke="#f9b77c" stroke-width="3"/><path d="M-12-3L9 4" stroke="#ffd7a0" stroke-width="4" opacity=".8"/></g><g transform="translate(353.40032175183296 170.35778750758618) scale(0.7245181492157281)"><rect x="-22" y="-12" width="44" height="24" rx="9" fill="#e88d75" stroke="#f9b77c" stroke-width="3"/><path d="M-12-3L9 4" stroke="#ffd7a0" stroke-width="4" opacity=".8"/></g><g transform="translate(506.21927306894213 243.80525587685406) scale(0.9493074544449337)"><path d="M-13-15C25-35 31 14 0 18" fill="none" stroke="#ffb384" stroke-width="13"/><path d="M-13-15C25-35 31 14 0 18" fill="none" stroke="#fee5a7" stroke-width="3"/></g><g transform="translate(282.8093731990084 223.53759683296084) scale(0.7340541355870664)"><path d="M-13-15C25-35 31 14 0 18" fill="none" stroke="#ffb384" stroke-width="13"/><path d="M-13-15C25-35 31 14 0 18" fill="none" stroke="#fee5a7" stroke-width="3"/></g><g transform="translate(484.39975381363183 248.7675338294357) scale(1.153482244068291)"><path d="M-13-15C25-35 31 14 0 18" fill="none" stroke="#ffb384" stroke-width="13"/><path d="M-13-15C25-35 31 14 0 18" fill="none" stroke="#fee5a7" stroke-width="3"/></g><g transform="translate(275.276321108453 181.65283189713955) scale(0.9757519544893876)"><path d="M-13-15C25-35 31 14 0 18" fill="none" stroke="#ffb384" stroke-width="13"/><path d="M-13-15C25-35 31 14 0 18" fill="none" stroke="#fee5a7" stroke-width="3"/></g><g transform="translate(311.73244187328964 188.72528808750212) scale(0.915490630196873)"><path d="M-13-15C25-35 31 14 0 18" fill="none" stroke="#ffb384" stroke-width="13"/><path d="M-13-15C25-35 31 14 0 18" fill="none" stroke="#fee5a7" stroke-width="3"/></g><g transform="translate(487.53423737641424 220.43025936558843) scale(1.1346726325433703)"><path d="M-13-15C25-35 31 14 0 18" fill="none" stroke="#ffb384" stroke-width="13"/><path d="M-13-15C25-35 31 14 0 18" fill="none" stroke="#fee5a7" stroke-width="3"/></g><g transform="translate(272.15681230742484 188.26781403832138) scale(1.1071284355106763)"><path d="M-13-15C25-35 31 14 0 18" fill="none" stroke="#ffb384" stroke-width="13"/><path d="M-13-15C25-35 31 14 0 18" fill="none" stroke="#fee5a7" stroke-width="3"/></g><ellipse cx="305.338121118024" cy="191.7128559956327" rx="6.189204164296389" ry="4.641903123222292" fill="#f1d3a0" stroke="#d8bd88" stroke-width="2"/><ellipse cx="209.23001968860626" cy="209.06815891247243" rx="7.809128905069083" ry="5.856846678801812" fill="#f1d3a0" stroke="#d8bd88" stroke-width="2"/><ellipse cx="447.2616765331477" cy="206.56704770494252" rx="10.238263574130833" ry="7.678697680598125" fill="#f1d3a0" stroke="#d8bd88" stroke-width="2"/><ellipse cx="232.85091246291995" cy="331.2774298256263" rx="6.823283583838493" ry="5.11746268787887" fill="#f1d3a0" stroke="#d8bd88" stroke-width="2"/><ellipse cx="213.18769165314734" cy="204.4694880032912" rx="10.05494222573936" ry="7.54120666930452" fill="#f1d3a0" stroke="#d8bd88" stroke-width="2"/><g transform="translate(514.1017915951088 251.2956298198551) scale(0.6607559706061147)"><path d="M-15-9A21 21 0 0 1 19 9" fill="none" stroke="#ec6950" stroke-width="10"/><path d="M-13-6A16 16 0 0 1 14 7" fill="none" stroke="#ffe0a0" stroke-width="6"/></g><g transform="translate(343.7051605237648 330.85219563543797) scale(0.8254173254454509)"><path d="M-15-9A21 21 0 0 1 19 9" fill="none" stroke="#ec6950" stroke-width="10"/><path d="M-13-6A16 16 0 0 1 14 7" fill="none" stroke="#ffe0a0" stroke-width="6"/></g><g transform="translate(436.2478374848142 166.44189926423132) scale(0.8670812714123167)"><path d="M-15-9A21 21 0 0 1 19 9" fill="none" stroke="#ec6950" stroke-width="10"/><path d="M-13-6A16 16 0 0 1 14 7" fill="none" stroke="#ffe0a0" stroke-width="6"/></g><g transform="translate(315.8741633510217 270.1483575589955) scale(1.0967417688202112)"><path d="M-15-9A21 21 0 0 1 19 9" fill="none" stroke="#ec6950" stroke-width="10"/><path d="M-13-6A16 16 0 0 1 14 7" fill="none" stroke="#ffe0a0" stroke-width="6"/></g><g transform="translate(337.806480971165 294.6344348471612) scale(0.6861896445485763)"><path d="M-15-9A21 21 0 0 1 19 9" fill="none" stroke="#ec6950" stroke-width="10"/><path d="M-13-6A16 16 0 0 1 14 7" fill="none" stroke="#ffe0a0" stroke-width="6"/></g><g transform="translate(211.0520062027499 260.39234211295843) scale(0.6615364013565704)"><path d="M-15-9A21 21 0 0 1 19 9" fill="none" stroke="#ec6950" stroke-width="10"/><path d="M-13-6A16 16 0 0 1 14 7" fill="none" stroke="#ffe0a0" stroke-width="6"/></g><path d="M450.59117532800883 188.8856329023838L471.59117532800883 195.8856329023838" stroke="#e2492c" stroke-width="4"/><path d="M228.1628214577213 218.66199598647654L249.1628214577213 225.66199598647654" stroke="#e2492c" stroke-width="4"/><path d="M475.2792971795425 241.304893437773L496.2792971795425 248.304893437773" stroke="#e2492c" stroke-width="4"/><path d="M490.868839812465 181.75170282833278L511.868839812465 188.75170282833278" stroke="#e2492c" stroke-width="4"/><path d="M219.46139318030328 284.2233109846711L240.46139318030328 291.2233109846711" stroke="#e2492c" stroke-width="4"/><path d="M208.16690198425204 184.5636296737939L229.16690198425204 191.5636296737939" stroke="#e2492c" stroke-width="4"/><path d="M504.79612326528877 315.8911840431392L525.7961232652888 322.8911840431392" stroke="#e2492c" stroke-width="4"/></g><ellipse cx="360" cy="276" rx="240" ry="154" fill="none" stroke="#fbe0ae" stroke-width="5" opacity=".66"/><path d="M145 335Q356 465 574 335" fill="none" stroke="#f9c271" stroke-opacity=".38" stroke-width="6"/></svg>