<svg xmlns="http://www.w3.org/2000/svg" viewBox="0 0 320 320" width="320" height="320" role="img">
<defs><radialGradient id="halo"><stop stop-color="#7d3ab3" stop-opacity=".65"/><stop offset="1" stop-color="#452446" stop-opacity="0"/></radialGradient><linearGradient id="hat" x1="0" y1="0" x2="1" y2="1"><stop stop-color="#7948aa"/><stop offset="1" stop-color="#301b58"/></linearGradient><linearGradient id="robe" x1="0" y1="0" x2=".8" y2="1"><stop stop-color="#8142b3"/><stop offset="1" stop-color="#3f2765"/></linearGradient><linearGradient id="bowl" x1="0" y1="0" x2="1" y2="1"><stop stop-color="#fff5d4"/><stop offset=".85" stop-color="#ffa85d"/></linearGradient><radialGradient id="gem"><stop stop-color="#fffcdf"/><stop offset=".35" stop-color="#e9acff"/><stop offset="1" stop-color="#aa65e5"/></radialGradient></defs>
<circle cx="160" cy="150" r="142" fill="url(#halo)"/><g fill="#ffd36e"><path d="m60 115 4-12 4 12 12 4-12 4-4 12-4-12-12-4z"/><path d="m245 63 3-9 3 9 9 3-9 3-3 9-3-9-9-3z"/><circle cx="90" cy="62" r="4"/><circle cx="273" cy="170" r="3"/></g><path d="M42 193Q65 151 100 184T171 164Q211 141 269 164" fill="none" stroke="#c179ff" stroke-width="6" opacity=".72" stroke-linecap="round"/>
<path d="M86 212Q58 230 47 294H272Q259 226 235 212L211 201H111z" fill="url(#robe)" stroke="#d4a258" stroke-width="5" stroke-linejoin="round"/>
<path d="M151 235 161 295 171 236" fill="#391c57" opacity=".65"/><path d="M143 226q17 11 35 0" fill="none" stroke="#d8a560" stroke-width="5"/>
<path d="M221 231Q257 216 254 184" fill="none" stroke="#f9cf9c" stroke-width="16" stroke-linecap="round"/>
<path d="M251 265 250 84" stroke="#492449" stroke-width="13" stroke-linecap="round"/><path d="M251 265 250 84" stroke="#d9a451" stroke-width="6" stroke-linecap="round"/>
<circle cx="250" cy="79" r="27" fill="url(#gem)" stroke="#ffdf83" stroke-width="6"/><circle cx="239" cy="68" r="6" fill="#fff" opacity=".85"/>
<g fill="none" stroke="#ffe091" stroke-linecap="round" stroke-width="3"><path d="M49 185q16-17 33 0t31 0"/><circle cx="81" cy="184" r="11" stroke="#d29bff" stroke-dasharray="4 7"/></g>
<path d="M101 142C97 161 100 220 129 236q31 18 62 0c31-16 35-80 29-94z" fill="url(#bowl)" stroke="#563040" stroke-width="6" stroke-linejoin="round"/>
<path d="M103 150q57 17 114 0" stroke="#fff9ce" stroke-width="12" stroke-linecap="round"/>
<g fill="none" stroke="#fbb83e" stroke-width="8" stroke-linecap="round"><path d="M115 145q-4-16 12-17t10 14"/><path d="M142 142q-9-20 8-21t7 22"/><path d="M170 144q-8-15 4-20t12 16"/><path d="M193 143q-4-18 10-15"/></g>
<path d="M102 153q57 16 117 0" stroke="#bf715a" stroke-width="3" fill="none"/>
<ellipse cx="118" cy="199" rx="10" ry="6" fill="#ef8e88" opacity=".55"/><ellipse cx="206" cy="199" rx="10" ry="6" fill="#ef8e88" opacity=".55"/>
<path d="M122 179q11 12 24 0 M176 179q11 12 24 0" stroke="#402237" stroke-width="5" stroke-linecap="round" fill="none"/><path d="M154 204q8 6 15 0" stroke="#9c4255" stroke-width="3" fill="none" stroke-linecap="round"/>
<path d="M74 133q22-55 64-104l29 57q34-28 49-14L246 129Q170 109 74 133z" fill="url(#hat)" stroke="#e7a85b" stroke-width="6" stroke-linejoin="round"/>
<path d="M75 131q84-27 171-2" fill="none" stroke="#ffd46b" stroke-width="9" stroke-linecap="round"/>
<path d="M135 83h48" stroke="#f0c473" stroke-width="6" stroke-linecap="round"/>
<path d="m158 49 5 13 13 3-13 4-5 13-5-13-13-4 13-3z" fill="#ffdd64" stroke="#b57846" stroke-width="2"/>
<circle cx="159" cy="241" r="12" fill="#ffd16a" stroke="#85503b" stroke-width="4"/><circle cx="159" cy="241" r="4" fill="#f39850"/>
</svg>